999
dxfrw 0.5.10
0
SECTION
2
HEADER
9
$ACADVER
1
AC1021
9
$HANDSEED
5
20000
9
$DWGCODEPAGE
3
ANSI_1252
9
$INSBASE
10
0
20
0
30
0
9
$EXTMIN
10
15.033413
20
18.25879
30
0
9
$EXTMAX
10
194.966414
20
279.515711
30
0
9
$LIMMIN
10
0
20
0
9
$LIMMAX
10
420
20
297
9
$ORTHOMODE
70
0
9
$LTSCALE
40
1
9
$TEXTSTYLE
7
STANDARD
9
$DIMASZ
40
2.5
9
$DIMSCALE
40
1
9
$DIMEXO
40
0.625
9
$DIMEXE
40
1.25
9
$DIMTXT
40
2.5
9
$DIMTSZ
40
0
9
$DIMAUNIT
70
0
9
$DIMADEC
70
0
9
$DIMLUNIT
70
2
9
$DIMSTYLE
2
Standard
9
$DIMGAP
40
0.625
9
$DIMTIH
70
0
9
$LUNITS
70
2
9
$LUPREC
70
4
9
$AUNITS
70
0
9
$AUPREC
70
2
9
$SPLINESEGS
70
8
9
$GRIDMODE
70
0
9
$SNAPSTYLE
70
0
9
$PINSBASE
10
0
20
0
30
0
9
$PLIMMIN
10
0
20
0
9
$PLIMMAX
10
210
20
297
9
$INSUNITS
70
4
9
$PSVPSCALE
40
1
0
ENDSEC
0
SECTION
2
CLASSES
0
ENDSEC
0
SECTION
2
TABLES
0
TABLE
2
VPORT
5
8
330
0
100
AcDbSymbolTable
70
1
0
VPORT
5
31
330
2
100
AcDbSymbolTableRecord
100
AcDbViewportTableRecord
2
*ACTIVE
70
0
10
0
20
0
11
1
21
1
12
190.600105542
22
153.74691293
13
0
23
0
14
10
24
10
15
10
25
10
16
0
26
0
36
1
17
0
27
0
37
0
40
218.240000002
41
1.75461741425
42
50
43
0
44
0
50
0
51
0
71
0
72
100
73
1
74
3
75
0
76
0
77
0
78
0
281
0
65
1
110
0
120
0
130
0
111
1
121
0
131
0
112
0
122
1
132
0
79
0
146
0
348
10020
60
7
61
5
292
1
282
1
141
0
142
0
63
250
421
3358443
0
ENDTAB
0
TABLE
2
LTYPE
5
5
330
0
100
AcDbSymbolTable
70
4
0
LTYPE
5
14
330
5
100
AcDbSymbolTableRecord
100
AcDbLinetypeTableRecord
2
ByBlock
70
0
3

72
65
73
0
40
0
0
LTYPE
5
15
330
5
100
AcDbSymbolTableRecord
100
AcDbLinetypeTableRecord
2
ByLayer
70
0
3

72
65
73
0
40
0
0
LTYPE
5
16
330
5
100
AcDbSymbolTableRecord
100
AcDbLinetypeTableRecord
2
Continuous
70
0
3
Solid line
72
65
73
0
40
0
0
LTYPE
5
32
330
5
100
AcDbSymbolTableRecord
100
AcDbLinetypeTableRecord
2
DOT
70
0
3
Dot . . . . . . . . . . . . . . . . . . . . . .
72
65
73
2
40
6.35
49
0
74
0
49
-6.35
74
0
0
LTYPE
5
33
330
5
100
AcDbSymbolTableRecord
100
AcDbLinetypeTableRecord
2
DOT2
70
0
3
Dot (.5x) .....................................
72
65
73
2
40
3.175
49
0
74
0
49
-3.175
74
0
0
LTYPE
5
34
330
5
100
AcDbSymbolTableRecord
100
AcDbLinetypeTableRecord
2
DOTX2
70
0
3
Dot (2x) .  .  .  .  .  .  .  .  .  .  .  .  .
72
65
73
2
40
12.7
49
0
74
0
49
-12.7
74
0
0
LTYPE
5
35
330
5
100
AcDbSymbolTableRecord
100
AcDbLinetypeTableRecord
2
DASHED
70
0
3
Dot . . . . . . . . . . . . . . . . . . . . . .
72
65
73
2
40
19.05
49
12.7
74
0
49
-6.35
74
0
0
LTYPE
5
36
330
5
100
AcDbSymbolTableRecord
100
AcDbLinetypeTableRecord
2
DASHED2
70
0
3
Dashed (.5x) _ _ _ _ _ _ _ _ _ _ _ _ _ _ _ _ _
72
65
73
2
40
9.525
49
6.35
74
0
49
-3.175
74
0
0
LTYPE
5
37
330
5
100
AcDbSymbolTableRecord
100
AcDbLinetypeTableRecord
2
DASHEDX2
70
0
3
Dashed (2x) ____  ____  ____  ____  ____  ___
72
65
73
2
40
38.1
49
25.4
74
0
49
-12.7
74
0
0
LTYPE
5
38
330
5
100
AcDbSymbolTableRecord
100
AcDbLinetypeTableRecord
2
DASHDOT
70
0
3
Dash dot __ . __ . __ . __ . __ . __ . __ . __
72
65
73
4
40
25.4
49
12.7
74
0
49
-6.35
74
0
49
0
74
0
49
-6.35
74
0
0
LTYPE
5
39
330
5
100
AcDbSymbolTableRecord
100
AcDbLinetypeTableRecord
2
DASHDOT2
70
0
3
Dash dot (.5x) _._._._._._._._._._._._._._._.
72
65
73
4
40
12.7
49
6.35
74
0
49
-3.175
74
0
49
0
74
0
49
-3.175
74
0
0
LTYPE
5
3A
330
5
100
AcDbSymbolTableRecord
100
AcDbLinetypeTableRecord
2
DASHDOTX2
70
0
3
Dash dot (2x) ____  .  ____  .  ____  .  ___
72
65
73
4
40
50.8
49
25.4
74
0
49
-12.7
74
0
49
0
74
0
49
-12.7
74
0
0
LTYPE
5
3B
330
5
100
AcDbSymbolTableRecord
100
AcDbLinetypeTableRecord
2
DIVIDE
70
0
3
Divide ____ . . ____ . . ____ . . ____ . . ____
72
65
73
6
40
31.75
49
12.7
74
0
49
-6.35
74
0
49
0
74
0
49
-6.35
74
0
49
0
74
0
49
-6.35
74
0
0
LTYPE
5
3C
330
5
100
AcDbSymbolTableRecord
100
AcDbLinetypeTableRecord
2
DIVIDE2
70
0
3
Divide (.5x) __..__..__..__..__..__..__..__.._
72
65
73
6
40
15.875
49
6.35
74
0
49
-3.175
74
0
49
0
74
0
49
-3.175
74
0
49
0
74
0
49
-3.175
74
0
0
LTYPE
5
3D
330
5
100
AcDbSymbolTableRecord
100
AcDbLinetypeTableRecord
2
DIVIDEX2
70
0
3
Divide (2x) ________  .  .  ________  .  .  _
72
65
73
6
40
63.5
49
25.4
74
0
49
-12.7
74
0
49
0
74
0
49
-12.7
74
0
49
0
74
0
49
-12.7
74
0
0
LTYPE
5
3E
330
5
100
AcDbSymbolTableRecord
100
AcDbLinetypeTableRecord
2
BORDER
70
0
3
Border __ __ . __ __ . __ __ . __ __ . __ __ .
72
65
73
6
40
44.45
49
12.7
74
0
49
-6.35
74
0
49
12.7
74
0
49
-6.35
74
0
49
0
74
0
49
-6.35
74
0
0
LTYPE
5
3F
330
5
100
AcDbSymbolTableRecord
100
AcDbLinetypeTableRecord
2
BORDER2
70
0
3
Border (.5x) __.__.__.__.__.__.__.__.__.__.__.
72
65
73
6
40
22.225
49
6.35
74
0
49
-3.175
74
0
49
6.35
74
0
49
-3.175
74
0
49
0
74
0
49
-3.175
74
0
0
LTYPE
5
40
330
5
100
AcDbSymbolTableRecord
100
AcDbLinetypeTableRecord
2
BORDERX2
70
0
3
Border (2x) ____  ____  .  ____  ____  .  ___
72
65
73
6
40
88.9
49
25.4
74
0
49
-12.7
74
0
49
25.4
74
0
49
-12.7
74
0
49
0
74
0
49
-12.7
74
0
0
LTYPE
5
41
330
5
100
AcDbSymbolTableRecord
100
AcDbLinetypeTableRecord
2
CENTER
70
0
3
Center ____ _ ____ _ ____ _ ____ _ ____ _ ____
72
65
73
4
40
50.8
49
31.75
74
0
49
-6.35
74
0
49
6.35
74
0
49
-6.35
74
0
0
LTYPE
5
42
330
5
100
AcDbSymbolTableRecord
100
AcDbLinetypeTableRecord
2
CENTER2
70
0
3
Center (.5x) ___ _ ___ _ ___ _ ___ _ ___ _ ___
72
65
73
4
40
28.575
49
19.05
74
0
49
-3.175
74
0
49
3.175
74
0
49
-3.175
74
0
0
LTYPE
5
43
330
5
100
AcDbSymbolTableRecord
100
AcDbLinetypeTableRecord
2
CENTERX2
70
0
3
Center (2x) ________  __  ________  __  _____
72
65
73
4
40
101.6
49
63.5
74
0
49
-12.7
74
0
49
12.7
74
0
49
-12.7
74
0
0
ENDTAB
0
TABLE
2
LAYER
5
2
330
0
100
AcDbSymbolTable
70
1
0
LAYER
5
10
330
2
100
AcDbSymbolTableRecord
100
AcDbLayerTableRecord
2
0
70
0
62
7
6
CONTINUOUS
370
-3
390
F
0
LAYER
5
44
330
2
100
AcDbSymbolTableRecord
100
AcDbLayerTableRecord
2
2_pdfsam_CCTV_Security_Camera
70
0
62
7
6
CONTINUOUS
370
-3
390
F
0
LAYER
5
45
330
2
100
AcDbSymbolTableRecord
100
AcDbLayerTableRecord
2
cut
70
0
62
3
6
CONTINUOUS
370
0
390
F
0
ENDTAB
0
TABLE
2
STYLE
5
3
330
0
100
AcDbSymbolTable
70
3
0
STYLE
5
46
330
2
100
AcDbSymbolTableRecord
100
AcDbTextStyleTableRecord
2
Standard
70
0
40
0
41
1
50
0
71
0
42
1
3
txt
4

0
ENDTAB
0
TABLE
2
VIEW
5
6
330
0
100
AcDbSymbolTable
70
0
0
ENDTAB
0
TABLE
2
UCS
5
7
330
0
100
AcDbSymbolTable
70
0
0
ENDTAB
0
TABLE
2
APPID
5
9
330
0
100
AcDbSymbolTable
70
1
0
APPID
5
12
330
9
100
AcDbSymbolTableRecord
100
AcDbRegAppTableRecord
2
ACAD
70
0
0
ENDTAB
0
TABLE
2
DIMSTYLE
5
A
330
0
100
AcDbSymbolTable
70
1
100
AcDbDimStyleTable
71
1
0
DIMSTYLE
105
47
330
A
100
AcDbSymbolTableRecord
100
AcDbDimStyleTableRecord
2
Standard
70
0
40
1
41
2.5
42
0.625
43
0.38
44
1.25
45
0
46
0
47
0
48
0
140
2.5
141
0.09
142
0
143
25.4
144
1
145
0
146
1
147
0.625
148
0
71
0
72
0
73
0
74
1
75
0
76
0
77
0
78
0
79
0
170
0
171
2
172
0
173
0
174
0
175
0
176
0
177
0
178
0
179
0
271
4
272
4
273
2
274
2
275
0
276
0
277
2
278
46
279
0
280
0
281
0
282
0
283
1
284
0
285
0
286
0
288
0
289
3
340
Standard
341

371
-2
372
-2
0
ENDTAB
0
TABLE
2
BLOCK_RECORD
5
1
330
0
100
AcDbSymbolTable
70
2
0
BLOCK_RECORD
5
1F
330
1
100
AcDbSymbolTableRecord
100
AcDbBlockTableRecord
2
*Model_Space
70
0
280
1
281
0
0
BLOCK_RECORD
5
1E
330
1
100
AcDbSymbolTableRecord
100
AcDbBlockTableRecord
2
*Paper_Space
70
0
280
1
281
0
0
ENDTAB
0
ENDSEC
0
SECTION
2
BLOCKS
0
BLOCK
5
20
330
1F
100
AcDbEntity
8
0
100
AcDbBlockBegin
2
*Model_Space
70
0
10
0
20
0
30
0
3
*Model_Space
1

0
ENDBLK
5
21
330
1F
100
AcDbEntity
8
0
100
AcDbBlockEnd
0
BLOCK
5
1C
330
1B
100
AcDbEntity
8
0
100
AcDbBlockBegin
2
*Paper_Space
70
0
10
0
20
0
30
0
3
*Paper_Space
1

0
ENDBLK
5
1D
330
1F
100
AcDbEntity
8
0
100
AcDbBlockEnd
0
ENDSEC
0
SECTION
2
ENTITIES
0
LWPOLYLINE
5
48
100
AcDbEntity
8
2_pdfsam_CCTV_Security_Camera
6
ByLayer
62
1
370
-1
100
AcDbPolyline
90
2
70
0
43
0
10
76.394804
20
123.221609
10
76.394804
20
123.221609
0
SPLINE
5
49
100
AcDbEntity
8
2_pdfsam_CCTV_Security_Camera
6
ByLayer
62
1
370
-1
100
AcDbSpline
210
0
220
0
230
1
70
8
71
3
72
8
73
4
74
0
42
1e-007
43
1e-007
40
0
40
0
40
0
40
0
40
1
40
1
40
1
40
1
10
37.209095
20
110.57449
30
0
10
38.40099
20
110.57449
30
0
10
39.367389
20
109.608091
30
0
10
39.367389
20
108.416302
30
0
0
SPLINE
5
4A
100
AcDbEntity
8
2_pdfsam_CCTV_Security_Camera
6
ByLayer
62
1
370
-1
100
AcDbSpline
210
0
220
0
230
1
70
8
71
3
72
8
73
4
74
0
42
1e-007
43
1e-007
40
0
40
0
40
0
40
0
40
1
40
1
40
1
40
1
10
39.367389
20
108.416302
30
0
10
39.367389
20
107.224407
30
0
10
38.40099
20
106.258007
30
0
10
37.209095
20
106.258007
30
0
0
SPLINE
5
4B
100
AcDbEntity
8
2_pdfsam_CCTV_Security_Camera
6
ByLayer
62
1
370
-1
100
AcDbSpline
210
0
220
0
230
1
70
8
71
3
72
8
73
4
74
0
42
1e-007
43
1e-007
40
0
40
0
40
0
40
0
40
1
40
1
40
1
40
1
10
37.209095
20
106.258007
30
0
10
36.017306
20
106.258007
30
0
10
35.050906
20
107.224407
30
0
10
35.050906
20
108.416302
30
0
0
SPLINE
5
4C
100
AcDbEntity
8
2_pdfsam_CCTV_Security_Camera
6
ByLayer
62
1
370
-1
100
AcDbSpline
210
0
220
0
230
1
70
8
71
3
72
8
73
4
74
0
42
1e-007
43
1e-007
40
0
40
0
40
0
40
0
40
1
40
1
40
1
40
1
10
35.050906
20
108.416302
30
0
10
35.050906
20
109.608091
30
0
10
36.017306
20
110.57449
30
0
10
37.209095
20
110.57449
30
0
0
LWPOLYLINE
5
4D
100
AcDbEntity
8
2_pdfsam_CCTV_Security_Camera
6
ByLayer
62
1
370
-1
100
AcDbPolyline
90
32
70
0
43
0
10
57.404317
20
54.590386
10
57.852592
20
53.813886
10
58.452597
20
53.147489
10
59.178084
20
52.62051
10
59.997199
20
52.255808
10
60.87431
20
52.0694
10
61.770895
20
52.069506
10
62.648006
20
52.255914
10
63.467086
20
52.620686
10
64.192503
20
53.147701
10
64.792507
20
53.814098
10
65.240817
20
54.590597
10
65.517783
20
55.443402
10
65.611516
20
56.335189
10
65.517783
20
57.226906
10
65.240606
20
58.079711
10
64.792296
20
58.85621
10
64.192291
20
59.522501
10
63.466909
20
60.049586
10
62.647689
20
60.414217
10
61.770613
20
60.60059
10
60.873993
20
60.60059
10
59.996917
20
60.414112
10
59.177802
20
60.04941
10
58.452385
20
59.522289
10
57.852486
20
58.855998
10
57.404106
20
58.079393
10
57.127105
20
57.226588
10
57.033407
20
56.334907
10
57.127211
20
55.443085
10
57.404318
20
54.590386
10
57.404317
20
54.590386
0
SPLINE
5
4E
100
AcDbEntity
8
2_pdfsam_CCTV_Security_Camera
6
ByLayer
62
1
370
-1
100
AcDbSpline
210
0
220
0
230
1
70
8
71
3
72
8
73
4
74
0
42
1e-007
43
1e-007
40
0
40
0
40
0
40
0
40
1
40
1
40
1
40
1
10
37.209095
20
119.574486
30
0
10
38.40099
20
119.574486
30
0
10
39.367389
20
118.608087
30
0
10
39.367389
20
117.416298
30
0
0
SPLINE
5
4F
100
AcDbEntity
8
2_pdfsam_CCTV_Security_Camera
6
ByLayer
62
1
370
-1
100
AcDbSpline
210
0
220
0
230
1
70
8
71
3
72
8
73
4
74
0
42
1e-007
43
1e-007
40
0
40
0
40
0
40
0
40
1
40
1
40
1
40
1
10
39.367389
20
117.416298
30
0
10
39.367389
20
116.224403
30
0
10
38.40099
20
115.258003
30
0
10
37.209095
20
115.258003
30
0
0
SPLINE
5
50
100
AcDbEntity
8
2_pdfsam_CCTV_Security_Camera
6
ByLayer
62
1
370
-1
100
AcDbSpline
210
0
220
0
230
1
70
8
71
3
72
8
73
4
74
0
42
1e-007
43
1e-007
40
0
40
0
40
0
40
0
40
1
40
1
40
1
40
1
10
37.209095
20
115.258003
30
0
10
36.017306
20
115.258003
30
0
10
35.050906
20
116.224403
30
0
10
35.050906
20
117.416298
30
0
0
SPLINE
5
51
100
AcDbEntity
8
2_pdfsam_CCTV_Security_Camera
6
ByLayer
62
1
370
-1
100
AcDbSpline
210
0
220
0
230
1
70
8
71
3
72
8
73
4
74
0
42
1e-007
43
1e-007
40
0
40
0
40
0
40
0
40
1
40
1
40
1
40
1
10
35.050906
20
117.416298
30
0
10
35.050906
20
118.608087
30
0
10
36.017306
20
119.574486
30
0
10
37.209095
20
119.574486
30
0
0
LWPOLYLINE
5
52
100
AcDbEntity
8
2_pdfsam_CCTV_Security_Camera
6
ByLayer
62
1
370
-1
100
AcDbPolyline
90
2
70
0
43
0
10
37.209095
20
110.57449
10
37.209095
20
110.57449
0
LWPOLYLINE
5
53
100
AcDbEntity
8
2_pdfsam_CCTV_Security_Camera
6
ByLayer
62
1
370
-1
100
AcDbPolyline
90
2
70
0
43
0
10
37.209095
20
119.574486
10
37.209095
20
119.574486
0
LWPOLYLINE
5
54
100
AcDbEntity
8
2_pdfsam_CCTV_Security_Camera
6
ByLayer
62
1
370
-1
100
AcDbPolyline
90
6
70
0
43
0
10
48.943084
20
22.484609
10
53.943109
20
27.484599
10
53.943109
20
66.600493
10
48.943084
20
71.600483
10
48.943084
20
22.484609
10
48.943084
20
22.484609
0
LWPOLYLINE
5
55
100
AcDbEntity
8
2_pdfsam_CCTV_Security_Camera
6
ByLayer
62
1
370
-1
100
AcDbPolyline
90
5
70
0
43
0
10
37.73551
20
22.484715
10
38.856214
20
20.346811
10
39.977095
20
22.484715
10
37.73551
20
22.484715
10
37.73551
20
22.484715
0
LWPOLYLINE
5
56
100
AcDbEntity
8
2_pdfsam_CCTV_Security_Camera
6
ByLayer
62
1
370
-1
100
AcDbPolyline
90
5
70
0
43
0
10
39.977095
20
22.484715
10
41.0978
20
20.346811
10
42.218504
20
22.484715
10
39.977095
20
22.484715
10
39.977095
20
22.484715
0
LWPOLYLINE
5
57
100
AcDbEntity
8
2_pdfsam_CCTV_Security_Camera
6
ByLayer
62
1
370
-1
100
AcDbPolyline
90
5
70
0
43
0
10
42.218504
20
22.484715
10
43.339209
20
20.346811
10
44.460089
20
22.484715
10
42.218504
20
22.484715
10
42.218504
20
22.484715
0
LWPOLYLINE
5
58
100
AcDbEntity
8
2_pdfsam_CCTV_Security_Camera
6
ByLayer
62
1
370
-1
100
AcDbPolyline
90
5
70
0
43
0
10
44.460089
20
22.484715
10
45.580794
20
20.346811
10
46.701498
20
22.484715
10
44.460089
20
22.484715
10
44.460089
20
22.484715
0
LWPOLYLINE
5
59
100
AcDbEntity
8
2_pdfsam_CCTV_Security_Camera
6
ByLayer
62
1
370
-1
100
AcDbPolyline
90
5
70
0
43
0
10
46.701498
20
22.484715
10
47.822203
20
20.346811
10
48.943084
20
22.484715
10
46.701498
20
22.484715
10
46.701498
20
22.484715
0
LWPOLYLINE
5
5A
100
AcDbEntity
8
2_pdfsam_CCTV_Security_Camera
6
ByLayer
62
1
370
-1
100
AcDbPolyline
90
5
70
0
43
0
10
33.252516
20
22.484715
10
34.373185
20
20.346811
10
35.493784
20
22.484715
10
33.252516
20
22.484715
10
33.252516
20
22.484715
0
LWPOLYLINE
5
5B
100
AcDbEntity
8
2_pdfsam_CCTV_Security_Camera
6
ByLayer
62
1
370
-1
100
AcDbPolyline
90
5
70
0
43
0
10
28.769486
20
22.484715
10
29.890191
20
20.346811
10
31.010789
20
22.484715
10
28.769486
20
22.484715
10
28.769486
20
22.484715
0
LWPOLYLINE
5
5C
100
AcDbEntity
8
2_pdfsam_CCTV_Security_Camera
6
ByLayer
62
1
370
-1
100
AcDbPolyline
90
5
70
0
43
0
10
26.527795
20
22.484715
10
27.648817
20
20.346811
10
28.769486
20
22.484715
10
26.527795
20
22.484715
10
26.527795
20
22.484715
0
LWPOLYLINE
5
5D
100
AcDbEntity
8
2_pdfsam_CCTV_Security_Camera
6
ByLayer
62
1
370
-1
100
AcDbPolyline
90
5
70
0
43
0
10
35.493784
20
22.484715
10
36.614806
20
20.346811
10
37.73551
20
22.484715
10
35.493784
20
22.484715
10
35.493784
20
22.484715
0
LWPOLYLINE
5
5E
100
AcDbEntity
8
2_pdfsam_CCTV_Security_Camera
6
ByLayer
62
1
370
-1
100
AcDbPolyline
90
5
70
0
43
0
10
24.286492
20
22.484715
10
25.407197
20
20.346811
10
26.527795
20
22.484715
10
24.286492
20
22.484715
10
24.286492
20
22.484715
0
LWPOLYLINE
5
5F
100
AcDbEntity
8
2_pdfsam_CCTV_Security_Camera
6
ByLayer
62
1
370
-1
100
AcDbPolyline
90
5
70
0
43
0
10
22.044801
20
22.484715
10
23.165506
20
20.346811
10
24.286492
20
22.484715
10
22.044801
20
22.484715
10
22.044801
20
22.484715
0
LWPOLYLINE
5
60
100
AcDbEntity
8
2_pdfsam_CCTV_Security_Camera
6
ByLayer
62
1
370
-1
100
AcDbPolyline
90
5
70
0
43
0
10
31.010789
20
22.484715
10
32.131494
20
20.346811
10
33.252516
20
22.484715
10
31.010789
20
22.484715
10
31.010789
20
22.484715
0
LWPOLYLINE
5
61
100
AcDbEntity
8
2_pdfsam_CCTV_Security_Camera
6
ByLayer
62
1
370
-1
100
AcDbPolyline
90
5
70
0
43
0
10
31.706714
20
120.600505
10
31.023207
20
122.100516
10
30.339312
20
120.600505
10
31.706714
20
120.600505
10
31.706714
20
120.600505
0
LWPOLYLINE
5
62
100
AcDbEntity
8
2_pdfsam_CCTV_Security_Camera
6
ByLayer
62
1
370
-1
100
AcDbPolyline
90
5
70
0
43
0
10
30.339312
20
120.600505
10
29.655805
20
122.100516
10
28.97191
20
120.600505
10
30.339312
20
120.600505
10
30.339312
20
120.600505
0
LWPOLYLINE
5
63
100
AcDbEntity
8
2_pdfsam_CCTV_Security_Camera
6
ByLayer
62
1
370
-1
100
AcDbPolyline
90
5
70
0
43
0
10
28.97191
20
120.600505
10
28.288403
20
122.100516
10
27.604896
20
120.600505
10
28.97191
20
120.600505
10
28.97191
20
120.600505
0
LWPOLYLINE
5
64
100
AcDbEntity
8
2_pdfsam_CCTV_Security_Camera
6
ByLayer
62
1
370
-1
100
AcDbPolyline
90
5
70
0
43
0
10
27.604896
20
120.600505
10
26.921001
20
122.100516
10
26.237494
20
120.600505
10
27.604896
20
120.600505
10
27.604896
20
120.600505
0
LWPOLYLINE
5
65
100
AcDbEntity
8
2_pdfsam_CCTV_Security_Camera
6
ByLayer
62
1
370
-1
100
AcDbPolyline
90
5
70
0
43
0
10
26.237494
20
120.600505
10
25.553599
20
122.100516
10
24.870092
20
120.600505
10
26.237494
20
120.600505
10
26.237494
20
120.600505
0
LWPOLYLINE
5
66
100
AcDbEntity
8
2_pdfsam_CCTV_Security_Camera
6
ByLayer
62
1
370
-1
100
AcDbPolyline
90
5
70
0
43
0
10
24.870092
20
120.600505
10
24.186515
20
122.100516
10
23.502691
20
120.600505
10
24.870092
20
120.600505
10
24.870092
20
120.600505
0
LWPOLYLINE
5
67
100
AcDbEntity
8
2_pdfsam_CCTV_Security_Camera
6
ByLayer
62
1
370
-1
100
AcDbPolyline
90
5
70
0
43
0
10
23.502691
20
120.600505
10
22.819113
20
122.100516
10
22.135289
20
120.600505
10
23.502691
20
120.600505
10
23.502691
20
120.600505
0
LWPOLYLINE
5
68
100
AcDbEntity
8
2_pdfsam_CCTV_Security_Camera
6
ByLayer
62
1
370
-1
100
AcDbPolyline
90
5
70
0
43
0
10
22.135289
20
120.600505
10
21.451711
20
122.100516
10
20.768204
20
120.600505
10
22.135289
20
120.600505
10
22.135289
20
120.600505
0
LWPOLYLINE
5
69
100
AcDbEntity
8
2_pdfsam_CCTV_Security_Camera
6
ByLayer
62
1
370
-1
100
AcDbPolyline
90
5
70
0
43
0
10
20.768204
20
120.600505
10
20.084309
20
122.100516
10
19.400802
20
120.600505
10
20.768204
20
120.600505
10
20.768204
20
120.600505
0
LWPOLYLINE
5
6A
100
AcDbEntity
8
2_pdfsam_CCTV_Security_Camera
6
ByLayer
62
1
370
-1
100
AcDbPolyline
90
5
70
0
43
0
10
19.400802
20
120.600505
10
18.716907
20
122.100516
10
18.0334
20
120.600505
10
19.400802
20
120.600505
10
19.400802
20
120.600505
0
LWPOLYLINE
5
6B
100
AcDbEntity
8
2_pdfsam_CCTV_Security_Camera
6
ByLayer
62
1
370
-1
100
AcDbPolyline
90
6
70
0
43
0
10
18.0334
20
120.600505
10
15.033413
20
117.600483
10
15.033413
20
100.704897
10
18.0334
20
97.70491
10
18.0334
20
120.600505
10
18.0334
20
120.600505
0
LWPOLYLINE
5
6C
100
AcDbEntity
8
2_pdfsam_CCTV_Security_Camera
6
ByLayer
62
1
370
-1
100
AcDbPolyline
90
5
70
0
43
0
10
27.033396
20
132.486082
10
28.419002
20
127.485987
10
29.804501
20
132.486082
10
27.033396
20
132.486082
10
27.033396
20
132.486082
0
LWPOLYLINE
5
6D
100
AcDbEntity
8
2_pdfsam_CCTV_Security_Camera
6
ByLayer
62
1
370
-1
100
AcDbPolyline
90
5
70
0
43
0
10
29.804607
20
161.600515
10
28.419002
20
166.600611
10
27.033396
20
161.600515
10
29.804607
20
161.600515
10
29.804607
20
161.600515
0
LWPOLYLINE
5
6E
100
AcDbEntity
8
2_pdfsam_CCTV_Security_Camera
6
ByLayer
62
1
370
-1
100
AcDbPolyline
90
6
70
0
43
0
10
27.033396
20
161.600515
10
22.033406
20
156.60049
10
22.033406
20
137.486108
10
27.033396
20
132.486082
10
27.033396
20
161.600515
10
27.033396
20
161.600515
0
LWPOLYLINE
5
6F
100
AcDbEntity
8
2_pdfsam_CCTV_Security_Camera
6
ByLayer
62
1
370
-1
100
AcDbPolyline
90
5
70
0
43
0
10
29.804501
20
132.486082
10
31.190106
20
127.485987
10
32.575712
20
132.486082
10
29.804501
20
132.486082
10
29.804501
20
132.486082
0
LWPOLYLINE
5
70
100
AcDbEntity
8
2_pdfsam_CCTV_Security_Camera
6
ByLayer
62
1
370
-1
100
AcDbPolyline
90
5
70
0
43
0
10
32.575712
20
161.600515
10
31.190106
20
166.600611
10
29.804607
20
161.600515
10
32.575712
20
161.600515
10
32.575712
20
161.600515
0
LWPOLYLINE
5
71
100
AcDbEntity
8
2_pdfsam_CCTV_Security_Camera
6
ByLayer
62
1
370
-1
100
AcDbPolyline
90
5
70
0
43
0
10
32.575712
20
132.486082
10
33.961317
20
127.485987
10
35.346816
20
132.486082
10
32.575712
20
132.486082
10
32.575712
20
132.486082
0
LWPOLYLINE
5
72
100
AcDbEntity
8
2_pdfsam_CCTV_Security_Camera
6
ByLayer
62
1
370
-1
100
AcDbPolyline
90
5
70
0
43
0
10
35.346816
20
161.600515
10
33.961317
20
166.600611
10
32.575712
20
161.600515
10
35.346816
20
161.600515
10
35.346816
20
161.600515
0
LWPOLYLINE
5
73
100
AcDbEntity
8
2_pdfsam_CCTV_Security_Camera
6
ByLayer
62
1
370
-1
100
AcDbPolyline
90
5
70
0
43
0
10
35.346816
20
132.486082
10
36.732386
20
127.485987
10
38.117992
20
132.486082
10
35.346816
20
132.486082
10
35.346816
20
132.486082
0
LWPOLYLINE
5
74
100
AcDbEntity
8
2_pdfsam_CCTV_Security_Camera
6
ByLayer
62
1
370
-1
100
AcDbPolyline
90
5
70
0
43
0
10
38.117992
20
161.600515
10
36.732386
20
166.600611
10
35.346816
20
161.600515
10
38.117992
20
161.600515
10
38.117992
20
161.600515
0
LWPOLYLINE
5
75
100
AcDbEntity
8
2_pdfsam_CCTV_Security_Camera
6
ByLayer
62
1
370
-1
100
AcDbPolyline
90
5
70
0
43
0
10
38.117992
20
132.486082
10
39.503491
20
127.485987
10
40.889096
20
132.486082
10
38.117992
20
132.486082
10
38.117992
20
132.486082
0
LWPOLYLINE
5
76
100
AcDbEntity
8
2_pdfsam_CCTV_Security_Camera
6
ByLayer
62
1
370
-1
100
AcDbPolyline
90
5
70
0
43
0
10
40.889096
20
161.600515
10
39.503491
20
166.600611
10
38.117992
20
161.600515
10
40.889096
20
161.600515
10
40.889096
20
161.600515
0
LWPOLYLINE
5
77
100
AcDbEntity
8
2_pdfsam_CCTV_Security_Camera
6
ByLayer
62
1
370
-1
100
AcDbPolyline
90
5
70
0
43
0
10
40.889096
20
132.486082
10
42.274702
20
127.485987
10
43.660307
20
132.486082
10
40.889096
20
132.486082
10
40.889096
20
132.486082
0
LWPOLYLINE
5
78
100
AcDbEntity
8
2_pdfsam_CCTV_Security_Camera
6
ByLayer
62
1
370
-1
100
AcDbPolyline
90
5
70
0
43
0
10
43.660307
20
161.600515
10
42.274702
20
166.600611
10
40.889096
20
161.600515
10
43.660307
20
161.600515
10
43.660307
20
161.600515
0
LWPOLYLINE
5
79
100
AcDbEntity
8
2_pdfsam_CCTV_Security_Camera
6
ByLayer
62
1
370
-1
100
AcDbPolyline
90
5
70
0
43
0
10
46.431412
20
161.600515
10
45.045806
20
166.600611
10
43.660307
20
161.600515
10
46.431412
20
161.600515
10
46.431412
20
161.600515
0
LWPOLYLINE
5
7A
100
AcDbEntity
8
2_pdfsam_CCTV_Security_Camera
6
ByLayer
62
1
370
-1
100
AcDbPolyline
90
5
70
0
43
0
10
46.431412
20
132.486082
10
47.817017
20
127.485987
10
49.202587
20
132.486082
10
46.431412
20
132.486082
10
46.431412
20
132.486082
0
LWPOLYLINE
5
7B
100
AcDbEntity
8
2_pdfsam_CCTV_Security_Camera
6
ByLayer
62
1
370
-1
100
AcDbPolyline
90
5
70
0
43
0
10
49.202587
20
161.600515
10
47.817017
20
166.600611
10
46.431412
20
161.600515
10
49.202587
20
161.600515
10
49.202587
20
161.600515
0
LWPOLYLINE
5
7C
100
AcDbEntity
8
2_pdfsam_CCTV_Security_Camera
6
ByLayer
62
1
370
-1
100
AcDbPolyline
90
5
70
0
43
0
10
43.660307
20
132.486082
10
45.045806
20
127.485987
10
46.431412
20
132.486082
10
43.660307
20
132.486082
10
43.660307
20
132.486082
0
LWPOLYLINE
5
7D
100
AcDbEntity
8
2_pdfsam_CCTV_Security_Camera
6
ByLayer
62
1
370
-1
100
AcDbPolyline
90
5
70
0
43
0
10
49.202587
20
132.486082
10
50.588086
20
127.485987
10
51.973692
20
132.486082
10
49.202587
20
132.486082
10
49.202587
20
132.486082
0
LWPOLYLINE
5
7E
100
AcDbEntity
8
2_pdfsam_CCTV_Security_Camera
6
ByLayer
62
1
370
-1
100
AcDbPolyline
90
5
70
0
43
0
10
51.973692
20
161.600515
10
50.588086
20
166.600611
10
49.202587
20
161.600515
10
51.973692
20
161.600515
10
51.973692
20
161.600515
0
LWPOLYLINE
5
7F
100
AcDbEntity
8
2_pdfsam_CCTV_Security_Camera
6
ByLayer
62
1
370
-1
100
AcDbPolyline
90
5
70
0
43
0
10
51.973692
20
132.486082
10
53.359297
20
127.485987
10
54.744796
20
132.486082
10
51.973692
20
132.486082
10
51.973692
20
132.486082
0
LWPOLYLINE
5
80
100
AcDbEntity
8
2_pdfsam_CCTV_Security_Camera
6
ByLayer
62
1
370
-1
100
AcDbPolyline
90
5
70
0
43
0
10
54.744796
20
161.600515
10
53.359297
20
166.600611
10
51.973692
20
161.600515
10
54.744796
20
161.600515
10
54.744796
20
161.600515
0
LWPOLYLINE
5
81
100
AcDbEntity
8
2_pdfsam_CCTV_Security_Camera
6
ByLayer
62
1
370
-1
100
AcDbPolyline
90
5
70
0
43
0
10
54.744796
20
132.486082
10
56.130402
20
127.485987
10
57.516007
20
132.486082
10
54.744796
20
132.486082
10
54.744796
20
132.486082
0
LWPOLYLINE
5
82
100
AcDbEntity
8
2_pdfsam_CCTV_Security_Camera
6
ByLayer
62
1
370
-1
100
AcDbPolyline
90
5
70
0
43
0
10
57.516007
20
161.600515
10
56.130402
20
166.600611
10
54.744796
20
161.600515
10
57.516007
20
161.600515
10
57.516007
20
161.600515
0
LWPOLYLINE
5
83
100
AcDbEntity
8
2_pdfsam_CCTV_Security_Camera
6
ByLayer
62
1
370
-1
100
AcDbPolyline
90
5
70
0
43
0
10
57.516007
20
132.486082
10
58.901612
20
127.485987
10
60.287112
20
132.486082
10
57.516007
20
132.486082
10
57.516007
20
132.486082
0
LWPOLYLINE
5
84
100
AcDbEntity
8
2_pdfsam_CCTV_Security_Camera
6
ByLayer
62
1
370
-1
100
AcDbPolyline
90
5
70
0
43
0
10
60.287112
20
132.486082
10
61.672717
20
127.485987
10
63.058287
20
132.486082
10
60.287112
20
132.486082
10
60.287112
20
132.486082
0
LWPOLYLINE
5
85
100
AcDbEntity
8
2_pdfsam_CCTV_Security_Camera
6
ByLayer
62
1
370
-1
100
AcDbPolyline
90
5
70
0
43
0
10
63.058287
20
161.600515
10
61.672717
20
166.600611
10
60.287112
20
161.600515
10
63.058287
20
161.600515
10
63.058287
20
161.600515
0
LWPOLYLINE
5
86
100
AcDbEntity
8
2_pdfsam_CCTV_Security_Camera
6
ByLayer
62
1
370
-1
100
AcDbPolyline
90
5
70
0
43
0
10
60.287112
20
161.600515
10
58.901612
20
166.600611
10
57.516007
20
161.600515
10
60.287112
20
161.600515
10
60.287112
20
161.600515
0
LWPOLYLINE
5
87
100
AcDbEntity
8
2_pdfsam_CCTV_Security_Camera
6
ByLayer
62
1
370
-1
100
AcDbPolyline
90
5
70
0
43
0
10
68.600602
20
132.486082
10
69.986207
20
127.485987
10
71.371707
20
132.486082
10
68.600602
20
132.486082
10
68.600602
20
132.486082
0
LWPOLYLINE
5
88
100
AcDbEntity
8
2_pdfsam_CCTV_Security_Camera
6
ByLayer
62
1
370
-1
100
AcDbPolyline
90
5
70
0
43
0
10
71.371707
20
161.600515
10
69.986207
20
166.600611
10
68.600602
20
161.600515
10
71.371707
20
161.600515
10
71.371707
20
161.600515
0
LWPOLYLINE
5
89
100
AcDbEntity
8
2_pdfsam_CCTV_Security_Camera
6
ByLayer
62
1
370
-1
100
AcDbPolyline
90
5
70
0
43
0
10
63.058287
20
132.486082
10
64.443786
20
127.485987
10
65.829392
20
132.486082
10
63.058287
20
132.486082
10
63.058287
20
132.486082
0
LWPOLYLINE
5
8A
100
AcDbEntity
8
2_pdfsam_CCTV_Security_Camera
6
ByLayer
62
1
370
-1
100
AcDbPolyline
90
5
70
0
43
0
10
65.829392
20
132.486082
10
67.214997
20
127.485987
10
68.600602
20
132.486082
10
65.829392
20
132.486082
10
65.829392
20
132.486082
0
LWPOLYLINE
5
8B
100
AcDbEntity
8
2_pdfsam_CCTV_Security_Camera
6
ByLayer
62
1
370
-1
100
AcDbPolyline
90
5
70
0
43
0
10
68.600602
20
161.600515
10
67.214997
20
166.600611
10
65.829392
20
161.600515
10
68.600602
20
161.600515
10
68.600602
20
161.600515
0
LWPOLYLINE
5
8C
100
AcDbEntity
8
2_pdfsam_CCTV_Security_Camera
6
ByLayer
62
1
370
-1
100
AcDbPolyline
90
5
70
0
43
0
10
65.829392
20
161.600515
10
64.443786
20
166.600611
10
63.058287
20
161.600515
10
65.829392
20
161.600515
10
65.829392
20
161.600515
0
LWPOLYLINE
5
8D
100
AcDbEntity
8
2_pdfsam_CCTV_Security_Camera
6
ByLayer
62
1
370
-1
100
AcDbPolyline
90
5
70
0
43
0
10
71.371707
20
132.486082
10
72.757312
20
127.485987
10
74.142917
20
132.486082
10
71.371707
20
132.486082
10
71.371707
20
132.486082
0
LWPOLYLINE
5
8E
100
AcDbEntity
8
2_pdfsam_CCTV_Security_Camera
6
ByLayer
62
1
370
-1
100
AcDbPolyline
90
5
70
0
43
0
10
74.142917
20
132.486082
10
75.528417
20
127.485987
10
76.913987
20
132.486082
10
74.142918
20
132.486082
10
74.142917
20
132.486082
0
LWPOLYLINE
5
8F
100
AcDbEntity
8
2_pdfsam_CCTV_Security_Camera
6
ByLayer
62
1
370
-1
100
AcDbPolyline
90
5
70
0
43
0
10
76.913987
20
161.600515
10
75.528417
20
166.600611
10
74.142917
20
161.600515
10
76.913987
20
161.600515
10
76.913987
20
161.600515
0
LWPOLYLINE
5
90
100
AcDbEntity
8
2_pdfsam_CCTV_Security_Camera
6
ByLayer
62
1
370
-1
100
AcDbPolyline
90
5
70
0
43
0
10
74.142917
20
161.600515
10
72.757312
20
166.600611
10
71.371707
20
161.600515
10
74.142918
20
161.600515
10
74.142917
20
161.600515
0
LWPOLYLINE
5
91
100
AcDbEntity
8
2_pdfsam_CCTV_Security_Camera
6
ByLayer
62
1
370
-1
100
AcDbPolyline
90
5
70
0
43
0
10
76.913987
20
132.486082
10
78.299592
20
127.485987
10
79.685092
20
132.486082
10
76.913987
20
132.486082
10
76.913987
20
132.486082
0
LWPOLYLINE
5
92
100
AcDbEntity
8
2_pdfsam_CCTV_Security_Camera
6
ByLayer
62
1
370
-1
100
AcDbPolyline
90
5
70
0
43
0
10
79.685092
20
132.486082
10
81.070697
20
127.485987
10
82.456302
20
132.486082
10
79.685092
20
132.486082
10
79.685092
20
132.486082
0
LWPOLYLINE
5
93
100
AcDbEntity
8
2_pdfsam_CCTV_Security_Camera
6
ByLayer
62
1
370
-1
100
AcDbPolyline
90
5
70
0
43
0
10
82.456302
20
132.486082
10
83.841907
20
127.485987
10
85.227407
20
132.486082
10
82.456302
20
132.486082
10
82.456302
20
132.486082
0
LWPOLYLINE
5
94
100
AcDbEntity
8
2_pdfsam_CCTV_Security_Camera
6
ByLayer
62
1
370
-1
100
AcDbPolyline
90
5
70
0
43
0
10
85.227407
20
161.600515
10
83.841907
20
166.600611
10
82.456302
20
161.600515
10
85.227407
20
161.600515
10
85.227407
20
161.600515
0
LWPOLYLINE
5
95
100
AcDbEntity
8
2_pdfsam_CCTV_Security_Camera
6
ByLayer
62
1
370
-1
100
AcDbPolyline
90
5
70
0
43
0
10
82.456302
20
161.600515
10
81.070697
20
166.600611
10
79.685092
20
161.600515
10
82.456302
20
161.600515
10
82.456302
20
161.600515
0
LWPOLYLINE
5
96
100
AcDbEntity
8
2_pdfsam_CCTV_Security_Camera
6
ByLayer
62
1
370
-1
100
AcDbPolyline
90
5
70
0
43
0
10
79.685092
20
161.600515
10
78.299592
20
166.600611
10
76.913987
20
161.600515
10
79.685092
20
161.600515
10
79.685092
20
161.600515
0
LWPOLYLINE
5
97
100
AcDbEntity
8
2_pdfsam_CCTV_Security_Camera
6
ByLayer
62
1
370
-1
100
AcDbPolyline
90
5
70
0
43
0
10
85.227407
20
132.486082
10
86.613012
20
127.485987
10
87.998617
20
132.486082
10
85.227407
20
132.486082
10
85.227407
20
132.486082
0
LWPOLYLINE
5
98
100
AcDbEntity
8
2_pdfsam_CCTV_Security_Camera
6
ByLayer
62
1
370
-1
100
AcDbPolyline
90
5
70
0
43
0
10
87.998617
20
161.600515
10
86.613012
20
166.600611
10
85.227407
20
161.600515
10
87.998617
20
161.600515
10
87.998617
20
161.600515
0
LWPOLYLINE
5
99
100
AcDbEntity
8
2_pdfsam_CCTV_Security_Camera
6
ByLayer
62
1
370
-1
100
AcDbPolyline
90
5
70
0
43
0
10
87.998617
20
132.486082
10
89.384187
20
127.485987
10
90.769687
20
132.486082
10
87.998617
20
132.486082
10
87.998617
20
132.486082
0
LWPOLYLINE
5
9A
100
AcDbEntity
8
2_pdfsam_CCTV_Security_Camera
6
ByLayer
62
1
370
-1
100
AcDbPolyline
90
5
70
0
43
0
10
90.769687
20
161.600515
10
89.384187
20
166.600611
10
87.998617
20
161.600515
10
90.769687
20
161.600515
10
90.769687
20
161.600515
0
LWPOLYLINE
5
9B
100
AcDbEntity
8
2_pdfsam_CCTV_Security_Camera
6
ByLayer
62
1
370
-1
100
AcDbPolyline
90
5
70
0
43
0
10
90.769687
20
132.486082
10
92.155292
20
127.485987
10
93.540898
20
132.486082
10
90.769687
20
132.486082
10
90.769687
20
132.486082
0
LWPOLYLINE
5
9C
100
AcDbEntity
8
2_pdfsam_CCTV_Security_Camera
6
ByLayer
62
1
370
-1
100
AcDbPolyline
90
5
70
0
43
0
10
93.540898
20
161.600515
10
92.155292
20
166.600611
10
90.769687
20
161.600515
10
93.540897
20
161.600515
10
93.540898
20
161.600515
0
LWPOLYLINE
5
9D
100
AcDbEntity
8
2_pdfsam_CCTV_Security_Camera
6
ByLayer
62
1
370
-1
100
AcDbPolyline
90
5
70
0
43
0
10
93.540898
20
132.486082
10
94.926397
20
127.485987
10
96.312002
20
132.486082
10
93.540898
20
132.486082
10
93.540898
20
132.486082
0
LWPOLYLINE
5
9E
100
AcDbEntity
8
2_pdfsam_CCTV_Security_Camera
6
ByLayer
62
1
370
-1
100
AcDbPolyline
90
5
70
0
43
0
10
96.312002
20
161.600515
10
94.926397
20
166.600611
10
93.540898
20
161.600515
10
96.312002
20
161.600515
10
96.312002
20
161.600515
0
LWPOLYLINE
5
9F
100
AcDbEntity
8
2_pdfsam_CCTV_Security_Camera
6
ByLayer
62
1
370
-1
100
AcDbPolyline
90
5
70
0
43
0
10
96.312002
20
132.486082
10
97.697608
20
127.485987
10
99.083107
20
132.486082
10
96.312002
20
132.486082
10
96.312002
20
132.486082
0
LWPOLYLINE
5
A0
100
AcDbEntity
8
2_pdfsam_CCTV_Security_Camera
6
ByLayer
62
1
370
-1
100
AcDbPolyline
90
5
70
0
43
0
10
99.083107
20
161.600515
10
97.697608
20
166.600611
10
96.312002
20
161.600515
10
99.083107
20
161.600515
10
99.083107
20
161.600515
0
LWPOLYLINE
5
A1
100
AcDbEntity
8
2_pdfsam_CCTV_Security_Camera
6
ByLayer
62
1
370
-1
100
AcDbPolyline
90
5
70
0
43
0
10
99.083107
20
132.486082
10
100.468712
20
127.485987
10
101.854318
20
132.486082
10
99.083107
20
132.486082
10
99.083107
20
132.486082
0
LWPOLYLINE
5
A2
100
AcDbEntity
8
2_pdfsam_CCTV_Security_Camera
6
ByLayer
62
1
370
-1
100
AcDbPolyline
90
5
70
0
43
0
10
101.854317
20
161.600515
10
100.468712
20
166.600611
10
99.083107
20
161.600515
10
101.854317
20
161.600515
10
101.854317
20
161.600515
0
LWPOLYLINE
5
A3
100
AcDbEntity
8
2_pdfsam_CCTV_Security_Camera
6
ByLayer
62
1
370
-1
100
AcDbPolyline
90
5
70
0
43
0
10
101.854317
20
132.486082
10
103.239887
20
127.485987
10
104.625493
20
132.486082
10
101.854317
20
132.486082
10
101.854317
20
132.486082
0
LWPOLYLINE
5
A4
100
AcDbEntity
8
2_pdfsam_CCTV_Security_Camera
6
ByLayer
62
1
370
-1
100
AcDbPolyline
90
5
70
0
43
0
10
104.625493
20
161.600515
10
103.239887
20
166.600611
10
101.854317
20
161.600515
10
104.625493
20
161.600515
10
104.625493
20
161.600515
0
LWPOLYLINE
5
A5
100
AcDbEntity
8
2_pdfsam_CCTV_Security_Camera
6
ByLayer
62
1
370
-1
100
AcDbPolyline
90
5
70
0
43
0
10
104.625493
20
132.486082
10
106.010992
20
127.485987
10
107.396597
20
132.486082
10
104.625493
20
132.486082
10
104.625493
20
132.486082
0
LWPOLYLINE
5
A6
100
AcDbEntity
8
2_pdfsam_CCTV_Security_Camera
6
ByLayer
62
1
370
-1
100
AcDbPolyline
90
5
70
0
43
0
10
107.396598
20
161.600515
10
106.010992
20
166.600611
10
104.625493
20
161.600515
10
107.396598
20
161.600515
10
107.396598
20
161.600515
0
LWPOLYLINE
5
A7
100
AcDbEntity
8
2_pdfsam_CCTV_Security_Camera
6
ByLayer
62
1
370
-1
100
AcDbPolyline
90
5
70
0
43
0
10
107.396598
20
132.486082
10
108.782203
20
127.485987
10
110.167702
20
132.486082
10
107.396598
20
132.486082
10
107.396598
20
132.486082
0
LWPOLYLINE
5
A8
100
AcDbEntity
8
2_pdfsam_CCTV_Security_Camera
6
ByLayer
62
1
370
-1
100
AcDbPolyline
90
5
70
0
43
0
10
110.167702
20
161.600515
10
108.782203
20
166.600611
10
107.396598
20
161.600515
10
110.167702
20
161.600515
10
110.167702
20
161.600515
0
LWPOLYLINE
5
A9
100
AcDbEntity
8
2_pdfsam_CCTV_Security_Camera
6
ByLayer
62
1
370
-1
100
AcDbPolyline
90
5
70
0
43
0
10
64.0334
20
20.258899
10
64.854808
20
18.258896
10
65.67611
20
20.258899
10
64.0334
20
20.258899
10
64.0334
20
20.258899
0
LWPOLYLINE
5
AA
100
AcDbEntity
8
2_pdfsam_CCTV_Security_Camera
6
ByLayer
62
1
370
-1
100
AcDbPolyline
90
5
70
0
43
0
10
65.67611
20
26.600503
10
64.854808
20
28.600506
10
64.0334
20
26.600503
10
65.67611
20
26.600503
10
65.67611
20
26.600503
0
LWPOLYLINE
5
AB
100
AcDbEntity
8
2_pdfsam_CCTV_Security_Camera
6
ByLayer
62
1
370
-1
100
AcDbPolyline
90
6
70
0
43
0
10
64.0334
20
26.600503
10
62.033397
20
24.6005
10
62.033397
20
22.258902
10
64.0334
20
20.258899
10
64.0334
20
26.600503
10
64.0334
20
26.600503
0
LWPOLYLINE
5
AC
100
AcDbEntity
8
2_pdfsam_CCTV_Security_Camera
6
ByLayer
62
1
370
-1
100
AcDbPolyline
90
5
70
0
43
0
10
65.67611
20
20.258899
10
66.497517
20
18.258896
10
67.31889
20
20.258899
10
65.67611
20
20.258899
10
65.67611
20
20.258899
0
LWPOLYLINE
5
AD
100
AcDbEntity
8
2_pdfsam_CCTV_Security_Camera
6
ByLayer
62
1
370
-1
100
AcDbPolyline
90
5
70
0
43
0
10
67.31889
20
26.600503
10
66.497517
20
28.600506
10
65.67611
20
26.600503
10
67.31889
20
26.600503
10
67.31889
20
26.600503
0
LWPOLYLINE
5
AE
100
AcDbEntity
8
2_pdfsam_CCTV_Security_Camera
6
ByLayer
62
1
370
-1
100
AcDbPolyline
90
5
70
0
43
0
10
67.31889
20
20.258899
10
68.140192
20
18.258896
10
68.9616
20
20.258899
10
67.31889
20
20.258899
10
67.31889
20
20.258899
0
LWPOLYLINE
5
AF
100
AcDbEntity
8
2_pdfsam_CCTV_Security_Camera
6
ByLayer
62
1
370
-1
100
AcDbPolyline
90
5
70
0
43
0
10
68.9616
20
26.600503
10
68.140192
20
28.600506
10
67.31889
20
26.600503
10
68.9616
20
26.600503
10
68.9616
20
26.600503
0
LWPOLYLINE
5
B0
100
AcDbEntity
8
2_pdfsam_CCTV_Security_Camera
6
ByLayer
62
1
370
-1
100
AcDbPolyline
90
5
70
0
43
0
10
68.9616
20
20.258899
10
69.783007
20
18.258896
10
70.604309
20
20.258899
10
68.9616
20
20.258899
10
68.9616
20
20.258899
0
LWPOLYLINE
5
B1
100
AcDbEntity
8
2_pdfsam_CCTV_Security_Camera
6
ByLayer
62
1
370
-1
100
AcDbPolyline
90
5
70
0
43
0
10
70.604309
20
26.600503
10
69.783007
20
28.600506
10
68.9616
20
26.600503
10
70.604309
20
26.600503
10
70.604309
20
26.600503
0
LWPOLYLINE
5
B2
100
AcDbEntity
8
2_pdfsam_CCTV_Security_Camera
6
ByLayer
62
1
370
-1
100
AcDbPolyline
90
5
70
0
43
0
10
70.604309
20
20.258899
10
71.425717
20
18.258896
10
72.246984
20
20.258899
10
70.604309
20
20.258899
10
70.604309
20
20.258899
0
LWPOLYLINE
5
B3
100
AcDbEntity
8
2_pdfsam_CCTV_Security_Camera
6
ByLayer
62
1
370
-1
100
AcDbPolyline
90
5
70
0
43
0
10
72.246984
20
26.600503
10
71.425717
20
28.600506
10
70.604309
20
26.600503
10
72.246984
20
26.600503
10
72.246984
20
26.600503
0
LWPOLYLINE
5
B4
100
AcDbEntity
8
2_pdfsam_CCTV_Security_Camera
6
ByLayer
62
1
370
-1
100
AcDbPolyline
90
5
70
0
43
0
10
72.246984
20
20.258899
10
73.068392
20
18.258896
10
73.889694
20
20.258899
10
72.246984
20
20.258899
10
72.246984
20
20.258899
0
LWPOLYLINE
5
B5
100
AcDbEntity
8
2_pdfsam_CCTV_Security_Camera
6
ByLayer
62
1
370
-1
100
AcDbPolyline
90
5
70
0
43
0
10
73.889694
20
26.600503
10
73.068392
20
28.600506
10
72.246984
20
26.600503
10
73.889694
20
26.600503
10
73.889694
20
26.600503
0
LWPOLYLINE
5
B6
100
AcDbEntity
8
2_pdfsam_CCTV_Security_Camera
6
ByLayer
62
1
370
-1
100
AcDbPolyline
90
5
70
0
43
0
10
73.889694
20
20.258899
10
74.711101
20
18.258896
10
75.532403
20
20.258899
10
73.889694
20
20.258899
10
73.889694
20
20.258899
0
LWPOLYLINE
5
B7
100
AcDbEntity
8
2_pdfsam_CCTV_Security_Camera
6
ByLayer
62
1
370
-1
100
AcDbPolyline
90
5
70
0
43
0
10
75.532403
20
20.258899
10
76.353811
20
18.258896
10
77.175113
20
20.258899
10
75.532403
20
20.258899
10
75.532403
20
20.258899
0
LWPOLYLINE
5
B8
100
AcDbEntity
8
2_pdfsam_CCTV_Security_Camera
6
ByLayer
62
1
370
-1
100
AcDbPolyline
90
5
70
0
43
0
10
77.175184
20
26.600503
10
76.353811
20
28.600506
10
75.532509
20
26.600503
10
77.175184
20
26.600503
10
77.175184
20
26.600503
0
LWPOLYLINE
5
B9
100
AcDbEntity
8
2_pdfsam_CCTV_Security_Camera
6
ByLayer
62
1
370
-1
100
AcDbPolyline
90
5
70
0
43
0
10
75.532509
20
26.600503
10
74.711101
20
28.600506
10
73.889694
20
26.600503
10
75.532509
20
26.600503
10
75.532509
20
26.600503
0
LWPOLYLINE
5
BA
100
AcDbEntity
8
2_pdfsam_CCTV_Security_Camera
6
ByLayer
62
1
370
-1
100
AcDbPolyline
90
5
70
0
43
0
10
77.175113
20
20.258899
10
77.996486
20
18.258896
10
78.817893
20
20.258899
10
77.175113
20
20.258899
10
77.175113
20
20.258899
0
LWPOLYLINE
5
BB
100
AcDbEntity
8
2_pdfsam_CCTV_Security_Camera
6
ByLayer
62
1
370
-1
100
AcDbPolyline
90
5
70
0
43
0
10
78.817893
20
26.600503
10
77.996486
20
28.600506
10
77.175184
20
26.600503
10
78.817893
20
26.600503
10
78.817893
20
26.600503
0
LWPOLYLINE
5
BC
100
AcDbEntity
8
2_pdfsam_CCTV_Security_Camera
6
ByLayer
62
1
370
-1
100
AcDbPolyline
90
5
70
0
43
0
10
78.817893
20
20.258899
10
79.639195
20
18.25879
10
80.460603
20
20.258899
10
78.817893
20
20.258899
10
78.817893
20
20.258899
0
LWPOLYLINE
5
BD
100
AcDbEntity
8
2_pdfsam_CCTV_Security_Camera
6
ByLayer
62
1
370
-1
100
AcDbPolyline
90
5
70
0
43
0
10
80.460603
20
20.258899
10
81.282011
20
18.25879
10
82.103313
20
20.258793
10
80.460603
20
20.258899
10
80.460603
20
20.258899
0
LWPOLYLINE
5
BE
100
AcDbEntity
8
2_pdfsam_CCTV_Security_Camera
6
ByLayer
62
1
370
-1
100
AcDbPolyline
90
5
70
0
43
0
10
82.103313
20
26.600503
10
81.282011
20
28.600506
10
80.460603
20
26.600503
10
82.103313
20
26.600503
10
82.103313
20
26.600503
0
LWPOLYLINE
5
BF
100
AcDbEntity
8
2_pdfsam_CCTV_Security_Camera
6
ByLayer
62
1
370
-1
100
AcDbPolyline
90
5
70
0
43
0
10
80.460603
20
26.600503
10
79.639195
20
28.600506
10
78.817893
20
26.600503
10
80.460603
20
26.600503
10
80.460603
20
26.600503
0
LWPOLYLINE
5
C0
100
AcDbEntity
8
2_pdfsam_CCTV_Security_Camera
6
ByLayer
62
1
370
-1
100
AcDbPolyline
90
5
70
0
43
0
10
82.103313
20
20.258793
10
82.924685
20
18.25879
10
83.746093
20
20.258793
10
82.103313
20
20.258793
10
82.103313
20
20.258793
0
LWPOLYLINE
5
C1
100
AcDbEntity
8
2_pdfsam_CCTV_Security_Camera
6
ByLayer
62
1
370
-1
100
AcDbPolyline
90
5
70
0
43
0
10
83.746093
20
26.600503
10
82.924685
20
28.600506
10
82.103313
20
26.600503
10
83.746093
20
26.600503
10
83.746093
20
26.600503
0
LWPOLYLINE
5
C2
100
AcDbEntity
8
2_pdfsam_CCTV_Security_Camera
6
ByLayer
62
1
370
-1
100
AcDbPolyline
90
5
70
0
43
0
10
83.746093
20
20.258793
10
84.567395
20
18.25879
10
85.388803
20
20.258793
10
83.746093
20
20.258793
10
83.746093
20
20.258793
0
LWPOLYLINE
5
C3
100
AcDbEntity
8
2_pdfsam_CCTV_Security_Camera
6
ByLayer
62
1
370
-1
100
AcDbPolyline
90
5
70
0
43
0
10
85.388803
20
26.600503
10
84.567395
20
28.600506
10
83.746093
20
26.600503
10
85.388803
20
26.600503
10
85.388803
20
26.600503
0
LWPOLYLINE
5
C4
100
AcDbEntity
8
2_pdfsam_CCTV_Security_Camera
6
ByLayer
62
1
370
-1
100
AcDbPolyline
90
5
70
0
43
0
10
85.388803
20
20.258793
10
86.210105
20
18.25879
10
87.031512
20
20.258793
10
85.388803
20
20.258793
10
85.388803
20
20.258793
0
LWPOLYLINE
5
C5
100
AcDbEntity
8
2_pdfsam_CCTV_Security_Camera
6
ByLayer
62
1
370
-1
100
AcDbPolyline
90
5
70
0
43
0
10
87.031512
20
26.600503
10
86.210211
20
28.600506
10
85.388803
20
26.600503
10
87.031512
20
26.600503
10
87.031512
20
26.600503
0
LWPOLYLINE
5
C6
100
AcDbEntity
8
2_pdfsam_CCTV_Security_Camera
6
ByLayer
62
1
370
-1
100
AcDbPolyline
90
5
70
0
43
0
10
87.031512
20
20.258793
10
87.852814
20
18.25879
10
88.674187
20
20.258793
10
87.031513
20
20.258793
10
87.031512
20
20.258793
0
LWPOLYLINE
5
C7
100
AcDbEntity
8
2_pdfsam_CCTV_Security_Camera
6
ByLayer
62
1
370
-1
100
AcDbPolyline
90
5
70
0
43
0
10
88.674187
20
26.600503
10
87.852885
20
28.600506
10
87.031512
20
26.600503
10
88.674187
20
26.600503
10
88.674187
20
26.600503
0
LWPOLYLINE
5
C8
100
AcDbEntity
8
2_pdfsam_CCTV_Security_Camera
6
ByLayer
62
1
370
-1
100
AcDbPolyline
90
5
70
0
43
0
10
88.674187
20
20.258793
10
89.495595
20
18.25879
10
90.316897
20
20.258793
10
88.674187
20
20.258793
10
88.674187
20
20.258793
0
LWPOLYLINE
5
C9
100
AcDbEntity
8
2_pdfsam_CCTV_Security_Camera
6
ByLayer
62
1
370
-1
100
AcDbPolyline
90
5
70
0
43
0
10
90.316897
20
26.600503
10
89.495595
20
28.600506
10
88.674187
20
26.600503
10
90.316897
20
26.600503
10
90.316897
20
26.600503
0
LWPOLYLINE
5
CA
100
AcDbEntity
8
2_pdfsam_CCTV_Security_Camera
6
ByLayer
62
1
370
-1
100
AcDbPolyline
90
5
70
0
43
0
10
90.316897
20
20.258793
10
91.138304
20
18.25879
10
91.959606
20
20.258793
10
90.316897
20
20.258793
10
90.316897
20
20.258793
0
LWPOLYLINE
5
CB
100
AcDbEntity
8
2_pdfsam_CCTV_Security_Camera
6
ByLayer
62
1
370
-1
100
AcDbPolyline
90
5
70
0
43
0
10
91.959606
20
26.600503
10
91.138304
20
28.600506
10
90.316897
20
26.600503
10
91.959606
20
26.600503
10
91.959606
20
26.600503
0
LWPOLYLINE
5
CC
100
AcDbEntity
8
2_pdfsam_CCTV_Security_Camera
6
ByLayer
62
1
370
-1
100
AcDbPolyline
90
5
70
0
43
0
10
91.959606
20
20.258793
10
92.781014
20
18.25879
10
93.602316
20
20.258793
10
91.959606
20
20.258793
10
91.959606
20
20.258793
0
LWPOLYLINE
5
CD
100
AcDbEntity
8
2_pdfsam_CCTV_Security_Camera
6
ByLayer
62
1
370
-1
100
AcDbPolyline
90
5
70
0
43
0
10
93.602316
20
26.600503
10
92.781014
20
28.600506
10
91.959606
20
26.600503
10
93.602316
20
26.600503
10
93.602316
20
26.600503
0
LWPOLYLINE
5
CE
100
AcDbEntity
8
2_pdfsam_CCTV_Security_Camera
6
ByLayer
62
1
370
-1
100
AcDbPolyline
90
5
70
0
43
0
10
93.602316
20
20.258793
10
94.423689
20
18.25879
10
95.245096
20
20.258793
10
93.602316
20
20.258793
10
93.602316
20
20.258793
0
LWPOLYLINE
5
CF
100
AcDbEntity
8
2_pdfsam_CCTV_Security_Camera
6
ByLayer
62
1
370
-1
100
AcDbPolyline
90
5
70
0
43
0
10
95.245096
20
26.600503
10
94.423689
20
28.600506
10
93.602316
20
26.600503
10
95.245096
20
26.600503
10
95.245096
20
26.600503
0
LWPOLYLINE
5
D0
100
AcDbEntity
8
2_pdfsam_CCTV_Security_Camera
6
ByLayer
62
1
370
-1
100
AcDbPolyline
90
5
70
0
43
0
10
95.245096
20
20.258793
10
96.066398
20
18.25879
10
96.887806
20
20.258793
10
95.245096
20
20.258793
10
95.245096
20
20.258793
0
LWPOLYLINE
5
D1
100
AcDbEntity
8
2_pdfsam_CCTV_Security_Camera
6
ByLayer
62
1
370
-1
100
AcDbPolyline
90
5
70
0
43
0
10
96.887806
20
20.258793
10
97.709214
20
18.25879
10
98.530516
20
20.258793
10
96.887806
20
20.258793
10
96.887806
20
20.258793
0
LWPOLYLINE
5
D2
100
AcDbEntity
8
2_pdfsam_CCTV_Security_Camera
6
ByLayer
62
1
370
-1
100
AcDbPolyline
90
5
70
0
43
0
10
98.530516
20
26.600503
10
97.709214
20
28.600506
10
96.887806
20
26.600503
10
98.530516
20
26.600503
10
98.530516
20
26.600503
0
LWPOLYLINE
5
D3
100
AcDbEntity
8
2_pdfsam_CCTV_Security_Camera
6
ByLayer
62
1
370
-1
100
AcDbPolyline
90
5
70
0
43
0
10
96.887806
20
26.600503
10
96.066398
20
28.600506
10
95.245096
20
26.600503
10
96.887806
20
26.600503
10
96.887806
20
26.600503
0
LWPOLYLINE
5
D4
100
AcDbEntity
8
2_pdfsam_CCTV_Security_Camera
6
ByLayer
62
1
370
-1
100
AcDbPolyline
90
5
70
0
43
0
10
100.17319
20
20.258793
10
100.994598
20
18.25879
10
101.816006
20
20.258793
10
100.17319
20
20.258793
10
100.17319
20
20.258793
0
LWPOLYLINE
5
D5
100
AcDbEntity
8
2_pdfsam_CCTV_Security_Camera
6
ByLayer
62
1
370
-1
100
AcDbPolyline
90
5
70
0
43
0
10
101.816006
20
26.600503
10
100.994598
20
28.600506
10
100.173296
20
26.600503
10
101.816006
20
26.600503
10
101.816006
20
26.600503
0
LWPOLYLINE
5
D6
100
AcDbEntity
8
2_pdfsam_CCTV_Security_Camera
6
ByLayer
62
1
370
-1
100
AcDbPolyline
90
5
70
0
43
0
10
101.816006
20
20.258793
10
102.637308
20
18.25879
10
103.458716
20
20.258793
10
101.816006
20
20.258793
10
101.816006
20
20.258793
0
LWPOLYLINE
5
D7
100
AcDbEntity
8
2_pdfsam_CCTV_Security_Camera
6
ByLayer
62
1
370
-1
100
AcDbPolyline
90
5
70
0
43
0
10
103.458716
20
20.258793
10
104.280017
20
18.25879
10
105.10139
20
20.258793
10
103.458716
20
20.258793
10
103.458716
20
20.258793
0
LWPOLYLINE
5
D8
100
AcDbEntity
8
2_pdfsam_CCTV_Security_Camera
6
ByLayer
62
1
370
-1
100
AcDbPolyline
90
5
70
0
43
0
10
105.10139
20
26.600503
10
104.280017
20
28.600506
10
103.458716
20
26.600503
10
105.10139
20
26.600503
10
105.10139
20
26.600503
0
LWPOLYLINE
5
D9
100
AcDbEntity
8
2_pdfsam_CCTV_Security_Camera
6
ByLayer
62
1
370
-1
100
AcDbPolyline
90
5
70
0
43
0
10
103.458716
20
26.600503
10
102.637308
20
28.600506
10
101.816006
20
26.600503
10
103.458716
20
26.600503
10
103.458716
20
26.600503
0
LWPOLYLINE
5
DA
100
AcDbEntity
8
2_pdfsam_CCTV_Security_Camera
6
ByLayer
62
1
370
-1
100
AcDbPolyline
90
5
70
0
43
0
10
100.173296
20
26.600503
10
99.351888
20
28.600506
10
98.530516
20
26.600503
10
100.173296
20
26.600503
10
100.173296
20
26.600503
0
LWPOLYLINE
5
DB
100
AcDbEntity
8
2_pdfsam_CCTV_Security_Camera
6
ByLayer
62
1
370
-1
100
AcDbPolyline
90
5
70
0
43
0
10
98.530516
20
20.258793
10
99.351888
20
18.25879
10
100.17319
20
20.258793
10
98.530516
20
20.258793
10
98.530516
20
20.258793
0
LWPOLYLINE
5
DC
100
AcDbEntity
8
2_pdfsam_CCTV_Security_Camera
6
ByLayer
62
1
370
-1
100
AcDbPolyline
90
5
70
0
43
0
10
105.10139
20
20.258793
10
105.922692
20
18.25879
10
106.7441
20
20.258793
10
105.10139
20
20.258793
10
105.10139
20
20.258793
0
LWPOLYLINE
5
DD
100
AcDbEntity
8
2_pdfsam_CCTV_Security_Camera
6
ByLayer
62
1
370
-1
100
AcDbPolyline
90
5
70
0
43
0
10
106.7441
20
26.600503
10
105.922692
20
28.600506
10
105.10139
20
26.600503
10
106.7441
20
26.600503
10
106.7441
20
26.600503
0
LWPOLYLINE
5
DE
100
AcDbEntity
8
2_pdfsam_CCTV_Security_Camera
6
ByLayer
62
1
370
-1
100
AcDbPolyline
90
5
70
0
43
0
10
106.7441
20
20.258793
10
107.565508
20
18.25879
10
108.386809
20
20.258793
10
106.7441
20
20.258793
10
106.7441
20
20.258793
0
LWPOLYLINE
5
DF
100
AcDbEntity
8
2_pdfsam_CCTV_Security_Camera
6
ByLayer
62
1
370
-1
100
AcDbPolyline
90
5
70
0
43
0
10
108.386809
20
26.600503
10
107.565508
20
28.600506
10
106.7441
20
26.600503
10
108.386809
20
26.600503
10
108.386809
20
26.600503
0
LWPOLYLINE
5
E0
100
AcDbEntity
8
2_pdfsam_CCTV_Security_Camera
6
ByLayer
62
1
370
-1
100
AcDbPolyline
90
5
70
0
43
0
10
108.386809
20
20.258793
10
109.208217
20
18.25879
10
110.029484
20
20.258793
10
108.386809
20
20.258793
10
108.386809
20
20.258793
0
LWPOLYLINE
5
E1
100
AcDbEntity
8
2_pdfsam_CCTV_Security_Camera
6
ByLayer
62
1
370
-1
100
AcDbPolyline
90
5
70
0
43
0
10
110.029484
20
20.258793
10
110.850892
20
18.25879
10
111.672299
20
20.258793
10
110.029484
20
20.258793
10
110.029484
20
20.258793
0
LWPOLYLINE
5
E2
100
AcDbEntity
8
2_pdfsam_CCTV_Security_Camera
6
ByLayer
62
1
370
-1
100
AcDbPolyline
90
5
70
0
43
0
10
111.672299
20
26.600503
10
110.850892
20
28.600506
10
110.029484
20
26.600503
10
111.672299
20
26.600503
10
111.672299
20
26.600503
0
LWPOLYLINE
5
E3
100
AcDbEntity
8
2_pdfsam_CCTV_Security_Camera
6
ByLayer
62
1
370
-1
100
AcDbPolyline
90
5
70
0
43
0
10
110.029484
20
26.600503
10
109.208217
20
28.600506
10
108.386809
20
26.600503
10
110.029484
20
26.600503
10
110.029484
20
26.600503
0
LWPOLYLINE
5
E4
100
AcDbEntity
8
2_pdfsam_CCTV_Security_Camera
6
ByLayer
62
1
370
-1
100
AcDbPolyline
90
5
70
0
43
0
10
111.672299
20
20.258793
10
112.493601
20
18.25879
10
113.315009
20
20.258793
10
111.672299
20
20.258793
10
111.672299
20
20.258793
0
LWPOLYLINE
5
E5
100
AcDbEntity
8
2_pdfsam_CCTV_Security_Camera
6
ByLayer
62
1
370
-1
100
AcDbPolyline
90
5
70
0
43
0
10
113.315009
20
26.600503
10
112.493601
20
28.600506
10
111.672299
20
26.600503
10
113.315009
20
26.600503
10
113.315009
20
26.600503
0
LWPOLYLINE
5
E6
100
AcDbEntity
8
2_pdfsam_CCTV_Security_Camera
6
ByLayer
62
1
370
-1
100
AcDbPolyline
90
8
70
0
43
0
10
52.569216
20
243.847691
10
52.569216
20
279.515711
10
16.033397
20
279.515711
10
16.033397
20
243.847691
10
21.748115
20
231.441413
10
46.854604
20
231.441413
10
52.569216
20
243.847691
10
52.569216
20
243.847691
0
LWPOLYLINE
5
E7
100
AcDbEntity
8
2_pdfsam_CCTV_Security_Camera
6
ByLayer
62
1
370
-1
100
AcDbPolyline
90
32
70
0
43
0
10
57.404317
20
42.715886
10
57.852592
20
41.939386
10
58.452597
20
41.272989
10
59.178084
20
40.74601
10
59.997199
20
40.381308
10
60.87431
20
40.1949
10
61.770895
20
40.195006
10
62.648006
20
40.381414
10
63.467086
20
40.746186
10
64.192503
20
41.273201
10
64.792507
20
41.939598
10
65.240817
20
42.716097
10
65.517783
20
43.568902
10
65.611516
20
44.460689
10
65.517783
20
45.352406
10
65.240606
20
46.205211
10
64.792296
20
46.98171
10
64.192291
20
47.648001
10
63.466909
20
48.175086
10
62.647689
20
48.539718
10
61.770613
20
48.72609
10
60.873993
20
48.72609
10
59.996917
20
48.539612
10
59.177802
20
48.17491
10
58.452385
20
47.647789
10
57.852486
20
46.981498
10
57.404106
20
46.204893
10
57.127105
20
45.352088
10
57.033407
20
44.460407
10
57.127211
20
43.568585
10
57.404318
20
42.715886
10
57.404317
20
42.715886
0
LWPOLYLINE
5
E8
100
AcDbEntity
8
2_pdfsam_CCTV_Security_Camera
6
ByLayer
62
1
370
-1
100
AcDbPolyline
90
65
70
0
43
0
10
35.493396
20
71.600483
10
34.596811
20
71.600483
10
33.700085
20
71.600483
10
32.8035
20
71.600483
10
31.90681
20
71.600483
10
31.01019
20
71.600483
10
30.113499
20
71.600483
10
29.216914
20
71.600483
10
28.320189
20
71.600483
10
27.423604
20
71.600483
10
26.526913
20
71.600483
10
25.630188
20
71.600483
10
24.733603
20
71.600413
10
23.836912
20
71.600413
10
22.940292
20
71.600413
10
22.043602
20
71.600413
10
22.044801
20
22.484503
10
22.941386
20
22.484503
10
23.838112
20
22.484503
10
24.734696
20
22.484609
10
25.631387
20
22.484609
10
26.528007
20
22.484609
10
27.424698
20
22.484609
10
28.321388
20
22.484609
10
29.218008
20
22.484715
10
30.114699
20
22.484715
10
31.010613
20
22.484715
10
31.011283
20
22.484715
10
31.906598
20
22.484609
10
32.803289
20
22.484609
10
33.699909
20
22.484609
10
34.596599
20
22.484609
10
35.493184
20
22.484609
10
36.38991
20
22.484609
10
37.286494
20
22.484609
10
38.183185
20
22.484609
10
39.079911
20
22.484609
10
39.976496
20
22.484609
10
40.873186
20
22.484609
10
41.769806
20
22.484609
10
42.666497
20
22.484609
10
43.563117
20
22.484609
10
44.459807
20
22.484609
10
45.356498
20
22.484609
10
46.253082
20
22.484609
10
47.149808
20
22.484609
10
48.046393
20
22.484609
10
48.943084
20
22.484609
10
48.943084
20
71.600483
10
48.046393
20
71.600483
10
47.149808
20
71.600483
10
46.253082
20
71.600483
10
45.356498
20
71.600483
10
44.459807
20
71.600483
10
43.563187
20
71.600483
10
42.666497
20
71.600413
10
41.769912
20
71.600413
10
40.873186
20
71.600413
10
39.976601
20
71.600413
10
39.080087
20
71.600483
10
38.183397
20
71.600483
10
37.286812
20
71.600483
10
36.390086
20
71.600483
10
35.493396
20
71.600483
10
35.493396
20
71.600483
0
LWPOLYLINE
5
E9
100
AcDbEntity
8
2_pdfsam_CCTV_Security_Camera
6
ByLayer
62
1
370
-1
100
AcDbPolyline
90
5
70
0
43
0
10
44.296894
20
66.089706
10
44.455609
20
65.618289
10
44.455715
20
65.800287
10
44.296894
20
66.089706
10
44.296894
20
66.089706
0
LWPOLYLINE
5
EA
100
AcDbEntity
8
2_pdfsam_CCTV_Security_Camera
6
ByLayer
62
1
370
-1
100
AcDbPolyline
90
38
70
0
43
0
10
44.455609
20
65.618289
10
44.509196
20
65.2012
10
44.455715
20
64.784499
10
44.296894
20
64.312694
10
44.046916
20
63.917195
10
43.712483
20
63.577787
10
43.563187
20
63.478798
10
43.324886
20
63.309394
10
42.898413
20
63.123586
10
42.666603
20
63.075397
10
42.44661
20
63.028689
10
41.989904
20
63.028689
10
41.769912
20
63.075397
10
41.538207
20
63.123586
10
41.111593
20
63.309394
10
40.873292
20
63.478798
10
40.724102
20
63.577787
10
40.389598
20
63.917195
10
40.139585
20
64.312694
10
39.980905
20
64.784111
10
39.927283
20
65.2012
10
39.980905
20
65.618289
10
40.139585
20
66.089601
10
40.389493
20
66.4851
10
40.723996
20
66.824507
10
40.873292
20
66.923603
10
41.111593
20
67.093006
10
41.538102
20
67.278709
10
41.769912
20
67.326898
10
41.989904
20
67.373712
10
42.44661
20
67.373712
10
42.666603
20
67.326898
10
42.898307
20
67.278709
10
43.324886
20
67.093006
10
43.563187
20
66.923603
10
43.712412
20
66.824507
10
44.046916
20
66.485206
10
44.296894
20
66.089706
0
LWPOLYLINE
5
EB
100
AcDbEntity
8
2_pdfsam_CCTV_Security_Camera
6
ByLayer
62
1
370
-1
100
AcDbPolyline
90
40
70
0
43
0
10
26.531217
20
65.618289
10
26.690003
20
66.089706
10
26.93991
20
66.485206
10
27.274414
20
66.824613
10
27.423604
20
66.923602
10
27.662011
20
67.093006
10
28.088484
20
67.278814
10
28.320189
20
67.327004
10
28.540216
20
67.373712
10
28.996887
20
67.373712
10
29.216914
20
67.327004
10
29.448689
20
67.278814
10
29.875198
20
67.093112
10
30.113605
20
66.923602
10
30.262795
20
66.824613
10
30.597299
20
66.485206
10
30.847206
20
66.089812
10
31.005992
20
65.618395
10
31.059508
20
65.201306
10
31.008285
20
64.801997
10
31.005992
20
64.784217
10
30.847312
20
64.3128
10
30.597299
20
63.917301
10
30.262795
20
63.577893
10
30.113605
20
63.478904
10
29.875304
20
63.3095
10
29.448795
20
63.123692
10
29.216985
20
63.075502
10
28.996993
20
63.028795
10
28.540287
20
63.028795
10
28.320294
20
63.075502
10
28.08859
20
63.123692
10
27.662011
20
63.309394
10
27.42371
20
63.478798
10
27.274485
20
63.577893
10
26.93991
20
63.917195
10
26.690003
20
64.312694
10
26.531217
20
64.784499
10
26.477701
20
65.2012
10
26.531217
20
65.618289
0
LWPOLYLINE
5
EC
100
AcDbEntity
8
2_pdfsam_CCTV_Security_Camera
6
ByLayer
62
1
370
-1
100
AcDbPolyline
90
2
70
0
43
0
10
31.005992
20
64.784217
10
31.005992
20
64.784111
0
LWPOLYLINE
5
ED
100
AcDbEntity
8
2_pdfsam_CCTV_Security_Camera
6
ByLayer
62
1
370
-1
100
AcDbPolyline
90
2
70
0
43
0
10
31.010613
20
22.555518
10
31.010613
20
22.554812
0
LWPOLYLINE
5
EE
100
AcDbEntity
8
2_pdfsam_CCTV_Security_Camera
6
ByLayer
62
1
370
-1
100
AcDbPolyline
90
64
70
0
43
0
10
27.623699
20
97.70491
10
28.0803
20
97.70491
10
28.537006
20
97.70491
10
28.993712
20
97.70491
10
29.450383
20
97.70491
10
29.907089
20
97.70491
10
30.363689
20
97.70491
10
30.820395
20
97.70491
10
31.277101
20
97.70491
10
31.733808
20
97.70491
10
31.733808
20
120.600505
10
31.277101
20
120.600505
10
30.820395
20
120.600505
10
30.363689
20
120.600505
10
29.907089
20
120.600505
10
29.450383
20
120.600505
10
28.993712
20
120.600505
10
28.537006
20
120.600505
10
28.0803
20
120.600505
10
27.623699
20
120.600505
10
27.166993
20
120.600505
10
26.710287
20
120.600505
10
26.253616
20
120.600505
10
25.79691
20
120.600505
10
25.34031
20
120.600505
10
24.883604
20
120.600505
10
24.426898
20
120.600505
10
23.970192
20
120.600505
10
23.513591
20
120.600505
10
23.056885
20
120.600505
10
22.600214
20
120.600505
10
22.143508
20
120.600505
10
21.686802
20
120.600505
10
21.230202
20
120.600505
10
20.773496
20
120.600505
10
20.31679
20
120.600505
10
19.860084
20
120.600505
10
19.403413
20
120.600505
10
18.946812
20
120.600505
10
18.490106
20
120.600505
10
18.0334
20
120.600505
10
18.0334
20
97.70491
10
18.490106
20
97.70491
10
18.946812
20
97.70491
10
19.403413
20
97.70491
10
19.860084
20
97.70491
10
20.31679
20
97.70491
10
20.773496
20
97.70491
10
21.230202
20
97.70491
10
21.686802
20
97.70491
10
22.143508
20
97.70491
10
22.600214
20
97.70491
10
23.056885
20
97.70491
10
23.513591
20
97.70491
10
23.970192
20
97.70491
10
24.426898
20
97.70491
10
24.883604
20
97.70491
10
25.34031
20
97.70491
10
25.79691
20
97.70491
10
26.253616
20
97.70491
10
26.710287
20
97.70491
10
27.166993
20
97.70491
10
27.623699
20
97.70491
10
27.623699
20
97.70491
0
LWPOLYLINE
5
EF
100
AcDbEntity
8
2_pdfsam_CCTV_Security_Camera
6
ByLayer
62
1
370
-1
100
AcDbPolyline
90
36
70
0
43
0
10
148.913815
20
164.769588
10
154.793386
20
165.3927
10
160.674015
20
164.778584
10
166.3186
20
162.947315
10
171.536501
20
159.946587
10
176.067896
20
155.907493
10
179.934094
20
150.75341
10
182.94029
20
144.617087
10
185.207204
20
136.99049
10
186.886603
20
126.582488
10
189.421699
20
127.000388
10
187.68949
20
137.653007
10
185.299385
20
145.634498
10
182.08371
20
152.160711
10
177.922908
20
157.685211
10
173.00889
20
162.052106
10
167.340703
20
165.304505
10
161.2011
20
167.293184
10
154.79141
20
167.96191
10
148.382884
20
167.283412
10
142.246209
20
165.285491
10
136.582185
20
162.025789
10
131.673494
20
157.653002
10
127.515197
20
152.126491
10
124.299204
20
145.600702
10
121.901797
20
137.621186
10
120.162108
20
126.969908
10
122.697699
20
126.555818
10
124.385105
20
136.962409
10
126.659887
20
144.586713
10
129.667
20
150.722683
10
133.53101
20
155.878213
10
138.057784
20
159.922598
10
143.27191
20
162.929993
10
148.913815
20
164.769588
10
148.913815
20
164.769588
0
LWPOLYLINE
5
F0
100
AcDbEntity
8
2_pdfsam_CCTV_Security_Camera
6
ByLayer
62
1
370
-1
100
AcDbPolyline
90
36
70
0
43
0
10
65.033384
20
231.489814
10
65.033384
20
225.045411
10
65.033384
20
218.601008
10
65.379706
20
212.156604
10
66.464497
20
205.712201
10
67.763108
20
199.267798
10
70.273616
20
192.823394
10
73.650016
20
186.378991
10
78.930888
20
179.934694
10
87.588196
20
173.490184
10
191.218785
20
173.490184
10
191.218785
20
179.934694
10
191.218785
20
186.378991
10
191.218785
20
192.823394
10
191.218785
20
199.267798
10
191.218785
20
205.712201
10
191.218785
20
212.156604
10
191.218785
20
218.601008
10
191.218785
20
225.045411
10
191.218785
20
231.489814
10
191.218785
20
237.934288
10
191.218785
20
244.378515
10
191.218785
20
250.822989
10
191.218785
20
257.267392
10
191.218785
20
263.71169
10
191.218785
20
270.156199
10
191.218785
20
276.600602
10
87.588196
20
276.600602
10
78.930888
20
270.156199
10
73.650016
20
263.71169
10
70.273616
20
257.267392
10
67.763108
20
250.822989
10
66.464497
20
244.378515
10
65.379706
20
237.934288
10
65.033384
20
231.489814
10
65.033384
20
231.489814
0
LWPOLYLINE
5
F1
100
AcDbEntity
8
2_pdfsam_CCTV_Security_Camera
6
ByLayer
62
1
370
-1
100
AcDbPolyline
90
64
70
0
43
0
10
68.600602
20
161.600515
10
65.829392
20
161.600515
10
63.058287
20
161.600515
10
60.287112
20
161.600515
10
57.516007
20
161.600515
10
54.744796
20
161.600515
10
51.973692
20
161.600515
10
49.202587
20
161.600515
10
46.431412
20
161.600515
10
43.660307
20
161.600515
10
40.889096
20
161.600515
10
38.117992
20
161.600515
10
35.346816
20
161.600515
10
32.575712
20
161.600515
10
29.804607
20
161.600515
10
27.033396
20
161.600515
10
27.033396
20
132.486082
10
29.804501
20
132.486082
10
32.575712
20
132.486082
10
35.346816
20
132.486082
10
38.117992
20
132.486082
10
40.889096
20
132.486082
10
43.660307
20
132.486082
10
46.431412
20
132.486082
10
49.202587
20
132.486082
10
51.973692
20
132.486082
10
54.744796
20
132.486082
10
57.516007
20
132.486082
10
60.287112
20
132.486082
10
63.058287
20
132.486082
10
65.829392
20
132.486082
10
68.600602
20
132.486082
10
71.371707
20
132.486082
10
74.142917
20
132.486082
10
76.913987
20
132.486082
10
79.685092
20
132.486082
10
82.456302
20
132.486082
10
85.227407
20
132.486082
10
87.998617
20
132.486082
10
90.769687
20
132.486082
10
93.540897
20
132.486082
10
96.312002
20
132.486082
10
99.083107
20
132.486082
10
101.854317
20
132.486082
10
104.625493
20
132.486082
10
107.396597
20
132.486082
10
110.167702
20
132.486082
10
110.167702
20
161.600515
10
107.396597
20
161.600515
10
104.625493
20
161.600515
10
101.854317
20
161.600515
10
99.083107
20
161.600515
10
96.312002
20
161.600515
10
93.540897
20
161.600515
10
90.769687
20
161.600515
10
87.998617
20
161.600515
10
85.227407
20
161.600515
10
82.456302
20
161.600515
10
79.685092
20
161.600515
10
76.913987
20
161.600515
10
74.142917
20
161.600515
10
71.371707
20
161.600515
10
68.600602
20
161.600515
10
68.600602
20
161.600515
0
LWPOLYLINE
5
F2
100
AcDbEntity
8
2_pdfsam_CCTV_Security_Camera
6
ByLayer
62
7
370
-1
100
AcDbPolyline
90
32
70
0
43
0
10
152.370614
20
142.673211
10
152.093613
20
143.52591
10
151.999809
20
144.417697
10
152.093613
20
145.309414
10
152.370614
20
146.162183
10
152.818994
20
146.938788
10
153.418999
20
147.605115
10
154.14431
20
148.132094
10
154.963495
20
148.496796
10
155.840606
20
148.683204
10
156.737191
20
148.683204
10
157.614302
20
148.496796
10
158.433488
20
148.132094
10
159.158905
20
147.605115
10
159.758803
20
146.938788
10
160.207113
20
146.162183
10
160.484185
20
145.309414
10
160.577989
20
144.417697
10
160.484185
20
143.52591
10
160.207113
20
142.673211
10
159.758803
20
141.896712
10
159.158905
20
141.230315
10
158.433488
20
140.7033
10
157.614302
20
140.338492
10
156.737191
20
140.152085
10
155.840606
20
140.152085
10
154.963495
20
140.338492
10
154.14431
20
140.7033
10
153.418999
20
141.230315
10
152.818994
20
141.896712
10
152.370614
20
142.673211
10
152.370614
20
142.673211
0
LWPOLYLINE
5
F3
100
AcDbEntity
8
2_pdfsam_CCTV_Security_Camera
6
ByLayer
62
1
370
-1
100
AcDbPolyline
90
32
70
0
43
0
10
152.370614
20
142.673211
10
152.093613
20
143.52591
10
151.999809
20
144.417697
10
152.093613
20
145.309414
10
152.370614
20
146.162183
10
152.818994
20
146.938788
10
153.418999
20
147.605115
10
154.14431
20
148.132094
10
154.963495
20
148.496796
10
155.840606
20
148.683204
10
156.737191
20
148.683204
10
157.614302
20
148.496796
10
158.433488
20
148.132094
10
159.158905
20
147.605115
10
159.758803
20
146.938788
10
160.207113
20
146.162183
10
160.484185
20
145.309414
10
160.577989
20
144.417697
10
160.484185
20
143.52591
10
160.207113
20
142.673211
10
159.758803
20
141.896712
10
159.158905
20
141.230315
10
158.433488
20
140.7033
10
157.614302
20
140.338492
10
156.737191
20
140.152085
10
155.840606
20
140.152085
10
154.963495
20
140.338492
10
154.14431
20
140.7033
10
153.418999
20
141.230315
10
152.818994
20
141.896712
10
152.370614
20
142.673211
10
152.370614
20
142.673211
0
LWPOLYLINE
5
F4
100
AcDbEntity
8
2_pdfsam_CCTV_Security_Camera
6
ByLayer
62
1
370
-1
100
AcDbPolyline
90
32
70
0
43
0
10
160.001585
20
32.197604
10
160.095389
20
33.089286
10
160.37239
20
33.942091
10
160.820806
20
34.71859
10
161.42081
20
35.384916
10
162.146192
20
35.912002
10
162.965306
20
36.276703
10
163.842312
20
36.463217
10
164.739002
20
36.463217
10
165.616114
20
36.276703
10
166.435193
20
35.912002
10
167.16061
20
35.384916
10
167.760615
20
34.71859
10
168.208889
20
33.942091
10
168.485996
20
33.089286
10
168.579694
20
32.197604
10
168.485996
20
31.305817
10
168.208889
20
30.453083
10
167.760615
20
29.676513
10
167.16061
20
29.010187
10
166.435193
20
28.483101
10
165.616114
20
28.118506
10
164.739002
20
27.931992
10
163.842312
20
27.931992
10
162.965306
20
28.118506
10
162.146192
20
28.483101
10
161.42081
20
29.010187
10
160.820806
20
29.676513
10
160.37239
20
30.453083
10
160.095389
20
31.305817
10
160.001585
20
32.197604
10
160.001585
20
32.197604
0
LWPOLYLINE
5
F5
100
AcDbEntity
8
2_pdfsam_CCTV_Security_Camera
6
ByLayer
62
1
370
-1
100
AcDbPolyline
90
32
70
0
43
0
10
160.194484
20
44.804295
10
157.662986
20
43.677205
10
155.421083
20
42.048289
10
153.566813
20
39.988913
10
152.181207
20
37.589001
10
151.32491
20
34.953504
10
151.035209
20
32.197604
10
151.32491
20
29.441599
10
152.181207
20
26.806102
10
153.566813
20
24.40619
10
155.421083
20
22.346885
10
157.662986
20
20.718004
10
160.194484
20
19.590914
10
162.905087
20
19.014687
10
165.676298
20
19.014687
10
168.386795
20
19.590914
10
170.918399
20
20.718004
10
173.160302
20
22.346885
10
175.014608
20
24.40619
10
176.400107
20
26.806102
10
177.256511
20
29.441599
10
177.546106
20
32.197604
10
177.256511
20
34.953504
10
176.400107
20
37.589001
10
175.014608
20
39.988913
10
173.160302
20
42.048289
10
170.918399
20
43.677205
10
168.386795
20
44.804295
10
165.676298
20
45.380416
10
162.905087
20
45.380416
10
160.194484
20
44.804295
10
160.194484
20
44.804295
0
LWPOLYLINE
5
F6
100
AcDbEntity
8
2_pdfsam_CCTV_Security_Camera
6
ByLayer
62
1
370
-1
100
AcDbPolyline
90
13
70
0
43
0
10
132.263303
20
113.889508
10
131.290201
20
113.5634
10
128.534795
20
113.251015
10
125.776708
20
113.521913
10
123.136413
20
114.3641
10
120.729304
20
115.740815
10
119.964517
20
116.425204
10
108.864717
20
65.050494
10
122.136888
20
62.314102
10
129.479111
20
61.645694
10
132.833004
20
113.969694
10
132.263303
20
113.889508
10
132.263303
20
113.889508
0
LWPOLYLINE
5
F7
100
AcDbEntity
8
2_pdfsam_CCTV_Security_Camera
6
ByLayer
62
1
370
-1
100
AcDbPolyline
90
11
70
0
43
0
10
153.160201
20
112.09461
10
152.045494
20
112.738112
10
148.691494
20
60.414217
10
168.411807
20
60.414217
10
165.057808
20
112.738112
10
163.943101
20
112.09461
10
161.307604
20
111.238206
10
158.551598
20
110.948611
10
155.795592
20
111.238206
10
153.160201
20
112.09461
10
153.160201
20
112.09461
0
LWPOLYLINE
5
F8
100
AcDbEntity
8
2_pdfsam_CCTV_Security_Camera
6
ByLayer
62
1
370
-1
100
AcDbPolyline
90
6
70
0
43
0
10
129.479111
20
61.645694
10
148.691494
20
60.414217
10
152.045494
20
112.738112
10
132.833004
20
113.969694
10
129.479111
20
61.645694
10
129.479111
20
61.645694
0
LWPOLYLINE
5
F9
100
AcDbEntity
8
2_pdfsam_CCTV_Security_Camera
6
ByLayer
62
1
370
-1
100
AcDbPolyline
90
6
70
0
43
0
10
184.839892
20
113.889508
10
184.270191
20
113.969694
10
187.624191
20
61.645694
10
194.966414
20
62.314102
10
184.839892
20
113.889508
10
184.839892
20
113.889508
0
LWPOLYLINE
5
FA
100
AcDbEntity
8
2_pdfsam_CCTV_Security_Camera
6
ByLayer
62
1
370
-1
100
AcDbPolyline
90
6
70
0
43
0
10
165.057808
20
112.738112
10
168.411807
20
60.414217
10
187.624191
20
61.645694
10
184.270191
20
113.969694
10
165.057808
20
112.738112
10
165.057808
20
112.738112
0
LWPOLYLINE
5
FB
100
AcDbEntity
8
2_pdfsam_CCTV_Security_Camera
6
ByLayer
62
1
370
-1
100
AcDbPolyline
90
64
70
0
43
0
10
113.315009
20
26.600503
10
111.672299
20
26.600503
10
110.029484
20
26.600503
10
108.386809
20
26.600503
10
106.7441
20
26.600503
10
105.10139
20
26.600503
10
103.458716
20
26.600503
10
101.816006
20
26.600503
10
100.173296
20
26.600503
10
98.530516
20
26.600503
10
96.887806
20
26.600503
10
95.245096
20
26.600503
10
93.602316
20
26.600503
10
91.959606
20
26.600503
10
90.316897
20
26.600503
10
88.674187
20
26.600503
10
87.031513
20
26.600503
10
85.388803
20
26.600503
10
83.746093
20
26.600503
10
82.103313
20
26.600503
10
80.460603
20
26.600503
10
78.817893
20
26.600503
10
77.175184
20
26.600503
10
75.532509
20
26.600503
10
73.889694
20
26.600503
10
72.246984
20
26.600503
10
70.604309
20
26.600503
10
68.9616
20
26.600503
10
67.31889
20
26.600503
10
65.67611
20
26.600503
10
64.0334
20
26.600503
10
64.0334
20
20.258899
10
65.67611
20
20.258899
10
67.31889
20
20.258899
10
68.9616
20
20.258899
10
70.604309
20
20.258899
10
72.246984
20
20.258899
10
73.889694
20
20.258899
10
75.532403
20
20.258899
10
77.175113
20
20.258899
10
78.817893
20
20.258899
10
80.460603
20
20.258899
10
82.103313
20
20.258793
10
83.746093
20
20.258793
10
85.388803
20
20.258793
10
87.031513
20
20.258793
10
88.674187
20
20.258793
10
90.316897
20
20.258793
10
91.959606
20
20.258793
10
93.602316
20
20.258793
10
95.245096
20
20.258793
10
96.887806
20
20.258793
10
98.530516
20
20.258793
10
100.17319
20
20.258793
10
101.816006
20
20.258793
10
103.458716
20
20.258793
10
105.10139
20
20.258793
10
106.7441
20
20.258793
10
108.386809
20
20.258793
10
110.029484
20
20.258793
10
111.672299
20
20.258793
10
113.315009
20
20.258793
10
113.315009
20
26.600503
10
113.315009
20
26.600503
0
LWPOLYLINE
5
FC
100
AcDbEntity
8
2_pdfsam_CCTV_Security_Camera
6
ByLayer
62
1
370
-1
100
AcDbPolyline
90
32
70
0
43
0
10
72.972895
20
41.041285
10
72.695894
20
41.893984
10
72.602196
20
42.785806
10
72.695894
20
43.677487
10
72.972895
20
44.530292
10
73.421311
20
45.306791
10
74.021209
20
45.973189
10
74.746697
20
46.500203
10
75.565811
20
46.864905
10
76.442887
20
47.051313
10
77.339507
20
47.051313
10
78.216584
20
46.864905
10
79.035698
20
46.500203
10
79.761115
20
45.973189
10
80.361084
20
45.306791
10
80.809394
20
44.530292
10
81.086501
20
43.677487
10
81.180305
20
42.785806
10
81.086501
20
41.893984
10
80.809394
20
41.041285
10
80.361084
20
40.264715
10
79.761115
20
39.598388
10
79.035698
20
39.071303
10
78.216584
20
38.706601
10
77.339613
20
38.520194
10
76.442887
20
38.520194
10
75.565811
20
38.706601
10
74.746697
20
39.071303
10
74.021315
20
39.598388
10
73.421311
20
40.264715
10
72.972895
20
41.041285
10
72.972895
20
41.041285
0
LWPOLYLINE
5
FD
100
AcDbEntity
8
2_pdfsam_CCTV_Security_Camera
6
ByLayer
62
1
370
-1
100
AcDbPolyline
90
32
70
0
43
0
10
69.712805
20
39.58971
10
70.534107
20
38.167098
10
71.633292
20
36.946311
10
72.962311
20
35.980688
10
74.462993
20
35.312597
10
76.06979
20
34.971108
10
77.712605
20
34.971108
10
79.319402
20
35.312597
10
80.820084
20
35.980793
10
82.149103
20
36.946311
10
83.248288
20
38.167098
10
84.06959
20
39.589816
10
84.577202
20
41.152092
10
84.749005
20
42.785806
10
84.577202
20
44.419485
10
84.06959
20
45.981796
10
83.248183
20
47.404514
10
82.148998
20
48.625196
10
80.820013
20
49.590784
10
79.319402
20
50.259015
10
77.712499
20
50.600504
10
76.06979
20
50.600504
10
74.462993
20
50.259015
10
72.962311
20
49.590784
10
71.633292
20
48.625196
10
70.534107
20
47.404408
10
69.712805
20
45.981796
10
69.205193
20
44.419485
10
69.03339
20
42.785806
10
69.205193
20
41.151986
10
69.712805
20
39.58971
10
69.712805
20
39.58971
0
LWPOLYLINE
5
FE
100
AcDbEntity
8
2_pdfsam_CCTV_Security_Camera
6
ByLayer
62
1
370
-1
100
AcDbPolyline
90
32
70
0
43
0
10
89.205118
20
40.152108
10
89.7128
20
38.589691
10
90.534102
20
37.167114
10
91.633287
20
35.946292
10
92.962307
20
34.980809
10
94.462988
20
34.312613
10
96.069785
20
33.971089
10
97.712495
20
33.971089
10
99.319397
20
34.312613
10
100.820114
20
34.980809
10
102.148993
20
35.946292
10
103.248213
20
37.167114
10
104.069586
20
38.589691
10
104.577198
20
40.152108
10
104.748894
20
41.785787
10
104.577198
20
43.419501
10
104.069586
20
44.981812
10
103.248213
20
46.404495
10
102.148993
20
47.625212
10
100.820114
20
48.5908
10
99.319397
20
49.258996
10
97.712495
20
49.600485
10
96.069785
20
49.600485
10
94.462988
20
49.258996
10
92.962307
20
48.5908
10
91.633287
20
47.625212
10
90.534102
20
46.404495
10
89.7128
20
44.981812
10
89.205117
20
43.419501
10
89.033385
20
41.785787
10
89.205117
20
40.152108
10
89.205118
20
40.152108
0
LWPOLYLINE
5
FF
100
AcDbEntity
8
2_pdfsam_CCTV_Security_Camera
6
ByLayer
62
1
370
-1
100
AcDbPolyline
90
5
70
0
43
0
10
31.706714
20
97.70491
10
31.023207
20
96.204899
10
30.339312
20
97.70491
10
31.706714
20
97.70491
10
31.706714
20
97.70491
0
LWPOLYLINE
5
100
100
AcDbEntity
8
2_pdfsam_CCTV_Security_Camera
6
ByLayer
62
1
370
-1
100
AcDbPolyline
90
5
70
0
43
0
10
30.339312
20
97.70491
10
29.655805
20
96.204899
10
28.97191
20
97.70491
10
30.339312
20
97.70491
10
30.339312
20
97.70491
0
LWPOLYLINE
5
101
100
AcDbEntity
8
2_pdfsam_CCTV_Security_Camera
6
ByLayer
62
1
370
-1
100
AcDbPolyline
90
5
70
0
43
0
10
28.97191
20
97.70491
10
28.288403
20
96.204899
10
27.604896
20
97.70491
10
28.97191
20
97.70491
10
28.97191
20
97.70491
0
LWPOLYLINE
5
102
100
AcDbEntity
8
2_pdfsam_CCTV_Security_Camera
6
ByLayer
62
1
370
-1
100
AcDbPolyline
90
5
70
0
43
0
10
27.604896
20
97.70491
10
26.921001
20
96.204899
10
26.237494
20
97.70491
10
27.604896
20
97.70491
10
27.604896
20
97.70491
0
LWPOLYLINE
5
103
100
AcDbEntity
8
2_pdfsam_CCTV_Security_Camera
6
ByLayer
62
1
370
-1
100
AcDbPolyline
90
5
70
0
43
0
10
26.237494
20
97.70491
10
25.553599
20
96.204899
10
24.870092
20
97.70491
10
26.237494
20
97.70491
10
26.237494
20
97.70491
0
LWPOLYLINE
5
104
100
AcDbEntity
8
2_pdfsam_CCTV_Security_Camera
6
ByLayer
62
1
370
-1
100
AcDbPolyline
90
5
70
0
43
0
10
24.870092
20
97.70491
10
24.186515
20
96.204899
10
23.502691
20
97.70491
10
24.870092
20
97.70491
10
24.870092
20
97.70491
0
LWPOLYLINE
5
105
100
AcDbEntity
8
2_pdfsam_CCTV_Security_Camera
6
ByLayer
62
1
370
-1
100
AcDbPolyline
90
5
70
0
43
0
10
23.502691
20
97.70491
10
22.819113
20
96.204899
10
22.135289
20
97.70491
10
23.502691
20
97.70491
10
23.502691
20
97.70491
0
LWPOLYLINE
5
106
100
AcDbEntity
8
2_pdfsam_CCTV_Security_Camera
6
ByLayer
62
1
370
-1
100
AcDbPolyline
90
5
70
0
43
0
10
22.135289
20
97.70491
10
21.451711
20
96.204899
10
20.768204
20
97.70491
10
22.135289
20
97.70491
10
22.135289
20
97.70491
0
LWPOLYLINE
5
107
100
AcDbEntity
8
2_pdfsam_CCTV_Security_Camera
6
ByLayer
62
1
370
-1
100
AcDbPolyline
90
5
70
0
43
0
10
20.768204
20
97.70491
10
20.084309
20
96.204899
10
19.400802
20
97.70491
10
20.768204
20
97.70491
10
20.768204
20
97.70491
0
LWPOLYLINE
5
108
100
AcDbEntity
8
2_pdfsam_CCTV_Security_Camera
6
ByLayer
62
1
370
-1
100
AcDbPolyline
90
5
70
0
43
0
10
19.400802
20
97.70491
10
18.716907
20
96.204899
10
18.0334
20
97.70491
10
19.400802
20
97.70491
10
19.400802
20
97.70491
0
LWPOLYLINE
5
109
100
AcDbEntity
8
2_pdfsam_CCTV_Security_Camera
6
ByLayer
62
1
370
-1
100
AcDbPolyline
90
5
70
0
43
0
10
37.735404
20
71.600589
10
38.856109
20
73.738493
10
39.976989
20
71.600589
10
37.735404
20
71.600589
10
37.735404
20
71.600589
0
LWPOLYLINE
5
10A
100
AcDbEntity
8
2_pdfsam_CCTV_Security_Camera
6
ByLayer
62
1
370
-1
100
AcDbPolyline
90
5
70
0
43
0
10
39.976989
20
71.600589
10
41.097694
20
73.738493
10
42.218398
20
71.600589
10
39.976989
20
71.600589
10
39.976989
20
71.600589
0
LWPOLYLINE
5
10B
100
AcDbEntity
8
2_pdfsam_CCTV_Security_Camera
6
ByLayer
62
1
370
-1
100
AcDbPolyline
90
5
70
0
43
0
10
42.218398
20
71.600589
10
43.339103
20
73.738493
10
44.459984
20
71.600589
10
42.218398
20
71.600589
10
42.218398
20
71.600589
0
LWPOLYLINE
5
10C
100
AcDbEntity
8
2_pdfsam_CCTV_Security_Camera
6
ByLayer
62
1
370
-1
100
AcDbPolyline
90
5
70
0
43
0
10
44.459984
20
71.600589
10
45.580688
20
73.738493
10
46.701393
20
71.600589
10
44.459984
20
71.600589
10
44.459984
20
71.600589
0
LWPOLYLINE
5
10D
100
AcDbEntity
8
2_pdfsam_CCTV_Security_Camera
6
ByLayer
62
1
370
-1
100
AcDbPolyline
90
5
70
0
43
0
10
46.701392
20
71.600589
10
47.822097
20
73.738493
10
48.943013
20
71.600589
10
46.701392
20
71.600589
10
46.701392
20
71.600589
0
LWPOLYLINE
5
10E
100
AcDbEntity
8
2_pdfsam_CCTV_Security_Camera
6
ByLayer
62
1
370
-1
100
AcDbPolyline
90
5
70
0
43
0
10
33.25241
20
71.600589
10
34.373114
20
73.738493
10
35.493713
20
71.600589
10
33.25241
20
71.600589
10
33.25241
20
71.600589
0
LWPOLYLINE
5
10F
100
AcDbEntity
8
2_pdfsam_CCTV_Security_Camera
6
ByLayer
62
1
370
-1
100
AcDbPolyline
90
5
70
0
43
0
10
28.769416
20
71.600589
10
29.890085
20
73.738493
10
31.010684
20
71.600589
10
28.769416
20
71.600589
10
28.769416
20
71.600589
0
LWPOLYLINE
5
110
100
AcDbEntity
8
2_pdfsam_CCTV_Security_Camera
6
ByLayer
62
1
370
-1
100
AcDbPolyline
90
5
70
0
43
0
10
26.527689
20
71.600589
10
27.648711
20
73.738493
10
28.769416
20
71.600589
10
26.527689
20
71.600589
10
26.527689
20
71.600589
0
LWPOLYLINE
5
111
100
AcDbEntity
8
2_pdfsam_CCTV_Security_Camera
6
ByLayer
62
1
370
-1
100
AcDbPolyline
90
5
70
0
43
0
10
35.493713
20
71.600589
10
36.6147
20
73.738493
10
37.735404
20
71.600589
10
35.493713
20
71.600589
10
35.493713
20
71.600589
0
LWPOLYLINE
5
112
100
AcDbEntity
8
2_pdfsam_CCTV_Security_Camera
6
ByLayer
62
1
370
-1
100
AcDbPolyline
90
5
70
0
43
0
10
24.286386
20
71.600589
10
25.407091
20
73.738493
10
26.527689
20
71.600589
10
24.286386
20
71.600589
10
24.286386
20
71.600589
0
LWPOLYLINE
5
113
100
AcDbEntity
8
2_pdfsam_CCTV_Security_Camera
6
ByLayer
62
1
370
-1
100
AcDbPolyline
90
5
70
0
43
0
10
22.044695
20
71.600589
10
23.1654
20
73.738493
10
24.286386
20
71.600589
10
22.044695
20
71.600589
10
22.044695
20
71.600589
0
LWPOLYLINE
5
114
100
AcDbEntity
8
2_pdfsam_CCTV_Security_Camera
6
ByLayer
62
1
370
-1
100
AcDbPolyline
90
5
70
0
43
0
10
31.010684
20
71.600589
10
32.131388
20
73.738493
10
33.25241
20
71.600589
10
31.010684
20
71.600589
10
31.010684
20
71.600589
0
LWPOLYLINE
5
115
100
AcDbEntity
8
2_pdfsam_CCTV_Security_Camera
6
ByLayer
62
1
370
-1
100
AcDbPolyline
90
6
70
0
43
0
10
19.506882
20
89.691386
10
41.5163
20
89.691386
10
41.5163
20
87.339699
10
19.506882
20
87.339699
10
19.506882
20
89.691386
10
19.506882
20
89.691386
0
LWPOLYLINE
5
116
100
AcDbEntity
8
2_pdfsam_CCTV_Security_Camera
6
ByLayer
62
1
370
-1
100
AcDbPolyline
90
6
70
0
43
0
10
19.506882
20
84.718596
10
41.5163
20
84.718596
10
41.5163
20
82.366908
10
19.506882
20
82.366908
10
19.506882
20
84.718596
10
19.506882
20
84.718596
0
LWPOLYLINE
5
117
100
AcDbEntity
8
2_pdfsam_CCTV_Security_Camera
6
ByLayer
62
1
370
-1
100
AcDbPolyline
90
6
70
0
43
0
10
64.0334
20
26.600503
10
113.315009
20
26.600503
10
113.315009
20
23.429701
10
64.0334
20
23.429701
10
64.0334
20
26.600503
10
64.0334
20
26.600503
0
LWPOLYLINE
5
118
100
AcDbEntity
8
2_pdfsam_CCTV_Security_Camera
6
ByLayer
62
1
370
-1
100
AcDbPolyline
90
11
70
0
43
0
10
65.67611
20
26.600503
10
65.994597
20
26.600503
10
65.994597
20
23.429701
10
65.67611
20
23.429701
10
65.67611
20
26.600503
10
65.67611
20
26.600503
10
64.0334
20
26.600503
10
64.0334
20
23.429701
10
65.67611
20
23.429701
10
65.67611
20
26.600503
10
65.67611
20
26.600503
0
LWPOLYLINE
5
119
100
AcDbEntity
8
2_pdfsam_CCTV_Security_Camera
6
ByLayer
62
1
370
-1
100
AcDbPolyline
90
11
70
0
43
0
10
67.636108
20
26.600503
10
67.954596
20
26.600503
10
67.954596
20
23.429701
10
67.636108
20
23.429701
10
67.636108
20
26.600503
10
67.636108
20
26.600503
10
65.993398
20
26.600503
10
65.993398
20
23.429701
10
67.636108
20
23.429701
10
67.636108
20
26.600503
10
67.636108
20
26.600503
0
LWPOLYLINE
5
11A
100
AcDbEntity
8
2_pdfsam_CCTV_Security_Camera
6
ByLayer
62
1
370
-1
100
AcDbPolyline
90
11
70
0
43
0
10
69.596106
20
26.600503
10
69.914594
20
26.600503
10
69.914594
20
23.429701
10
69.596106
20
23.429701
10
69.596106
20
26.600503
10
69.596106
20
26.600503
10
67.953396
20
26.600503
10
67.953396
20
23.429701
10
69.596106
20
23.429701
10
69.596106
20
26.600503
10
69.596106
20
26.600503
0
LWPOLYLINE
5
11B
100
AcDbEntity
8
2_pdfsam_CCTV_Security_Camera
6
ByLayer
62
1
370
-1
100
AcDbPolyline
90
11
70
0
43
0
10
71.556104
20
26.600503
10
71.874592
20
26.600503
10
71.874592
20
23.429701
10
71.556104
20
23.429701
10
71.556104
20
26.600503
10
71.556104
20
26.600503
10
69.913394
20
26.600503
10
69.913394
20
23.429701
10
71.556104
20
23.429701
10
71.556104
20
26.600503
10
71.556104
20
26.600503
0
LWPOLYLINE
5
11C
100
AcDbEntity
8
2_pdfsam_CCTV_Security_Camera
6
ByLayer
62
1
370
-1
100
AcDbPolyline
90
11
70
0
43
0
10
73.516102
20
26.600503
10
73.83459
20
26.600503
10
73.83459
20
23.429701
10
73.516102
20
23.429701
10
73.516102
20
26.600503
10
73.516102
20
26.600503
10
71.873392
20
26.600503
10
71.873392
20
23.429701
10
73.516102
20
23.429701
10
73.516102
20
26.600503
10
73.516102
20
26.600503
0
LWPOLYLINE
5
11D
100
AcDbEntity
8
2_pdfsam_CCTV_Security_Camera
6
ByLayer
62
1
370
-1
100
AcDbPolyline
90
11
70
0
43
0
10
75.4761
20
26.600503
10
75.794588
20
26.600503
10
75.794588
20
23.429701
10
75.4761
20
23.429701
10
75.4761
20
26.600503
10
75.4761
20
26.600503
10
73.83339
20
26.600503
10
73.83339
20
23.429701
10
75.4761
20
23.429701
10
75.4761
20
26.600503
10
75.4761
20
26.600503
0
LWPOLYLINE
5
11E
100
AcDbEntity
8
2_pdfsam_CCTV_Security_Camera
6
ByLayer
62
1
370
-1
100
AcDbPolyline
90
11
70
0
43
0
10
77.436098
20
26.600503
10
77.754586
20
26.600503
10
77.754586
20
23.429701
10
77.436098
20
23.429701
10
77.436098
20
26.600503
10
77.436098
20
26.600503
10
75.793388
20
26.600503
10
75.793388
20
23.429701
10
77.436098
20
23.429701
10
77.436098
20
26.600503
10
77.436098
20
26.600503
0
LWPOLYLINE
5
11F
100
AcDbEntity
8
2_pdfsam_CCTV_Security_Camera
6
ByLayer
62
1
370
-1
100
AcDbPolyline
90
11
70
0
43
0
10
79.396096
20
26.600503
10
79.714584
20
26.600503
10
79.714584
20
23.429701
10
79.396096
20
23.429701
10
79.396096
20
26.600503
10
79.396096
20
26.600503
10
77.753386
20
26.600503
10
77.753386
20
23.429701
10
79.396096
20
23.429701
10
79.396096
20
26.600503
10
79.396096
20
26.600503
0
LWPOLYLINE
5
120
100
AcDbEntity
8
2_pdfsam_CCTV_Security_Camera
6
ByLayer
62
1
370
-1
100
AcDbPolyline
90
11
70
0
43
0
10
81.356094
20
26.600503
10
81.674617
20
26.600503
10
81.674617
20
23.429701
10
81.356094
20
23.429701
10
81.356094
20
26.600503
10
81.356094
20
26.600503
10
79.713384
20
26.600503
10
79.713384
20
23.429701
10
81.356094
20
23.429701
10
81.356094
20
26.600503
10
81.356094
20
26.600503
0
LWPOLYLINE
5
121
100
AcDbEntity
8
2_pdfsam_CCTV_Security_Camera
6
ByLayer
62
1
370
-1
100
AcDbPolyline
90
11
70
0
43
0
10
83.316092
20
26.600503
10
83.634615
20
26.600503
10
83.634615
20
23.429701
10
83.316092
20
23.429701
10
83.316092
20
26.600503
10
83.316092
20
26.600503
10
81.673383
20
26.600503
10
81.673383
20
23.429701
10
83.316092
20
23.429701
10
83.316092
20
26.600503
10
83.316092
20
26.600503
0
LWPOLYLINE
5
122
100
AcDbEntity
8
2_pdfsam_CCTV_Security_Camera
6
ByLayer
62
1
370
-1
100
AcDbPolyline
90
11
70
0
43
0
10
85.27609
20
26.600503
10
85.594613
20
26.600503
10
85.594613
20
23.429701
10
85.27609
20
23.429701
10
85.27609
20
26.600503
10
85.27609
20
26.600503
10
83.633416
20
26.600503
10
83.633416
20
23.429701
10
85.27609
20
23.429701
10
85.27609
20
26.600503
10
85.27609
20
26.600503
0
LWPOLYLINE
5
123
100
AcDbEntity
8
2_pdfsam_CCTV_Security_Camera
6
ByLayer
62
1
370
-1
100
AcDbPolyline
90
11
70
0
43
0
10
87.236088
20
26.600503
10
87.554611
20
26.600503
10
87.554611
20
23.429701
10
87.236088
20
23.429701
10
87.236088
20
26.600503
10
87.236088
20
26.600503
10
85.593414
20
26.600503
10
85.593414
20
23.429701
10
87.236088
20
23.429701
10
87.236088
20
26.600503
10
87.236088
20
26.600503
0
LWPOLYLINE
5
124
100
AcDbEntity
8
2_pdfsam_CCTV_Security_Camera
6
ByLayer
62
1
370
-1
100
AcDbPolyline
90
11
70
0
43
0
10
89.196086
20
26.600503
10
89.514609
20
26.600503
10
89.514609
20
23.429701
10
89.196086
20
23.429701
10
89.196086
20
26.600503
10
89.196086
20
26.600503
10
87.553412
20
26.600503
10
87.553412
20
23.429701
10
89.196086
20
23.429701
10
89.196086
20
26.600503
10
89.196086
20
26.600503
0
LWPOLYLINE
5
125
100
AcDbEntity
8
2_pdfsam_CCTV_Security_Camera
6
ByLayer
62
1
370
-1
100
AcDbPolyline
90
11
70
0
43
0
10
91.156084
20
26.600503
10
91.474607
20
26.600503
10
91.474607
20
23.429701
10
91.156084
20
23.429701
10
91.156084
20
26.600503
10
91.156084
20
26.600503
10
89.51341
20
26.600503
10
89.51341
20
23.429701
10
91.156084
20
23.429701
10
91.156084
20
26.600503
10
91.156084
20
26.600503
0
LWPOLYLINE
5
126
100
AcDbEntity
8
2_pdfsam_CCTV_Security_Camera
6
ByLayer
62
1
370
-1
100
AcDbPolyline
90
11
70
0
43
0
10
93.116082
20
26.600503
10
93.434606
20
26.600503
10
93.434606
20
23.429701
10
93.116082
20
23.429701
10
93.116082
20
26.600503
10
93.116082
20
26.600503
10
91.473408
20
26.600503
10
91.473408
20
23.429701
10
93.116082
20
23.429701
10
93.116082
20
26.600503
10
93.116082
20
26.600503
0
LWPOLYLINE
5
127
100
AcDbEntity
8
2_pdfsam_CCTV_Security_Camera
6
ByLayer
62
1
370
-1
100
AcDbPolyline
90
11
70
0
43
0
10
95.076116
20
26.600503
10
95.394604
20
26.600503
10
95.394604
20
23.429701
10
95.076116
20
23.429701
10
95.076116
20
26.600503
10
95.076116
20
26.600503
10
93.433406
20
26.600503
10
93.433406
20
23.429701
10
95.076116
20
23.429701
10
95.076116
20
26.600503
10
95.076116
20
26.600503
0
LWPOLYLINE
5
128
100
AcDbEntity
8
2_pdfsam_CCTV_Security_Camera
6
ByLayer
62
1
370
-1
100
AcDbPolyline
90
11
70
0
43
0
10
97.036114
20
26.600503
10
97.354602
20
26.600503
10
97.354602
20
23.429701
10
97.036114
20
23.429701
10
97.036114
20
26.600503
10
97.036114
20
26.600503
10
95.393404
20
26.600503
10
95.393404
20
23.429701
10
97.036114
20
23.429701
10
97.036114
20
26.600503
10
97.036114
20
26.600503
0
LWPOLYLINE
5
129
100
AcDbEntity
8
2_pdfsam_CCTV_Security_Camera
6
ByLayer
62
1
370
-1
100
AcDbPolyline
90
11
70
0
43
0
10
98.996112
20
26.600503
10
99.3146
20
26.600503
10
99.3146
20
23.429701
10
98.996112
20
23.429701
10
98.996112
20
26.600503
10
98.996112
20
26.600503
10
97.353402
20
26.600503
10
97.353402
20
23.429701
10
98.996112
20
23.429701
10
98.996112
20
26.600503
10
98.996112
20
26.600503
0
LWPOLYLINE
5
12A
100
AcDbEntity
8
2_pdfsam_CCTV_Security_Camera
6
ByLayer
62
1
370
-1
100
AcDbPolyline
90
11
70
0
43
0
10
100.95611
20
26.600503
10
101.274598
20
26.600503
10
101.274598
20
23.429701
10
100.95611
20
23.429701
10
100.95611
20
26.600503
10
100.95611
20
26.600503
10
99.3134
20
26.600503
10
99.3134
20
23.429701
10
100.95611
20
23.429701
10
100.95611
20
26.600503
10
100.95611
20
26.600503
0
LWPOLYLINE
5
12B
100
AcDbEntity
8
2_pdfsam_CCTV_Security_Camera
6
ByLayer
62
1
370
-1
100
AcDbPolyline
90
11
70
0
43
0
10
102.916108
20
26.600503
10
103.234596
20
26.600503
10
103.234596
20
23.429701
10
102.916108
20
23.429701
10
102.916108
20
26.600503
10
102.916108
20
26.600503
10
101.273398
20
26.600503
10
101.273398
20
23.429701
10
102.916108
20
23.429701
10
102.916108
20
26.600503
10
102.916108
20
26.600503
0
LWPOLYLINE
5
12C
100
AcDbEntity
8
2_pdfsam_CCTV_Security_Camera
6
ByLayer
62
1
370
-1
100
AcDbPolyline
90
11
70
0
43
0
10
104.876106
20
26.600503
10
105.194594
20
26.600503
10
105.194594
20
23.429701
10
104.876106
20
23.429701
10
104.876106
20
26.600503
10
104.876106
20
26.600503
10
103.233396
20
26.600503
10
103.233396
20
23.429701
10
104.876106
20
23.429701
10
104.876106
20
26.600503
10
104.876106
20
26.600503
0
LWPOLYLINE
5
12D
100
AcDbEntity
8
2_pdfsam_CCTV_Security_Camera
6
ByLayer
62
1
370
-1
100
AcDbPolyline
90
11
70
0
43
0
10
106.836104
20
26.600503
10
107.154592
20
26.600503
10
107.154592
20
23.429701
10
106.836104
20
23.429701
10
106.836104
20
26.600503
10
106.836104
20
26.600503
10
105.193394
20
26.600503
10
105.193394
20
23.429701
10
106.836104
20
23.429701
10
106.836104
20
26.600503
10
106.836104
20
26.600503
0
LWPOLYLINE
5
12E
100
AcDbEntity
8
2_pdfsam_CCTV_Security_Camera
6
ByLayer
62
1
370
-1
100
AcDbPolyline
90
11
70
0
43
0
10
108.796102
20
26.600503
10
109.11459
20
26.600503
10
109.11459
20
23.429701
10
108.796102
20
23.429701
10
108.796102
20
26.600503
10
108.796102
20
26.600503
10
107.153392
20
26.600503
10
107.153392
20
23.429701
10
108.796102
20
23.429701
10
108.796102
20
26.600503
10
108.796102
20
26.600503
0
LWPOLYLINE
5
12F
100
AcDbEntity
8
2_pdfsam_CCTV_Security_Camera
6
ByLayer
62
1
370
-1
100
AcDbPolyline
90
11
70
0
43
0
10
110.7561
20
26.600503
10
111.074588
20
26.600503
10
111.074588
20
23.429701
10
110.7561
20
23.429701
10
110.7561
20
26.600503
10
110.7561
20
26.600503
10
109.113391
20
26.600503
10
109.113391
20
23.429701
10
110.7561
20
23.429701
10
110.7561
20
26.600503
10
110.7561
20
26.600503
0
LWPOLYLINE
5
130
100
AcDbEntity
8
2_pdfsam_CCTV_Security_Camera
6
ByLayer
62
1
370
-1
100
AcDbPolyline
90
11
70
0
43
0
10
112.716098
20
26.600503
10
113.034586
20
26.600503
10
113.034586
20
23.429701
10
112.716098
20
23.429701
10
112.716098
20
26.600503
10
112.716098
20
26.600503
10
111.073389
20
26.600503
10
111.073389
20
23.429701
10
112.716098
20
23.429701
10
112.716098
20
26.600503
10
112.716098
20
26.600503
0
LINE
5
131
100
AcDbEntity
8
cut
6
ByLayer
62
256
370
-1
100
AcDbLine
10
114.021411
20
112.593896
11
119.964517
21
116.425204
0
LINE
5
132
100
AcDbEntity
8
cut
6
ByLayer
62
256
370
-1
100
AcDbLine
10
119.964517
20
116.425204
11
122.913105
21
117.735103
0
LINE
5
133
100
AcDbEntity
8
cut
6
ByLayer
62
256
370
-1
100
AcDbLine
10
122.913105
20
117.735103
11
123.136413
21
114.3641
0
LINE
5
134
100
AcDbEntity
8
cut
6
ByLayer
62
256
370
-1
100
AcDbLine
10
123.136413
20
114.3641
11
125.095388
21
116.582684
0
LINE
5
135
100
AcDbEntity
8
cut
6
ByLayer
62
256
370
-1
100
AcDbLine
10
125.095388
20
116.582684
11
125.776708
21
113.521913
0
LINE
5
136
100
AcDbEntity
8
cut
6
ByLayer
62
256
370
-1
100
AcDbLine
10
125.776708
20
113.521913
11
127.155716
21
116.273016
0
LINE
5
137
100
AcDbEntity
8
cut
6
ByLayer
62
256
370
-1
100
AcDbLine
10
127.155716
20
116.273016
11
128.534795
21
113.251015
0
LINE
5
138
100
AcDbEntity
8
cut
6
ByLayer
62
256
370
-1
100
AcDbLine
10
128.534795
20
113.251015
11
129.452899
21
115.837194
0
LINE
5
139
100
AcDbEntity
8
cut
6
ByLayer
62
256
370
-1
100
AcDbLine
10
129.452899
20
115.837194
11
131.290201
21
113.5634
0
LINE
5
13A
100
AcDbEntity
8
cut
6
ByLayer
62
256
370
-1
100
AcDbLine
10
131.290201
20
113.5634
11
130.861717
21
116.188208
0
LINE
5
13B
100
AcDbEntity
8
cut
6
ByLayer
62
256
370
-1
100
AcDbLine
10
130.861717
20
116.188208
11
132.263303
21
113.889508
0
LINE
5
13C
100
AcDbEntity
8
cut
6
ByLayer
62
256
370
-1
100
AcDbLine
10
132.263303
20
113.889508
11
132.833004
21
113.969694
0
LINE
5
13D
100
AcDbEntity
8
cut
6
ByLayer
62
256
370
-1
100
AcDbLine
10
132.833004
20
113.969694
11
132.338904
21
114.264511
0
LINE
5
13E
100
AcDbEntity
8
cut
6
ByLayer
62
256
370
-1
100
AcDbLine
10
114.021411
20
112.593896
11
105.03341
21
70.993706
0
LINE
5
13F
100
AcDbEntity
8
cut
6
ByLayer
62
256
370
-1
100
AcDbLine
10
105.03341
20
70.993706
11
108.864718
21
65.050494
0
LINE
5
140
100
AcDbEntity
8
cut
6
ByLayer
62
256
370
-1
100
AcDbLine
10
108.864718
20
65.050494
11
112.752117
21
59.143794
0
LINE
5
141
100
AcDbEntity
8
cut
6
ByLayer
62
256
370
-1
100
AcDbLine
10
112.752117
20
59.143794
11
116.230188
21
58.426703
0
LINE
5
142
100
AcDbEntity
8
cut
6
ByLayer
62
256
370
-1
100
AcDbLine
10
116.230188
20
58.426703
11
122.136888
21
62.314102
0
LINE
5
143
100
AcDbEntity
8
cut
6
ByLayer
62
256
370
-1
100
AcDbLine
10
122.136888
20
62.314102
11
123.871939908
21
59.4861033599
0
LINE
5
144
100
AcDbEntity
8
cut
6
ByLayer
62
256
370
-1
100
AcDbLine
10
123.871939908
20
59.4861033599
11
129.479111
21
61.645694
0
LINE
5
145
100
AcDbEntity
8
cut
6
ByLayer
62
256
370
-1
100
AcDbLine
10
129.479111
20
61.645694
11
122.599203
21
58.99591
0
LINE
5
146
100
AcDbEntity
8
cut
6
ByLayer
62
256
370
-1
100
AcDbLine
10
122.599203
20
58.99591
11
121.732393
21
45.472315
0
LINE
5
147
100
AcDbEntity
8
cut
6
ByLayer
62
256
370
-1
100
AcDbLine
10
121.732393
20
45.472315
11
128.217613
21
41.965809
0
LINE
5
148
100
AcDbEntity
8
cut
6
ByLayer
62
256
370
-1
100
AcDbLine
10
128.217613
20
41.965809
11
147.429996
21
40.734297
0
LINE
5
149
100
AcDbEntity
8
cut
6
ByLayer
62
256
370
-1
100
AcDbLine
10
147.429996
20
40.734297
11
148.691494
21
60.414217
0
LINE
5
14A
100
AcDbEntity
8
cut
6
ByLayer
62
256
370
-1
100
AcDbLine
10
148.691494
20
60.414217
11
153.691484
21
55.414192
0
LINE
5
14B
100
AcDbEntity
8
cut
6
ByLayer
62
256
370
-1
100
AcDbLine
10
153.691484
20
55.414192
11
163.411817
21
55.414192
0
LINE
5
14C
100
AcDbEntity
8
cut
6
ByLayer
62
256
370
-1
100
AcDbLine
10
163.411817
20
55.414192
11
168.411807
21
60.414218
0
LINE
5
14D
100
AcDbEntity
8
cut
6
ByLayer
62
256
370
-1
100
AcDbLine
10
168.411807
20
60.414218
11
173.721395
21
55.744286
0
LINE
5
14E
100
AcDbEntity
8
cut
6
ByLayer
62
256
370
-1
100
AcDbLine
10
173.721395
20
55.744286
11
182.954295
21
56.336106
0
LINE
5
14F
100
AcDbEntity
8
cut
6
ByLayer
62
256
370
-1
100
AcDbLine
10
182.954295
20
56.336106
11
187.624191
21
61.645694
0
LINE
5
150
100
AcDbEntity
8
cut
6
ByLayer
62
256
370
-1
100
AcDbLine
10
187.624191
20
61.645694
11
191.748516
21
57.000493
0
LINE
5
151
100
AcDbEntity
8
cut
6
ByLayer
62
256
370
-1
100
AcDbLine
10
191.748516
20
57.000493
11
194.966414
21
62.314102
0
LINE
5
152
100
AcDbEntity
8
cut
6
ByLayer
62
256
370
-1
100
AcDbLine
10
194.966414
20
62.314102
11
184.839892
21
113.889508
0
LINE
5
153
100
AcDbEntity
8
cut
6
ByLayer
62
256
370
-1
100
AcDbLine
10
184.839892
20
113.889508
11
184.270191
21
113.969694
0
LINE
5
154
100
AcDbEntity
8
cut
6
ByLayer
62
256
370
-1
100
AcDbLine
10
184.270191
20
113.969694
11
178.960604
21
118.63959
0
LINE
5
155
100
AcDbEntity
8
cut
6
ByLayer
62
256
370
-1
100
AcDbLine
10
178.960604
20
118.63959
11
169.727704
21
118.047805
0
LINE
5
156
100
AcDbEntity
8
cut
6
ByLayer
62
256
370
-1
100
AcDbLine
10
169.727704
20
118.047805
11
165.057808
21
112.738112
0
LINE
5
157
100
AcDbEntity
8
cut
6
ByLayer
62
256
370
-1
100
AcDbLine
10
165.057808
20
112.738112
11
163.399117
21
114.829908
0
LINE
5
158
100
AcDbEntity
8
cut
6
ByLayer
62
256
370
-1
100
AcDbLine
10
163.399117
20
114.829908
11
163.943101
21
112.09461
0
LINE
5
159
100
AcDbEntity
8
cut
6
ByLayer
62
256
370
-1
100
AcDbLine
10
163.943101
20
112.09461
11
161.546399
21
114.815902
0
LINE
5
15A
100
AcDbEntity
8
cut
6
ByLayer
62
256
370
-1
100
AcDbLine
10
161.546399
20
114.815902
11
161.307604
21
111.238206
0
LINE
5
15B
100
AcDbEntity
8
cut
6
ByLayer
62
256
370
-1
100
AcDbLine
10
161.307604
20
111.238206
11
159.510589
21
114.667383
0
LINE
5
15C
100
AcDbEntity
8
cut
6
ByLayer
62
256
370
-1
100
AcDbLine
10
159.510589
20
114.667383
11
158.551598
21
110.948611
0
LINE
5
15D
100
AcDbEntity
8
cut
6
ByLayer
62
256
370
-1
100
AcDbLine
10
158.551598
20
110.948611
11
157.799899
21
114.356586
0
LINE
5
15E
100
AcDbEntity
8
cut
6
ByLayer
62
256
370
-1
100
AcDbLine
10
157.799899
20
114.356586
11
155.795592
21
111.238206
0
LINE
5
15F
100
AcDbEntity
8
cut
6
ByLayer
62
256
370
-1
100
AcDbLine
10
155.795592
20
111.238206
11
155.608584
21
114.453317
0
LINE
5
160
100
AcDbEntity
8
cut
6
ByLayer
62
256
370
-1
100
AcDbLine
10
155.608584
20
114.453317
11
153.160201
21
112.09461
0
LINE
5
161
100
AcDbEntity
8
cut
6
ByLayer
62
256
370
-1
100
AcDbLine
10
153.160201
20
112.09461
11
154.533
21
115.296103
0
LINE
5
162
100
AcDbEntity
8
cut
6
ByLayer
62
256
370
-1
100
AcDbLine
10
154.533
20
115.296103
11
152.045494
21
112.738112
0
LINE
5
163
100
AcDbEntity
8
cut
6
ByLayer
62
256
370
-1
100
AcDbLine
10
152.919183
20
126.368986
11
133.706799
21
127.600498
0
LINE
5
164
100
AcDbEntity
8
cut
6
ByLayer
62
256
370
-1
100
AcDbLine
10
133.706799
20
127.600498
11
133.179114
21
127.371193
0
LINE
5
165
100
AcDbEntity
8
cut
6
ByLayer
62
256
370
-1
100
AcDbLine
10
132.774408
20
123.593684
11
132.562988
21
120.830411
0
LINE
5
166
100
AcDbEntity
8
cut
6
ByLayer
62
256
370
-1
100
AcDbLine
10
132.562988
20
120.830411
11
132.419901
21
118.062693
0
LINE
5
167
100
AcDbEntity
8
cut
6
ByLayer
62
256
370
-1
100
AcDbLine
10
132.419901
20
118.062693
11
132.343913
21
115.290812
0
LINE
5
168
100
AcDbEntity
8
cut
6
ByLayer
62
256
370
-1
100
AcDbLine
10
132.343913
20
115.290812
11
132.338904
21
114.264511
0
LINE
5
169
100
AcDbEntity
8
cut
6
ByLayer
62
256
370
-1
100
AcDbLine
10
133.179114
20
127.371193
11
133.052996
21
126.352688
0
LINE
5
16A
100
AcDbEntity
8
cut
6
ByLayer
62
256
370
-1
100
AcDbLine
10
133.052996
20
126.352688
11
132.774408
21
123.593684
0
LINE
5
16B
100
AcDbEntity
8
cut
6
ByLayer
62
256
370
-1
100
AcDbLine
10
152.919183
20
126.368986
11
152.659609
21
122.318992
0
LINE
5
16C
100
AcDbEntity
8
cut
6
ByLayer
62
256
370
-1
100
AcDbLine
10
152.659609
20
122.318992
11
152.482303
21
119.553602
0
LINE
5
16D
100
AcDbEntity
8
cut
6
ByLayer
62
256
370
-1
100
AcDbLine
10
152.482303
20
119.553602
11
152.305103
21
116.788106
0
LINE
5
16E
100
AcDbEntity
8
cut
6
ByLayer
62
256
370
-1
100
AcDbLine
10
152.305103
20
116.788106
11
152.127797
21
114.022611
0
LINE
5
16F
100
AcDbEntity
8
cut
6
ByLayer
62
256
370
-1
100
AcDbLine
10
152.127797
20
114.022611
11
152.045494
21
112.738112
0
CIRCLE
5
170
100
AcDbEntity
8
cut
6
ByLayer
62
256
370
-1
100
AcDbCircle
10
156.2888985
20
144.417697
40
13.2555015
0
CIRCLE
5
171
100
AcDbEntity
8
cut
6
ByLayer
62
256
370
-1
100
AcDbCircle
10
76.394804
20
95.383385
40
27.838188
0
LINE
5
172
100
AcDbEntity
8
cut
6
ByLayer
62
256
370
-1
100
AcDbLine
10
122.697699
20
126.555818
11
124.385105
21
136.962409
0
LINE
5
173
100
AcDbEntity
8
cut
6
ByLayer
62
256
370
-1
100
AcDbLine
10
124.385105
20
136.962409
11
126.659887
21
144.586713
0
LINE
5
174
100
AcDbEntity
8
cut
6
ByLayer
62
256
370
-1
100
AcDbLine
10
126.659887
20
144.586713
11
129.667
21
150.722683
0
LINE
5
175
100
AcDbEntity
8
cut
6
ByLayer
62
256
370
-1
100
AcDbLine
10
129.667
20
150.722683
11
133.53101
21
155.878213
0
LINE
5
176
100
AcDbEntity
8
cut
6
ByLayer
62
256
370
-1
100
AcDbLine
10
133.53101
20
155.878213
11
138.057784
21
159.922598
0
LINE
5
177
100
AcDbEntity
8
cut
6
ByLayer
62
256
370
-1
100
AcDbLine
10
138.057784
20
159.922598
11
143.27191
21
162.929993
0
LINE
5
178
100
AcDbEntity
8
cut
6
ByLayer
62
256
370
-1
100
AcDbLine
10
143.27191
20
162.929993
11
148.913815
21
164.769588
0
LINE
5
179
100
AcDbEntity
8
cut
6
ByLayer
62
256
370
-1
100
AcDbLine
10
148.913815
20
164.769588
11
154.793386
21
165.3927
0
LINE
5
17A
100
AcDbEntity
8
cut
6
ByLayer
62
256
370
-1
100
AcDbLine
10
154.793386
20
165.3927
11
160.674015
21
164.778584
0
LINE
5
17B
100
AcDbEntity
8
cut
6
ByLayer
62
256
370
-1
100
AcDbLine
10
160.674015
20
164.778584
11
166.3186
21
162.947315
0
LINE
5
17C
100
AcDbEntity
8
cut
6
ByLayer
62
256
370
-1
100
AcDbLine
10
166.3186
20
162.947315
11
171.536501
21
159.946587
0
LINE
5
17D
100
AcDbEntity
8
cut
6
ByLayer
62
256
370
-1
100
AcDbLine
10
171.536501
20
159.946587
11
176.067896
21
155.907493
0
LINE
5
17E
100
AcDbEntity
8
cut
6
ByLayer
62
256
370
-1
100
AcDbLine
10
176.067896
20
155.907493
11
179.934094
21
150.75341
0
LINE
5
17F
100
AcDbEntity
8
cut
6
ByLayer
62
256
370
-1
100
AcDbLine
10
179.934094
20
150.75341
11
182.94029
21
144.617087
0
LINE
5
180
100
AcDbEntity
8
cut
6
ByLayer
62
256
370
-1
100
AcDbLine
10
182.94029
20
144.617087
11
185.207204
21
136.99049
0
LINE
5
181
100
AcDbEntity
8
cut
6
ByLayer
62
256
370
-1
100
AcDbLine
10
185.207204
20
136.99049
11
186.886603
21
126.582488
0
LINE
5
182
100
AcDbEntity
8
cut
6
ByLayer
62
256
370
-1
100
AcDbLine
10
186.886603
20
126.582488
11
189.421699
21
127.000388
0
LINE
5
183
100
AcDbEntity
8
cut
6
ByLayer
62
256
370
-1
100
AcDbLine
10
189.421699
20
127.000388
11
193.554315
21
132.738001
0
LINE
5
184
100
AcDbEntity
8
cut
6
ByLayer
62
256
370
-1
100
AcDbLine
10
193.554315
20
132.738001
11
193.427209
21
133.520215
0
LINE
5
185
100
AcDbEntity
8
cut
6
ByLayer
62
256
370
-1
100
AcDbLine
10
193.427209
20
133.520215
11
187.68949
21
137.653007
0
LINE
5
186
100
AcDbEntity
8
cut
6
ByLayer
62
256
370
-1
100
AcDbLine
10
187.68949
20
137.653007
11
191.284296
21
143.0782
0
LINE
5
187
100
AcDbEntity
8
cut
6
ByLayer
62
256
370
-1
100
AcDbLine
10
191.284296
20
143.0782
11
185.299385
21
145.634498
0
LINE
5
188
100
AcDbEntity
8
cut
6
ByLayer
62
256
370
-1
100
AcDbLine
10
185.299385
20
145.634498
11
188.176711
21
151.107599
0
LINE
5
189
100
AcDbEntity
8
cut
6
ByLayer
62
256
370
-1
100
AcDbLine
10
188.176711
20
151.107599
11
182.08371
21
152.160711
0
LINE
5
18A
100
AcDbEntity
8
cut
6
ByLayer
62
256
370
-1
100
AcDbLine
10
182.08371
20
152.160711
11
183.997212
21
157.930885
0
LINE
5
18B
100
AcDbEntity
8
cut
6
ByLayer
62
256
370
-1
100
AcDbLine
10
183.997212
20
157.930885
11
177.922908
21
157.685211
0
LINE
5
18C
100
AcDbEntity
8
cut
6
ByLayer
62
256
370
-1
100
AcDbLine
10
177.922908
20
157.685211
11
178.787213
21
163.605986
0
LINE
5
18D
100
AcDbEntity
8
cut
6
ByLayer
62
256
370
-1
100
AcDbLine
10
178.787213
20
163.605986
11
173.00889
21
162.052106
0
LINE
5
18E
100
AcDbEntity
8
cut
6
ByLayer
62
256
370
-1
100
AcDbLine
10
173.00889
20
162.052106
11
172.663309
21
168.015003
0
LINE
5
18F
100
AcDbEntity
8
cut
6
ByLayer
62
256
370
-1
100
AcDbLine
10
172.663309
20
168.015003
11
167.340703
21
165.304505
0
LINE
5
190
100
AcDbEntity
8
cut
6
ByLayer
62
256
370
-1
100
AcDbLine
10
167.340703
20
165.304505
11
165.811588
21
171.055489
0
LINE
5
191
100
AcDbEntity
8
cut
6
ByLayer
62
256
370
-1
100
AcDbLine
10
165.811588
20
171.055489
11
161.2011
21
167.293184
0
LINE
5
192
100
AcDbEntity
8
cut
6
ByLayer
62
256
370
-1
100
AcDbLine
10
161.2011
20
167.293184
11
158.515085
21
172.600514
0
LINE
5
193
100
AcDbEntity
8
cut
6
ByLayer
62
256
370
-1
100
AcDbLine
10
158.515085
20
172.600514
11
154.79141
21
167.96191
0
LINE
5
194
100
AcDbEntity
8
cut
6
ByLayer
62
256
370
-1
100
AcDbLine
10
154.79141
20
167.96191
11
151.060714
21
172.594905
0
LINE
5
195
100
AcDbEntity
8
cut
6
ByLayer
62
256
370
-1
100
AcDbLine
10
151.060714
20
172.594905
11
148.382884
21
167.283412
0
LINE
5
196
100
AcDbEntity
8
cut
6
ByLayer
62
256
370
-1
100
AcDbLine
10
148.382884
20
167.283412
11
143.766787
21
171.038802
0
LINE
5
197
100
AcDbEntity
8
cut
6
ByLayer
62
256
370
-1
100
AcDbLine
10
143.766787
20
171.038802
11
142.246209
21
165.285491
0
LINE
5
198
100
AcDbEntity
8
cut
6
ByLayer
62
256
370
-1
100
AcDbLine
10
142.246209
20
165.285491
11
136.920217
21
167.989215
0
LINE
5
199
100
AcDbEntity
8
cut
6
ByLayer
62
256
370
-1
100
AcDbLine
10
136.920217
20
167.989215
11
136.582185
21
162.025789
0
LINE
5
19A
100
AcDbEntity
8
cut
6
ByLayer
62
256
370
-1
100
AcDbLine
10
136.582185
20
162.025789
11
130.801992
21
163.572896
0
LINE
5
19B
100
AcDbEntity
8
cut
6
ByLayer
62
256
370
-1
100
AcDbLine
10
130.801992
20
163.572896
11
131.673494
21
157.653002
0
LINE
5
19C
100
AcDbEntity
8
cut
6
ByLayer
62
256
370
-1
100
AcDbLine
10
131.673494
20
157.653002
11
125.599014
21
157.895996
0
LINE
5
19D
100
AcDbEntity
8
cut
6
ByLayer
62
256
370
-1
100
AcDbLine
10
125.599014
20
157.895996
11
127.515197
21
152.126491
0
LINE
5
19E
100
AcDbEntity
8
cut
6
ByLayer
62
256
370
-1
100
AcDbLine
10
127.515197
20
152.126491
11
121.422301
21
151.073803
0
LINE
5
19F
100
AcDbEntity
8
cut
6
ByLayer
62
256
370
-1
100
AcDbLine
10
121.422301
20
151.073803
11
124.299204
21
145.600702
0
LINE
5
1A0
100
AcDbEntity
8
cut
6
ByLayer
62
256
370
-1
100
AcDbLine
10
124.299204
20
145.600702
11
118.311895
21
143.049696
0
LINE
5
1A1
100
AcDbEntity
8
cut
6
ByLayer
62
256
370
-1
100
AcDbLine
10
118.311895
20
143.049696
11
121.901797
21
137.621186
0
LINE
5
1A2
100
AcDbEntity
8
cut
6
ByLayer
62
256
370
-1
100
AcDbLine
10
121.901797
20
137.621186
11
116.161185
21
133.492593
0
LINE
5
1A3
100
AcDbEntity
8
cut
6
ByLayer
62
256
370
-1
100
AcDbLine
10
116.161185
20
133.492593
11
116.033409
21
132.710484
0
LINE
5
1A4
100
AcDbEntity
8
cut
6
ByLayer
62
256
370
-1
100
AcDbLine
10
116.033409
20
132.710484
11
120.162108
21
126.969908
0
LINE
5
1A5
100
AcDbEntity
8
cut
6
ByLayer
62
256
370
-1
100
AcDbLine
10
120.162108
20
126.969908
11
122.697699
21
126.555818
0
ENDSEC
0
SECTION
2
OBJECTS
0
DICTIONARY
5
C
330
0
100
AcDbDictionary
281
1
3
ACAD_GROUP
350
D
0
DICTIONARY
5
D
330
C
100
AcDbDictionary
281
1
0
ENDSEC
0
EOF
