999
dxflib 2.2.0.0
  0
SECTION
  2
HEADER
  9
$ACADVER
  1
AC1015
  9
$HANDSEED
  5
FFFF
  9
$SNAPSTYLE
 70
0
  9
$SPLINESEGS
 70
8
  9
$DIMEXE
 40
1.25
  9
$PSVPSCALE
 40
1.0
  9
$LIMMAX
 10
420.0
 20
297.0
  9
$DIMSCALE
 40
1.0
  9
$DIMLUNIT
 70
2
  9
$INSBASE
 10
0.0
 20
0.0
 30
0.0
  9
$GRIDMODE
 70
0
  9
$INSUNITS
 70
4
  9
$DIMADEC
 70
0
  9
$DIMASZ
 40
2.5
  9
$DIMGAP
 40
0.625
  9
$DIMTXT
 40
2.5
  9
$TEXTSTYLE
  7
STANDARD
  9
$LIMMIN
 10
0.0
 20
0.0
  9
$DIMEXO
 40
0.625
  9
$LUPREC
 70
4
  9
$EXTMAX
 10
194.9664139999999861
 20
279.5157110000000102
 30
0.0
  9
$DIMTIH
 70
0
  9
$PINSBASE
 10
0.0
 20
0.0
 30
0.0
  9
$ORTHOMODE
 70
0
  9
$DIMAUNIT
 70
0
  9
$DWGCODEPAGE
  3
ANSI_1252
  9
$LTSCALE
 40
1.0
  9
$AUPREC
 70
2
  9
$PLIMMIN
 10
0.0
 20
0.0
  9
$LUNITS
 70
2
  9
$EXTMIN
 10
15.0334129999999995
 20
18.2587900000000012
 30
0.0
  9
$PLIMMAX
 10
210.0
 20
297.0
  9
$DIMTSZ
 40
0.0
  9
$DIMSTYLE
  2
Standard
  9
$AUNITS
 70
0
  0
ENDSEC
  0
SECTION
  2
TABLES
  0
TABLE
  2
VPORT
  5
8
100
AcDbSymbolTable
 70
1
  0
VPORT
  5
30
100
AcDbSymbolTableRecord
100
AcDbViewportTableRecord
  2
*Active
 70
0
 10
0.0
 20
0.0
 11
1.0
 21
1.0
 12
286.3055555555554861
 22
148.5
 13
0.0
 23
0.0
 14
10.0
 24
10.0
 15
10.0
 25
10.0
 16
0.0
 26
0.0
 36
1.0
 17
0.0
 27
0.0
 37
0.0
 40
297.0
 41
1.92798353909465
 42
50.0
 43
0.0
 44
0.0
 50
0.0
 51
0.0
 71
0
 72
100
 73
1
 74
3
 75
1
 76
1
 77
0
 78
0
281
0
 65
1
110
0.0
120
0.0
130
0.0
111
1.0
121
0.0
131
0.0
112
0.0
122
1.0
132
0.0
 79
0
146
0.0
  0
ENDTAB
  0
TABLE
  2
LTYPE
  5
5
100
AcDbSymbolTable
 70
21
  0
LTYPE
  5
14
100
AcDbSymbolTableRecord
100
AcDbLinetypeTableRecord
  2
ByBlock
 70
0
  3

 72
65
 73
0
 40
0.0
  0
LTYPE
  5
15
100
AcDbSymbolTableRecord
100
AcDbLinetypeTableRecord
  2
ByLayer
 70
0
  3

 72
65
 73
0
 40
0.0
  0
LTYPE
  5
16
100
AcDbSymbolTableRecord
100
AcDbLinetypeTableRecord
  2
CONTINUOUS
 70
0
  3
Solid line
 72
65
 73
0
 40
0.0
  0
LTYPE
  5
31
100
AcDbSymbolTableRecord
100
AcDbLinetypeTableRecord
  2
DOT
 70
0
  3
Dot . . . . . . . . . . . . . . . . . . . . . .
 72
65
 73
2
 40
6.3499999999999996
 49
0.0
 74
0
 49
-6.3499999999999996
 74
0
  0
LTYPE
  5
32
100
AcDbSymbolTableRecord
100
AcDbLinetypeTableRecord
  2
DOT2
 70
0
  3
Dot (.5x) .....................................
 72
65
 73
2
 40
3.1749999999999998
 49
0.0
 74
0
 49
-3.1749999999999998
 74
0
  0
LTYPE
  5
33
100
AcDbSymbolTableRecord
100
AcDbLinetypeTableRecord
  2
DOTX2
 70
0
  3
Dot (2x) .  .  .  .  .  .  .  .  .  .  .  .  .
 72
65
 73
2
 40
12.6999999999999993
 49
0.0
 74
0
 49
-12.6999999999999993
 74
0
  0
LTYPE
  5
34
100
AcDbSymbolTableRecord
100
AcDbLinetypeTableRecord
  2
DASHED
 70
0
  3
Dashed __ __ __ __ __ __ __ __ __ __ __ __ __ _
 72
65
 73
2
 40
19.0500000000000007
 49
12.6999999999999993
 74
0
 49
-6.3499999999999996
 74
0
  0
LTYPE
  5
35
100
AcDbSymbolTableRecord
100
AcDbLinetypeTableRecord
  2
DASHED2
 70
0
  3
Dashed (.5x) _ _ _ _ _ _ _ _ _ _ _ _ _ _ _ _ _
 72
65
 73
2
 40
9.5250000000000004
 49
6.3499999999999996
 74
0
 49
-3.1749999999999998
 74
0
  0
LTYPE
  5
36
100
AcDbSymbolTableRecord
100
AcDbLinetypeTableRecord
  2
DASHEDX2
 70
0
  3
Dashed (2x) ____  ____  ____  ____  ____  ___
 72
65
 73
2
 40
38.1000000000000014
 49
25.3999999999999986
 74
0
 49
-12.6999999999999993
 74
0
  0
LTYPE
  5
37
100
AcDbSymbolTableRecord
100
AcDbLinetypeTableRecord
  2
DASHDOT
 70
0
  3
Dash dot __ . __ . __ . __ . __ . __ . __ . __
 72
65
 73
4
 40
25.3999999999999986
 49
12.6999999999999993
 74
0
 49
-6.3499999999999996
 74
0
 49
0.0
 74
0
 49
-6.3499999999999996
 74
0
  0
LTYPE
  5
38
100
AcDbSymbolTableRecord
100
AcDbLinetypeTableRecord
  2
DASHDOT2
 70
0
  3
Dash dot (.5x) _._._._._._._._._._._._._._._.
 72
65
 73
4
 40
12.6999999999999993
 49
6.3499999999999996
 74
0
 49
-3.1749999999999998
 74
0
 49
0.0
 74
0
 49
-3.1749999999999998
 74
0
  0
LTYPE
  5
39
100
AcDbSymbolTableRecord
100
AcDbLinetypeTableRecord
  2
DASHDOTX2
 70
0
  3
Dash dot (2x) ____  .  ____  .  ____  .  ___
 72
65
 73
4
 40
50.7999999999999972
 49
25.3999999999999986
 74
0
 49
-12.6999999999999993
 74
0
 49
0.0
 74
0
 49
-12.6999999999999993
 74
0
  0
LTYPE
  5
3A
100
AcDbSymbolTableRecord
100
AcDbLinetypeTableRecord
  2
DIVIDE
 70
0
  3
Divide ____ . . ____ . . ____ . . ____ . . ____
 72
65
 73
6
 40
31.75
 49
12.6999999999999993
 74
0
 49
-6.3499999999999996
 74
0
 49
0.0
 74
0
 49
-6.3499999999999996
 74
0
 49
0.0
 74
0
 49
-6.3499999999999996
 74
0
  0
LTYPE
  5
3B
100
AcDbSymbolTableRecord
100
AcDbLinetypeTableRecord
  2
DIVIDE2
 70
0
  3
Divide (.5x) __..__..__..__..__..__..__..__.._
 72
65
 73
6
 40
15.875
 49
6.3499999999999996
 74
0
 49
-3.1749999999999998
 74
0
 49
0.0
 74
0
 49
-3.1749999999999998
 74
0
 49
0.0
 74
0
 49
-3.1749999999999998
 74
0
  0
LTYPE
  5
3C
100
AcDbSymbolTableRecord
100
AcDbLinetypeTableRecord
  2
DIVIDEX2
 70
0
  3
Divide (2x) ________  .  .  ________  .  .  _
 72
65
 73
6
 40
63.5
 49
25.3999999999999986
 74
0
 49
-12.6999999999999993
 74
0
 49
0.0
 74
0
 49
-12.6999999999999993
 74
0
 49
0.0
 74
0
 49
-12.6999999999999993
 74
0
  0
LTYPE
  5
3D
100
AcDbSymbolTableRecord
100
AcDbLinetypeTableRecord
  2
CENTER
 70
0
  3
Center ____ _ ____ _ ____ _ ____ _ ____ _ ____
 72
65
 73
4
 40
50.7999999999999972
 49
31.75
 74
0
 49
-6.3499999999999996
 74
0
 49
6.3499999999999996
 74
0
 49
-6.3499999999999996
 74
0
  0
LTYPE
  5
3E
100
AcDbSymbolTableRecord
100
AcDbLinetypeTableRecord
  2
CENTER2
 70
0
  3
Center (.5x) ___ _ ___ _ ___ _ ___ _ ___ _ ___
 72
65
 73
4
 40
28.5749999999999993
 49
19.0500000000000007
 74
0
 49
-3.1749999999999998
 74
0
 49
3.1749999999999998
 74
0
 49
-3.1749999999999998
 74
0
  0
LTYPE
  5
3F
100
AcDbSymbolTableRecord
100
AcDbLinetypeTableRecord
  2
CENTERX2
 70
0
  3
Center (2x) ________  __  ________  __  _____
 72
65
 73
4
 40
101.5999999999999943
 49
63.5
 74
0
 49
-12.6999999999999993
 74
0
 49
12.6999999999999993
 74
0
 49
-12.6999999999999993
 74
0
  0
LTYPE
  5
40
100
AcDbSymbolTableRecord
100
AcDbLinetypeTableRecord
  2
BORDER
 70
0
  3
Border __ __ . __ __ . __ __ . __ __ . __ __ .
 72
65
 73
6
 40
44.4500000000000028
 49
12.6999999999999993
 74
0
 49
-6.3499999999999996
 74
0
 49
12.6999999999999993
 74
0
 49
-6.3499999999999996
 74
0
 49
0.0
 74
0
 49
-6.3499999999999996
 74
0
  0
LTYPE
  5
41
100
AcDbSymbolTableRecord
100
AcDbLinetypeTableRecord
  2
BORDER2
 70
0
  3
Border (.5x) __.__.__.__.__.__.__.__.__.__.__.
 72
65
 73
6
 40
22.2250000000000014
 49
6.3499999999999996
 74
0
 49
-3.1749999999999998
 74
0
 49
6.3499999999999996
 74
0
 49
-3.1749999999999998
 74
0
 49
0.0
 74
0
 49
-3.1749999999999998
 74
0
  0
LTYPE
  5
42
100
AcDbSymbolTableRecord
100
AcDbLinetypeTableRecord
  2
BORDERX2
 70
0
  3
Border (2x) ____  ____  .  ____  ____  .  ___
 72
65
 73
6
 40
88.9000000000000057
 49
25.3999999999999986
 74
0
 49
-12.6999999999999993
 74
0
 49
25.3999999999999986
 74
0
 49
-12.6999999999999993
 74
0
 49
0.0
 74
0
 49
-12.6999999999999993
 74
0
  0
ENDTAB
  0
TABLE
  2
LAYER
  5
2
100
AcDbSymbolTable
 70
3
  0
LAYER
  5
10
100
AcDbSymbolTableRecord
100
AcDbLayerTableRecord
  2
0
 70
0
 62
7
  6
CONTINUOUS
290
1
370
-3
390
F
  0
LAYER
  5
43
100
AcDbSymbolTableRecord
100
AcDbLayerTableRecord
  2
2_pdfsam_CCTV_Security_Camera
 70
0
 62
7
  6
CONTINUOUS
290
1
370
-3
390
F
  0
LAYER
  5
44
100
AcDbSymbolTableRecord
100
AcDbLayerTableRecord
  2
cut
 70
0
 62
3
  6
CONTINUOUS
290
1
370
0
390
F
  0
ENDTAB
  0
TABLE
  2
STYLE
  5
3
100
AcDbSymbolTable
 70
1
  0
STYLE
  5
11
100
AcDbSymbolTableRecord
100
AcDbTextStyleTableRecord
  2
Standard
 70
0
 40
0.0
 41
0.75
 50
0.0
 71
0
 42
2.5
  3
txt
  4

  0
ENDTAB
  0
TABLE
  2
VIEW
  5
6
100
AcDbSymbolTable
 70
0
  0
ENDTAB
  0
TABLE
  2
UCS
  5
7
100
AcDbSymbolTable
 70
0
  0
ENDTAB
  0
TABLE
  2
APPID
  5
9
100
AcDbSymbolTable
 70
1
  0
APPID
  5
12
100
AcDbSymbolTableRecord
100
AcDbRegAppTableRecord
  2
ACAD
 70
0
  0
ENDTAB
  0
TABLE
  2
DIMSTYLE
  5
A
100
AcDbSymbolTable
 70
1
100
AcDbDimStyleTable
 71
0
  0
DIMSTYLE
105
27
100
AcDbSymbolTableRecord
100
AcDbDimStyleTableRecord
  2
Standard
 41
2.5
 42
0.625
 43
3.75
 44
1.25
 70
0
 73
0
 74
0
 77
1
 78
8
140
2.5
141
2.5
143
0.03937007874016
147
0.625
171
3
172
1
271
2
272
2
274
3
278
44
283
0
284
8
340
11
  0
ENDTAB
  0
TABLE
  2
BLOCK_RECORD
  5
1
100
AcDbSymbolTable
 70
1
  0
BLOCK_RECORD
  5
1F
100
AcDbSymbolTableRecord
100
AcDbBlockTableRecord
  2
*Model_Space
340
22
  0
BLOCK_RECORD
  5
1B
100
AcDbSymbolTableRecord
100
AcDbBlockTableRecord
  2
*Paper_Space
340
1E
  0
BLOCK_RECORD
  5
23
100
AcDbSymbolTableRecord
100
AcDbBlockTableRecord
  2
*Paper_Space0
340
26
  0
ENDTAB
  0
ENDSEC
  0
SECTION
  2
BLOCKS
  0
BLOCK
  5
20
100
AcDbEntity
  8
0
100
AcDbBlockBegin
  2
*Model_Space
 70
0
 10
0.0
 20
0.0
 30
0.0
  3
*Model_Space
  1

  0
ENDBLK
  5
21
100
AcDbEntity
  8
0
100
AcDbBlockEnd
  0
BLOCK
  5
1C
100
AcDbEntity
 67
1
  8
0
100
AcDbBlockBegin
  2
*Paper_Space
 70
0
 10
0.0
 20
0.0
 30
0.0
  3
*Paper_Space
  1

  0
ENDBLK
  5
1D
100
AcDbEntity
 67
1
  8
0
100
AcDbBlockEnd
  0
BLOCK
  5
24
100
AcDbEntity
  8
0
100
AcDbBlockBegin
  2
*Paper_Space0
 70
0
 10
0.0
 20
0.0
 30
0.0
  3
*Paper_Space0
  1

  0
ENDBLK
  5
25
100
AcDbEntity
  8
0
100
AcDbBlockEnd
  0
ENDSEC
  0
SECTION
  2
ENTITIES
  0
LWPOLYLINE
  5
45
  8
2_pdfsam_CCTV_Security_Camera
 62
1
370
-1
  6
ByLayer
100
AcDbEntity
100
AcDbPolyline
 90
2
 70
0
 10
76.3948039999999935
 20
123.2216090000000008
 10
76.3948039999999935
 20
123.2216090000000008
  0
LWPOLYLINE
  5
46
  8
2_pdfsam_CCTV_Security_Camera
 62
1
370
-1
  6
ByLayer
100
AcDbEntity
100
AcDbPolyline
 90
5
 70
0
 10
64.0334000000000003
 20
20.2588989999999995
 10
64.8548080000000056
 20
18.258896
 10
65.6761099999999942
 20
20.2588989999999995
 10
64.0334000000000003
 20
20.2588989999999995
 10
64.0334000000000003
 20
20.2588989999999995
  0
LWPOLYLINE
  5
47
  8
2_pdfsam_CCTV_Security_Camera
 62
1
370
-1
  6
ByLayer
100
AcDbEntity
100
AcDbPolyline
 90
5
 70
0
 10
65.6761099999999942
 20
26.6005029999999998
 10
64.8548080000000056
 20
28.6005059999999993
 10
64.0334000000000003
 20
26.6005029999999998
 10
65.6761099999999942
 20
26.6005029999999998
 10
65.6761099999999942
 20
26.6005029999999998
  0
LWPOLYLINE
  5
48
  8
2_pdfsam_CCTV_Security_Camera
 62
1
370
-1
  6
ByLayer
100
AcDbEntity
100
AcDbPolyline
 90
6
 70
0
 10
64.0334000000000003
 20
26.6005029999999998
 10
62.0333970000000008
 20
24.6005000000000003
 10
62.0333970000000008
 20
22.2589019999999991
 10
64.0334000000000003
 20
20.2588989999999995
 10
64.0334000000000003
 20
26.6005029999999998
 10
64.0334000000000003
 20
26.6005029999999998
  0
LWPOLYLINE
  5
49
  8
2_pdfsam_CCTV_Security_Camera
 62
1
370
-1
  6
ByLayer
100
AcDbEntity
100
AcDbPolyline
 90
5
 70
0
 10
65.6761099999999942
 20
20.2588989999999995
 10
66.497517000000002
 20
18.258896
 10
67.3188899999999961
 20
20.2588989999999995
 10
65.6761099999999942
 20
20.2588989999999995
 10
65.6761099999999942
 20
20.2588989999999995
  0
LWPOLYLINE
  5
4A
  8
2_pdfsam_CCTV_Security_Camera
 62
1
370
-1
  6
ByLayer
100
AcDbEntity
100
AcDbPolyline
 90
5
 70
0
 10
67.3188899999999961
 20
26.6005029999999998
 10
66.497517000000002
 20
28.6005059999999993
 10
65.6761099999999942
 20
26.6005029999999998
 10
67.3188899999999961
 20
26.6005029999999998
 10
67.3188899999999961
 20
26.6005029999999998
  0
LWPOLYLINE
  5
4B
  8
2_pdfsam_CCTV_Security_Camera
 62
1
370
-1
  6
ByLayer
100
AcDbEntity
100
AcDbPolyline
 90
5
 70
0
 10
67.3188899999999961
 20
20.2588989999999995
 10
68.140191999999999
 20
18.258896
 10
68.9616000000000042
 20
20.2588989999999995
 10
67.3188899999999961
 20
20.2588989999999995
 10
67.3188899999999961
 20
20.2588989999999995
  0
LWPOLYLINE
  5
4C
  8
2_pdfsam_CCTV_Security_Camera
 62
1
370
-1
  6
ByLayer
100
AcDbEntity
100
AcDbPolyline
 90
5
 70
0
 10
68.9616000000000042
 20
26.6005029999999998
 10
68.140191999999999
 20
28.6005059999999993
 10
67.3188899999999961
 20
26.6005029999999998
 10
68.9616000000000042
 20
26.6005029999999998
 10
68.9616000000000042
 20
26.6005029999999998
  0
LWPOLYLINE
  5
4D
  8
2_pdfsam_CCTV_Security_Camera
 62
1
370
-1
  6
ByLayer
100
AcDbEntity
100
AcDbPolyline
 90
5
 70
0
 10
68.9616000000000042
 20
20.2588989999999995
 10
69.7830069999999978
 20
18.258896
 10
70.6043090000000007
 20
20.2588989999999995
 10
68.9616000000000042
 20
20.2588989999999995
 10
68.9616000000000042
 20
20.2588989999999995
  0
LWPOLYLINE
  5
4E
  8
2_pdfsam_CCTV_Security_Camera
 62
1
370
-1
  6
ByLayer
100
AcDbEntity
100
AcDbPolyline
 90
5
 70
0
 10
70.6043090000000007
 20
26.6005029999999998
 10
69.7830069999999978
 20
28.6005059999999993
 10
68.9616000000000042
 20
26.6005029999999998
 10
70.6043090000000007
 20
26.6005029999999998
 10
70.6043090000000007
 20
26.6005029999999998
  0
LWPOLYLINE
  5
4F
  8
2_pdfsam_CCTV_Security_Camera
 62
1
370
-1
  6
ByLayer
100
AcDbEntity
100
AcDbPolyline
 90
5
 70
0
 10
70.6043090000000007
 20
20.2588989999999995
 10
71.4257170000000059
 20
18.258896
 10
72.2469839999999976
 20
20.2588989999999995
 10
70.6043090000000007
 20
20.2588989999999995
 10
70.6043090000000007
 20
20.2588989999999995
  0
LWPOLYLINE
  5
50
  8
2_pdfsam_CCTV_Security_Camera
 62
1
370
-1
  6
ByLayer
100
AcDbEntity
100
AcDbPolyline
 90
5
 70
0
 10
72.2469839999999976
 20
26.6005029999999998
 10
71.4257170000000059
 20
28.6005059999999993
 10
70.6043090000000007
 20
26.6005029999999998
 10
72.2469839999999976
 20
26.6005029999999998
 10
72.2469839999999976
 20
26.6005029999999998
  0
LWPOLYLINE
  5
51
  8
2_pdfsam_CCTV_Security_Camera
 62
1
370
-1
  6
ByLayer
100
AcDbEntity
100
AcDbPolyline
 90
5
 70
0
 10
72.2469839999999976
 20
20.2588989999999995
 10
73.0683920000000029
 20
18.258896
 10
73.8896940000000058
 20
20.2588989999999995
 10
72.2469839999999976
 20
20.2588989999999995
 10
72.2469839999999976
 20
20.2588989999999995
  0
LWPOLYLINE
  5
52
  8
2_pdfsam_CCTV_Security_Camera
 62
1
370
-1
  6
ByLayer
100
AcDbEntity
100
AcDbPolyline
 90
5
 70
0
 10
73.8896940000000058
 20
26.6005029999999998
 10
73.0683920000000029
 20
28.6005059999999993
 10
72.2469839999999976
 20
26.6005029999999998
 10
73.8896940000000058
 20
26.6005029999999998
 10
73.8896940000000058
 20
26.6005029999999998
  0
LWPOLYLINE
  5
53
  8
2_pdfsam_CCTV_Security_Camera
 62
1
370
-1
  6
ByLayer
100
AcDbEntity
100
AcDbPolyline
 90
5
 70
0
 10
73.8896940000000058
 20
20.2588989999999995
 10
74.7111009999999993
 20
18.258896
 10
75.5324030000000022
 20
20.2588989999999995
 10
73.8896940000000058
 20
20.2588989999999995
 10
73.8896940000000058
 20
20.2588989999999995
  0
LWPOLYLINE
  5
54
  8
2_pdfsam_CCTV_Security_Camera
 62
1
370
-1
  6
ByLayer
100
AcDbEntity
100
AcDbPolyline
 90
5
 70
0
 10
75.5324030000000022
 20
20.2588989999999995
 10
76.3538109999999932
 20
18.258896
 10
77.1751129999999961
 20
20.2588989999999995
 10
75.5324030000000022
 20
20.2588989999999995
 10
75.5324030000000022
 20
20.2588989999999995
  0
LWPOLYLINE
  5
55
  8
2_pdfsam_CCTV_Security_Camera
 62
1
370
-1
  6
ByLayer
100
AcDbEntity
100
AcDbPolyline
 90
5
 70
0
 10
77.1751840000000016
 20
26.6005029999999998
 10
76.3538109999999932
 20
28.6005059999999993
 10
75.5325090000000046
 20
26.6005029999999998
 10
77.1751840000000016
 20
26.6005029999999998
 10
77.1751840000000016
 20
26.6005029999999998
  0
LWPOLYLINE
  5
56
  8
2_pdfsam_CCTV_Security_Camera
 62
1
370
-1
  6
ByLayer
100
AcDbEntity
100
AcDbPolyline
 90
5
 70
0
 10
75.5325090000000046
 20
26.6005029999999998
 10
74.7111009999999993
 20
28.6005059999999993
 10
73.8896940000000058
 20
26.6005029999999998
 10
75.5325090000000046
 20
26.6005029999999998
 10
75.5325090000000046
 20
26.6005029999999998
  0
LWPOLYLINE
  5
57
  8
2_pdfsam_CCTV_Security_Camera
 62
1
370
-1
  6
ByLayer
100
AcDbEntity
100
AcDbPolyline
 90
5
 70
0
 10
77.1751129999999961
 20
20.2588989999999995
 10
77.9964860000000044
 20
18.258896
 10
78.817892999999998
 20
20.2588989999999995
 10
77.1751129999999961
 20
20.2588989999999995
 10
77.1751129999999961
 20
20.2588989999999995
  0
LWPOLYLINE
  5
58
  8
2_pdfsam_CCTV_Security_Camera
 62
1
370
-1
  6
ByLayer
100
AcDbEntity
100
AcDbPolyline
 90
5
 70
0
 10
78.817892999999998
 20
26.6005029999999998
 10
77.9964860000000044
 20
28.6005059999999993
 10
77.1751840000000016
 20
26.6005029999999998
 10
78.817892999999998
 20
26.6005029999999998
 10
78.817892999999998
 20
26.6005029999999998
  0
LWPOLYLINE
  5
59
  8
2_pdfsam_CCTV_Security_Camera
 62
1
370
-1
  6
ByLayer
100
AcDbEntity
100
AcDbPolyline
 90
5
 70
0
 10
78.817892999999998
 20
20.2588989999999995
 10
79.6391950000000008
 20
18.2587900000000012
 10
80.4606030000000061
 20
20.2588989999999995
 10
78.817892999999998
 20
20.2588989999999995
 10
78.817892999999998
 20
20.2588989999999995
  0
LWPOLYLINE
  5
5A
  8
2_pdfsam_CCTV_Security_Camera
 62
1
370
-1
  6
ByLayer
100
AcDbEntity
100
AcDbPolyline
 90
5
 70
0
 10
80.4606030000000061
 20
20.2588989999999995
 10
81.2820109999999971
 20
18.2587900000000012
 10
82.103313
 20
20.2587930000000007
 10
80.4606030000000061
 20
20.2588989999999995
 10
80.4606030000000061
 20
20.2588989999999995
  0
LWPOLYLINE
  5
5B
  8
2_pdfsam_CCTV_Security_Camera
 62
1
370
-1
  6
ByLayer
100
AcDbEntity
100
AcDbPolyline
 90
5
 70
0
 10
82.103313
 20
26.6005029999999998
 10
81.2820109999999971
 20
28.6005059999999993
 10
80.4606030000000061
 20
26.6005029999999998
 10
82.103313
 20
26.6005029999999998
 10
82.103313
 20
26.6005029999999998
  0
LWPOLYLINE
  5
5C
  8
2_pdfsam_CCTV_Security_Camera
 62
1
370
-1
  6
ByLayer
100
AcDbEntity
100
AcDbPolyline
 90
5
 70
0
 10
80.4606030000000061
 20
26.6005029999999998
 10
79.6391950000000008
 20
28.6005059999999993
 10
78.817892999999998
 20
26.6005029999999998
 10
80.4606030000000061
 20
26.6005029999999998
 10
80.4606030000000061
 20
26.6005029999999998
  0
LWPOLYLINE
  5
5D
  8
2_pdfsam_CCTV_Security_Camera
 62
1
370
-1
  6
ByLayer
100
AcDbEntity
100
AcDbPolyline
 90
5
 70
0
 10
82.103313
 20
20.2587930000000007
 10
82.9246849999999966
 20
18.2587900000000012
 10
83.7460930000000019
 20
20.2587930000000007
 10
82.103313
 20
20.2587930000000007
 10
82.103313
 20
20.2587930000000007
  0
LWPOLYLINE
  5
5E
  8
2_pdfsam_CCTV_Security_Camera
 62
1
370
-1
  6
ByLayer
100
AcDbEntity
100
AcDbPolyline
 90
5
 70
0
 10
83.7460930000000019
 20
26.6005029999999998
 10
82.9246849999999966
 20
28.6005059999999993
 10
82.103313
 20
26.6005029999999998
 10
83.7460930000000019
 20
26.6005029999999998
 10
83.7460930000000019
 20
26.6005029999999998
  0
LWPOLYLINE
  5
5F
  8
2_pdfsam_CCTV_Security_Camera
 62
1
370
-1
  6
ByLayer
100
AcDbEntity
100
AcDbPolyline
 90
5
 70
0
 10
83.7460930000000019
 20
20.2587930000000007
 10
84.5673950000000048
 20
18.2587900000000012
 10
85.3888029999999958
 20
20.2587930000000007
 10
83.7460930000000019
 20
20.2587930000000007
 10
83.7460930000000019
 20
20.2587930000000007
  0
LWPOLYLINE
  5
60
  8
2_pdfsam_CCTV_Security_Camera
 62
1
370
-1
  6
ByLayer
100
AcDbEntity
100
AcDbPolyline
 90
5
 70
0
 10
85.3888029999999958
 20
26.6005029999999998
 10
84.5673950000000048
 20
28.6005059999999993
 10
83.7460930000000019
 20
26.6005029999999998
 10
85.3888029999999958
 20
26.6005029999999998
 10
85.3888029999999958
 20
26.6005029999999998
  0
LWPOLYLINE
  5
61
  8
2_pdfsam_CCTV_Security_Camera
 62
1
370
-1
  6
ByLayer
100
AcDbEntity
100
AcDbPolyline
 90
5
 70
0
 10
85.3888029999999958
 20
20.2587930000000007
 10
86.2101049999999987
 20
18.2587900000000012
 10
87.0315120000000064
 20
20.2587930000000007
 10
85.3888029999999958
 20
20.2587930000000007
 10
85.3888029999999958
 20
20.2587930000000007
  0
LWPOLYLINE
  5
62
  8
2_pdfsam_CCTV_Security_Camera
 62
1
370
-1
  6
ByLayer
100
AcDbEntity
100
AcDbPolyline
 90
5
 70
0
 10
87.0315120000000064
 20
26.6005029999999998
 10
86.210211000000001
 20
28.6005059999999993
 10
85.3888029999999958
 20
26.6005029999999998
 10
87.0315120000000064
 20
26.6005029999999998
 10
87.0315120000000064
 20
26.6005029999999998
  0
LWPOLYLINE
  5
63
  8
2_pdfsam_CCTV_Security_Camera
 62
1
370
-1
  6
ByLayer
100
AcDbEntity
100
AcDbPolyline
 90
5
 70
0
 10
87.0315120000000064
 20
20.2587930000000007
 10
87.8528139999999951
 20
18.2587900000000012
 10
88.6741870000000034
 20
20.2587930000000007
 10
87.0315130000000039
 20
20.2587930000000007
 10
87.0315120000000064
 20
20.2587930000000007
  0
LWPOLYLINE
  5
64
  8
2_pdfsam_CCTV_Security_Camera
 62
1
370
-1
  6
ByLayer
100
AcDbEntity
100
AcDbPolyline
 90
5
 70
0
 10
88.6741870000000034
 20
26.6005029999999998
 10
87.8528850000000006
 20
28.6005059999999993
 10
87.0315120000000064
 20
26.6005029999999998
 10
88.6741870000000034
 20
26.6005029999999998
 10
88.6741870000000034
 20
26.6005029999999998
  0
LWPOLYLINE
  5
65
  8
2_pdfsam_CCTV_Security_Camera
 62
1
370
-1
  6
ByLayer
100
AcDbEntity
100
AcDbPolyline
 90
5
 70
0
 10
88.6741870000000034
 20
20.2587930000000007
 10
89.4955949999999945
 20
18.2587900000000012
 10
90.3168969999999973
 20
20.2587930000000007
 10
88.6741870000000034
 20
20.2587930000000007
 10
88.6741870000000034
 20
20.2587930000000007
  0
LWPOLYLINE
  5
66
  8
2_pdfsam_CCTV_Security_Camera
 62
1
370
-1
  6
ByLayer
100
AcDbEntity
100
AcDbPolyline
 90
5
 70
0
 10
90.3168969999999973
 20
26.6005029999999998
 10
89.4955949999999945
 20
28.6005059999999993
 10
88.6741870000000034
 20
26.6005029999999998
 10
90.3168969999999973
 20
26.6005029999999998
 10
90.3168969999999973
 20
26.6005029999999998
  0
LWPOLYLINE
  5
67
  8
2_pdfsam_CCTV_Security_Camera
 62
1
370
-1
  6
ByLayer
100
AcDbEntity
100
AcDbPolyline
 90
5
 70
0
 10
90.3168969999999973
 20
20.2587930000000007
 10
91.1383040000000051
 20
18.2587900000000012
 10
91.9596059999999937
 20
20.2587930000000007
 10
90.3168969999999973
 20
20.2587930000000007
 10
90.3168969999999973
 20
20.2587930000000007
  0
LWPOLYLINE
  5
68
  8
2_pdfsam_CCTV_Security_Camera
 62
1
370
-1
  6
ByLayer
100
AcDbEntity
100
AcDbPolyline
 90
5
 70
0
 10
91.9596059999999937
 20
26.6005029999999998
 10
91.1383040000000051
 20
28.6005059999999993
 10
90.3168969999999973
 20
26.6005029999999998
 10
91.9596059999999937
 20
26.6005029999999998
 10
91.9596059999999937
 20
26.6005029999999998
  0
LWPOLYLINE
  5
69
  8
2_pdfsam_CCTV_Security_Camera
 62
1
370
-1
  6
ByLayer
100
AcDbEntity
100
AcDbPolyline
 90
5
 70
0
 10
91.9596059999999937
 20
20.2587930000000007
 10
92.781013999999999
 20
18.2587900000000012
 10
93.6023160000000018
 20
20.2587930000000007
 10
91.9596059999999937
 20
20.2587930000000007
 10
91.9596059999999937
 20
20.2587930000000007
  0
LWPOLYLINE
  5
6A
  8
2_pdfsam_CCTV_Security_Camera
 62
1
370
-1
  6
ByLayer
100
AcDbEntity
100
AcDbPolyline
 90
5
 70
0
 10
93.6023160000000018
 20
26.6005029999999998
 10
92.781013999999999
 20
28.6005059999999993
 10
91.9596059999999937
 20
26.6005029999999998
 10
93.6023160000000018
 20
26.6005029999999998
 10
93.6023160000000018
 20
26.6005029999999998
  0
LWPOLYLINE
  5
6B
  8
2_pdfsam_CCTV_Security_Camera
 62
1
370
-1
  6
ByLayer
100
AcDbEntity
100
AcDbPolyline
 90
5
 70
0
 10
93.6023160000000018
 20
20.2587930000000007
 10
94.423688999999996
 20
18.2587900000000012
 10
95.2450960000000038
 20
20.2587930000000007
 10
93.6023160000000018
 20
20.2587930000000007
 10
93.6023160000000018
 20
20.2587930000000007
  0
LWPOLYLINE
  5
6C
  8
2_pdfsam_CCTV_Security_Camera
 62
1
370
-1
  6
ByLayer
100
AcDbEntity
100
AcDbPolyline
 90
5
 70
0
 10
95.2450960000000038
 20
26.6005029999999998
 10
94.423688999999996
 20
28.6005059999999993
 10
93.6023160000000018
 20
26.6005029999999998
 10
95.2450960000000038
 20
26.6005029999999998
 10
95.2450960000000038
 20
26.6005029999999998
  0
LWPOLYLINE
  5
6D
  8
2_pdfsam_CCTV_Security_Camera
 62
1
370
-1
  6
ByLayer
100
AcDbEntity
100
AcDbPolyline
 90
5
 70
0
 10
95.2450960000000038
 20
20.2587930000000007
 10
96.0663980000000066
 20
18.2587900000000012
 10
96.8878059999999977
 20
20.2587930000000007
 10
95.2450960000000038
 20
20.2587930000000007
 10
95.2450960000000038
 20
20.2587930000000007
  0
LWPOLYLINE
  5
6E
  8
2_pdfsam_CCTV_Security_Camera
 62
1
370
-1
  6
ByLayer
100
AcDbEntity
100
AcDbPolyline
 90
5
 70
0
 10
96.8878059999999977
 20
20.2587930000000007
 10
97.7092140000000029
 20
18.2587900000000012
 10
98.5305160000000058
 20
20.2587930000000007
 10
96.8878059999999977
 20
20.2587930000000007
 10
96.8878059999999977
 20
20.2587930000000007
  0
LWPOLYLINE
  5
6F
  8
2_pdfsam_CCTV_Security_Camera
 62
1
370
-1
  6
ByLayer
100
AcDbEntity
100
AcDbPolyline
 90
5
 70
0
 10
98.5305160000000058
 20
26.6005029999999998
 10
97.7092140000000029
 20
28.6005059999999993
 10
96.8878059999999977
 20
26.6005029999999998
 10
98.5305160000000058
 20
26.6005029999999998
 10
98.5305160000000058
 20
26.6005029999999998
  0
LWPOLYLINE
  5
70
  8
2_pdfsam_CCTV_Security_Camera
 62
1
370
-1
  6
ByLayer
100
AcDbEntity
100
AcDbPolyline
 90
5
 70
0
 10
96.8878059999999977
 20
26.6005029999999998
 10
96.0663980000000066
 20
28.6005059999999993
 10
95.2450960000000038
 20
26.6005029999999998
 10
96.8878059999999977
 20
26.6005029999999998
 10
96.8878059999999977
 20
26.6005029999999998
  0
LWPOLYLINE
  5
71
  8
2_pdfsam_CCTV_Security_Camera
 62
1
370
-1
  6
ByLayer
100
AcDbEntity
100
AcDbPolyline
 90
5
 70
0
 10
100.1731900000000053
 20
20.2587930000000007
 10
100.9945979999999963
 20
18.2587900000000012
 10
101.8160060000000016
 20
20.2587930000000007
 10
100.1731900000000053
 20
20.2587930000000007
 10
100.1731900000000053
 20
20.2587930000000007
  0
LWPOLYLINE
  5
72
  8
2_pdfsam_CCTV_Security_Camera
 62
1
370
-1
  6
ByLayer
100
AcDbEntity
100
AcDbPolyline
 90
5
 70
0
 10
101.8160060000000016
 20
26.6005029999999998
 10
100.9945979999999963
 20
28.6005059999999993
 10
100.1732959999999935
 20
26.6005029999999998
 10
101.8160060000000016
 20
26.6005029999999998
 10
101.8160060000000016
 20
26.6005029999999998
  0
LWPOLYLINE
  5
73
  8
2_pdfsam_CCTV_Security_Camera
 62
1
370
-1
  6
ByLayer
100
AcDbEntity
100
AcDbPolyline
 90
5
 70
0
 10
101.8160060000000016
 20
20.2587930000000007
 10
102.6373080000000044
 20
18.2587900000000012
 10
103.4587159999999955
 20
20.2587930000000007
 10
101.8160060000000016
 20
20.2587930000000007
 10
101.8160060000000016
 20
20.2587930000000007
  0
LWPOLYLINE
  5
74
  8
2_pdfsam_CCTV_Security_Camera
 62
1
370
-1
  6
ByLayer
100
AcDbEntity
100
AcDbPolyline
 90
5
 70
0
 10
103.4587159999999955
 20
20.2587930000000007
 10
104.2800170000000008
 20
18.2587900000000012
 10
105.101389999999995
 20
20.2587930000000007
 10
103.4587159999999955
 20
20.2587930000000007
 10
103.4587159999999955
 20
20.2587930000000007
  0
LWPOLYLINE
  5
75
  8
2_pdfsam_CCTV_Security_Camera
 62
1
370
-1
  6
ByLayer
100
AcDbEntity
100
AcDbPolyline
 90
5
 70
0
 10
105.101389999999995
 20
26.6005029999999998
 10
104.2800170000000008
 20
28.6005059999999993
 10
103.4587159999999955
 20
26.6005029999999998
 10
105.101389999999995
 20
26.6005029999999998
 10
105.101389999999995
 20
26.6005029999999998
  0
LWPOLYLINE
  5
76
  8
2_pdfsam_CCTV_Security_Camera
 62
1
370
-1
  6
ByLayer
100
AcDbEntity
100
AcDbPolyline
 90
5
 70
0
 10
103.4587159999999955
 20
26.6005029999999998
 10
102.6373080000000044
 20
28.6005059999999993
 10
101.8160060000000016
 20
26.6005029999999998
 10
103.4587159999999955
 20
26.6005029999999998
 10
103.4587159999999955
 20
26.6005029999999998
  0
LWPOLYLINE
  5
77
  8
2_pdfsam_CCTV_Security_Camera
 62
1
370
-1
  6
ByLayer
100
AcDbEntity
100
AcDbPolyline
 90
5
 70
0
 10
100.1732959999999935
 20
26.6005029999999998
 10
99.3518880000000024
 20
28.6005059999999993
 10
98.5305160000000058
 20
26.6005029999999998
 10
100.1732959999999935
 20
26.6005029999999998
 10
100.1732959999999935
 20
26.6005029999999998
  0
LWPOLYLINE
  5
78
  8
2_pdfsam_CCTV_Security_Camera
 62
1
370
-1
  6
ByLayer
100
AcDbEntity
100
AcDbPolyline
 90
5
 70
0
 10
98.5305160000000058
 20
20.2587930000000007
 10
99.3518880000000024
 20
18.2587900000000012
 10
100.1731900000000053
 20
20.2587930000000007
 10
98.5305160000000058
 20
20.2587930000000007
 10
98.5305160000000058
 20
20.2587930000000007
  0
LWPOLYLINE
  5
79
  8
2_pdfsam_CCTV_Security_Camera
 62
1
370
-1
  6
ByLayer
100
AcDbEntity
100
AcDbPolyline
 90
5
 70
0
 10
105.101389999999995
 20
20.2587930000000007
 10
105.9226919999999978
 20
18.2587900000000012
 10
106.7441000000000031
 20
20.2587930000000007
 10
105.101389999999995
 20
20.2587930000000007
 10
105.101389999999995
 20
20.2587930000000007
  0
LWPOLYLINE
  5
7A
  8
2_pdfsam_CCTV_Security_Camera
 62
1
370
-1
  6
ByLayer
100
AcDbEntity
100
AcDbPolyline
 90
5
 70
0
 10
106.7441000000000031
 20
26.6005029999999998
 10
105.9226919999999978
 20
28.6005059999999993
 10
105.101389999999995
 20
26.6005029999999998
 10
106.7441000000000031
 20
26.6005029999999998
 10
106.7441000000000031
 20
26.6005029999999998
  0
LWPOLYLINE
  5
7B
  8
2_pdfsam_CCTV_Security_Camera
 62
1
370
-1
  6
ByLayer
100
AcDbEntity
100
AcDbPolyline
 90
5
 70
0
 10
106.7441000000000031
 20
20.2587930000000007
 10
107.5655079999999941
 20
18.2587900000000012
 10
108.3868089999999995
 20
20.2587930000000007
 10
106.7441000000000031
 20
20.2587930000000007
 10
106.7441000000000031
 20
20.2587930000000007
  0
LWPOLYLINE
  5
7C
  8
2_pdfsam_CCTV_Security_Camera
 62
1
370
-1
  6
ByLayer
100
AcDbEntity
100
AcDbPolyline
 90
5
 70
0
 10
108.3868089999999995
 20
26.6005029999999998
 10
107.5655079999999941
 20
28.6005059999999993
 10
106.7441000000000031
 20
26.6005029999999998
 10
108.3868089999999995
 20
26.6005029999999998
 10
108.3868089999999995
 20
26.6005029999999998
  0
LWPOLYLINE
  5
7D
  8
2_pdfsam_CCTV_Security_Camera
 62
1
370
-1
  6
ByLayer
100
AcDbEntity
100
AcDbPolyline
 90
5
 70
0
 10
108.3868089999999995
 20
20.2587930000000007
 10
109.2082170000000048
 20
18.2587900000000012
 10
110.0294839999999965
 20
20.2587930000000007
 10
108.3868089999999995
 20
20.2587930000000007
 10
108.3868089999999995
 20
20.2587930000000007
  0
LWPOLYLINE
  5
7E
  8
2_pdfsam_CCTV_Security_Camera
 62
1
370
-1
  6
ByLayer
100
AcDbEntity
100
AcDbPolyline
 90
5
 70
0
 10
110.0294839999999965
 20
20.2587930000000007
 10
110.8508920000000018
 20
18.2587900000000012
 10
111.6722989999999953
 20
20.2587930000000007
 10
110.0294839999999965
 20
20.2587930000000007
 10
110.0294839999999965
 20
20.2587930000000007
  0
LWPOLYLINE
  5
7F
  8
2_pdfsam_CCTV_Security_Camera
 62
1
370
-1
  6
ByLayer
100
AcDbEntity
100
AcDbPolyline
 90
5
 70
0
 10
111.6722989999999953
 20
26.6005029999999998
 10
110.8508920000000018
 20
28.6005059999999993
 10
110.0294839999999965
 20
26.6005029999999998
 10
111.6722989999999953
 20
26.6005029999999998
 10
111.6722989999999953
 20
26.6005029999999998
  0
LWPOLYLINE
  5
80
  8
2_pdfsam_CCTV_Security_Camera
 62
1
370
-1
  6
ByLayer
100
AcDbEntity
100
AcDbPolyline
 90
5
 70
0
 10
110.0294839999999965
 20
26.6005029999999998
 10
109.2082170000000048
 20
28.6005059999999993
 10
108.3868089999999995
 20
26.6005029999999998
 10
110.0294839999999965
 20
26.6005029999999998
 10
110.0294839999999965
 20
26.6005029999999998
  0
LWPOLYLINE
  5
81
  8
2_pdfsam_CCTV_Security_Camera
 62
1
370
-1
  6
ByLayer
100
AcDbEntity
100
AcDbPolyline
 90
5
 70
0
 10
111.6722989999999953
 20
20.2587930000000007
 10
112.4936009999999982
 20
18.2587900000000012
 10
113.3150090000000034
 20
20.2587930000000007
 10
111.6722989999999953
 20
20.2587930000000007
 10
111.6722989999999953
 20
20.2587930000000007
  0
LWPOLYLINE
  5
82
  8
2_pdfsam_CCTV_Security_Camera
 62
1
370
-1
  6
ByLayer
100
AcDbEntity
100
AcDbPolyline
 90
5
 70
0
 10
113.3150090000000034
 20
26.6005029999999998
 10
112.4936009999999982
 20
28.6005059999999993
 10
111.6722989999999953
 20
26.6005029999999998
 10
113.3150090000000034
 20
26.6005029999999998
 10
113.3150090000000034
 20
26.6005029999999998
  0
LWPOLYLINE
  5
83
  8
2_pdfsam_CCTV_Security_Camera
 62
1
370
-1
  6
ByLayer
100
AcDbEntity
100
AcDbPolyline
 90
65
 70
0
 10
35.4933959999999971
 20
71.600482999999997
 10
34.5968110000000024
 20
71.600482999999997
 10
33.7000850000000014
 20
71.600482999999997
 10
32.8034999999999997
 20
71.600482999999997
 10
31.9068100000000001
 20
71.600482999999997
 10
31.0101900000000015
 20
71.600482999999997
 10
30.1134990000000009
 20
71.600482999999997
 10
29.2169139999999992
 20
71.600482999999997
 10
28.3201889999999992
 20
71.600482999999997
 10
27.423604000000001
 20
71.600482999999997
 10
26.5269130000000004
 20
71.600482999999997
 10
25.6301880000000004
 20
71.600482999999997
 10
24.7336029999999987
 20
71.6004130000000032
 10
23.8369120000000017
 20
71.6004130000000032
 10
22.9402919999999995
 20
71.6004130000000032
 10
22.0436019999999999
 20
71.6004130000000032
 10
22.0448009999999996
 20
22.4845030000000001
 10
22.9413860000000014
 20
22.4845030000000001
 10
23.8381119999999989
 20
22.4845030000000001
 10
24.7346959999999996
 20
22.484608999999999
 10
25.6313870000000001
 20
22.484608999999999
 10
26.5280069999999988
 20
22.484608999999999
 10
27.4246979999999994
 20
22.484608999999999
 10
28.3213879999999989
 20
22.484608999999999
 10
29.2180080000000011
 20
22.4847150000000013
 10
30.1146990000000017
 20
22.4847150000000013
 10
31.0106129999999993
 20
22.4847150000000013
 10
31.0112829999999988
 20
22.4847150000000013
 10
31.9065979999999989
 20
22.484608999999999
 10
32.8032889999999995
 20
22.484608999999999
 10
33.6999089999999981
 20
22.484608999999999
 10
34.5965989999999977
 20
22.484608999999999
 10
35.4931839999999994
 20
22.484608999999999
 10
36.3899100000000004
 20
22.484608999999999
 10
37.2864939999999976
 20
22.484608999999999
 10
38.1831850000000017
 20
22.484608999999999
 10
39.0799110000000027
 20
22.484608999999999
 10
39.9764959999999974
 20
22.484608999999999
 10
40.8731859999999969
 20
22.484608999999999
 10
41.7698060000000027
 20
22.484608999999999
 10
42.6664969999999997
 20
22.484608999999999
 10
43.5631169999999983
 20
22.484608999999999
 10
44.4598069999999979
 20
22.484608999999999
 10
45.356498000000002
 20
22.484608999999999
 10
46.2530819999999991
 20
22.484608999999999
 10
47.1498080000000002
 20
22.484608999999999
 10
48.0463930000000019
 20
22.484608999999999
 10
48.9430839999999989
 20
22.484608999999999
 10
48.9430839999999989
 20
71.600482999999997
 10
48.0463930000000019
 20
71.600482999999997
 10
47.1498080000000002
 20
71.600482999999997
 10
46.2530819999999991
 20
71.600482999999997
 10
45.356498000000002
 20
71.600482999999997
 10
44.4598069999999979
 20
71.600482999999997
 10
43.5631869999999992
 20
71.600482999999997
 10
42.6664969999999997
 20
71.6004130000000032
 10
41.7699119999999979
 20
71.6004130000000032
 10
40.8731859999999969
 20
71.6004130000000032
 10
39.9766010000000023
 20
71.6004130000000032
 10
39.0800869999999989
 20
71.600482999999997
 10
38.1833969999999994
 20
71.600482999999997
 10
37.2868119999999976
 20
71.600482999999997
 10
36.3900859999999966
 20
71.600482999999997
 10
35.4933959999999971
 20
71.600482999999997
 10
35.4933959999999971
 20
71.600482999999997
  0
LWPOLYLINE
  5
84
  8
2_pdfsam_CCTV_Security_Camera
 62
1
370
-1
  6
ByLayer
100
AcDbEntity
100
AcDbPolyline
 90
2
 70
0
 10
31.0059919999999991
 20
64.7842169999999982
 10
31.0059919999999991
 20
64.7841109999999958
  0
LWPOLYLINE
  5
85
  8
2_pdfsam_CCTV_Security_Camera
 62
1
370
-1
  6
ByLayer
100
AcDbEntity
100
AcDbPolyline
 90
64
 70
0
 10
27.6236989999999984
 20
97.7049099999999981
 10
28.0803000000000011
 20
97.7049099999999981
 10
28.5370060000000016
 20
97.7049099999999981
 10
28.9937119999999986
 20
97.7049099999999981
 10
29.4503829999999986
 20
97.7049099999999981
 10
29.9070889999999991
 20
97.7049099999999981
 10
30.3636890000000008
 20
97.7049099999999981
 10
30.8203950000000013
 20
97.7049099999999981
 10
31.2771009999999983
 20
97.7049099999999981
 10
31.7338079999999998
 20
97.7049099999999981
 10
31.7338079999999998
 20
120.6005049999999983
 10
31.2771009999999983
 20
120.6005049999999983
 10
30.8203950000000013
 20
120.6005049999999983
 10
30.3636890000000008
 20
120.6005049999999983
 10
29.9070889999999991
 20
120.6005049999999983
 10
29.4503829999999986
 20
120.6005049999999983
 10
28.9937119999999986
 20
120.6005049999999983
 10
28.5370060000000016
 20
120.6005049999999983
 10
28.0803000000000011
 20
120.6005049999999983
 10
27.6236989999999984
 20
120.6005049999999983
 10
27.1669930000000015
 20
120.6005049999999983
 10
26.710287000000001
 20
120.6005049999999983
 10
26.253616000000001
 20
120.6005049999999983
 10
25.7969100000000005
 20
120.6005049999999983
 10
25.3403099999999988
 20
120.6005049999999983
 10
24.8836039999999983
 20
120.6005049999999983
 10
24.4268980000000013
 20
120.6005049999999983
 10
23.9701920000000008
 20
120.6005049999999983
 10
23.5135910000000017
 20
120.6005049999999983
 10
23.0568850000000012
 20
120.6005049999999983
 10
22.6002140000000011
 20
120.6005049999999983
 10
22.1435080000000006
 20
120.6005049999999983
 10
21.6868020000000001
 20
120.6005049999999983
 10
21.2302019999999985
 20
120.6005049999999983
 10
20.7734960000000015
 20
120.6005049999999983
 10
20.316790000000001
 20
120.6005049999999983
 10
19.8600840000000005
 20
120.6005049999999983
 10
19.4034130000000005
 20
120.6005049999999983
 10
18.9468120000000013
 20
120.6005049999999983
 10
18.4901060000000008
 20
120.6005049999999983
 10
18.0334000000000003
 20
120.6005049999999983
 10
18.0334000000000003
 20
97.7049099999999981
 10
18.4901060000000008
 20
97.7049099999999981
 10
18.9468120000000013
 20
97.7049099999999981
 10
19.4034130000000005
 20
97.7049099999999981
 10
19.8600840000000005
 20
97.7049099999999981
 10
20.316790000000001
 20
97.7049099999999981
 10
20.7734960000000015
 20
97.7049099999999981
 10
21.2302019999999985
 20
97.7049099999999981
 10
21.6868020000000001
 20
97.7049099999999981
 10
22.1435080000000006
 20
97.7049099999999981
 10
22.6002140000000011
 20
97.7049099999999981
 10
23.0568850000000012
 20
97.7049099999999981
 10
23.5135910000000017
 20
97.7049099999999981
 10
23.9701920000000008
 20
97.7049099999999981
 10
24.4268980000000013
 20
97.7049099999999981
 10
24.8836039999999983
 20
97.7049099999999981
 10
25.3403099999999988
 20
97.7049099999999981
 10
25.7969100000000005
 20
97.7049099999999981
 10
26.253616000000001
 20
97.7049099999999981
 10
26.710287000000001
 20
97.7049099999999981
 10
27.1669930000000015
 20
97.7049099999999981
 10
27.6236989999999984
 20
97.7049099999999981
 10
27.6236989999999984
 20
97.7049099999999981
  0
LWPOLYLINE
  5
86
  8
2_pdfsam_CCTV_Security_Camera
 62
1
370
-1
  6
ByLayer
100
AcDbEntity
100
AcDbPolyline
 90
36
 70
0
 10
148.9138149999999996
 20
164.7695879999999988
 10
154.7933859999999981
 20
165.3926999999999907
 10
160.6740149999999971
 20
164.7785839999999951
 10
166.3186000000000035
 20
162.9473150000000032
 10
171.536500999999987
 20
159.9465869999999938
 10
176.0678959999999904
 20
155.9074929999999881
 10
179.9340939999999875
 20
150.7534100000000024
 10
182.9402900000000045
 20
144.6170869999999979
 10
185.2072039999999902
 20
136.9904899999999941
 10
186.886603000000008
 20
126.5824879999999979
 10
189.4216989999999896
 20
127.0003880000000009
 10
187.6894900000000064
 20
137.6530070000000023
 10
185.2993850000000009
 20
145.6344980000000078
 10
182.0837099999999964
 20
152.1607109999999921
 10
177.9229080000000067
 20
157.6852110000000096
 10
173.0088900000000081
 20
162.0521060000000091
 10
167.3407029999999907
 20
165.304505000000006
 10
161.2010999999999967
 20
167.2931839999999966
 10
154.7914100000000133
 20
167.9619099999999889
 10
148.38288399999999
 20
167.2834119999999984
 10
142.2462089999999932
 20
165.2854910000000075
 10
136.5821850000000097
 20
162.0257890000000032
 10
131.6734940000000051
 20
157.6530019999999865
 10
127.5151970000000006
 20
152.1264909999999873
 10
124.2992040000000031
 20
145.6007020000000125
 10
121.901797000000002
 20
137.6211859999999945
 10
120.1621080000000035
 20
126.9699080000000038
 10
122.6976990000000001
 20
126.5558180000000021
 10
124.3851049999999958
 20
136.9624090000000081
 10
126.6598869999999977
 20
144.5867130000000031
 10
129.6670000000000016
 20
150.7226829999999893
 10
133.5310100000000091
 20
155.8782129999999881
 10
138.0577839999999981
 20
159.9225979999999936
 10
143.2719099999999912
 20
162.9299929999999961
 10
148.9138149999999996
 20
164.7695879999999988
 10
148.9138149999999996
 20
164.7695879999999988
  0
LWPOLYLINE
  5
87
  8
2_pdfsam_CCTV_Security_Camera
 62
1
370
-1
  6
ByLayer
100
AcDbEntity
100
AcDbPolyline
 90
64
 70
0
 10
68.600601999999995
 20
161.6005150000000015
 10
65.8293919999999986
 20
161.6005150000000015
 10
63.058287
 20
161.6005150000000015
 10
60.2871120000000005
 20
161.6005150000000015
 10
57.5160070000000019
 20
161.6005150000000015
 10
54.7447960000000009
 20
161.6005150000000015
 10
51.9736919999999998
 20
161.6005150000000015
 10
49.2025870000000012
 20
161.6005150000000015
 10
46.4314120000000017
 20
161.6005150000000015
 10
43.6603070000000031
 20
161.6005150000000015
 10
40.8890960000000021
 20
161.6005150000000015
 10
38.117992000000001
 20
161.6005150000000015
 10
35.3468159999999969
 20
161.6005150000000015
 10
32.5757120000000029
 20
161.6005150000000015
 10
29.8046070000000007
 20
161.6005150000000015
 10
27.0333959999999998
 20
161.6005150000000015
 10
27.0333959999999998
 20
132.4860820000000103
 10
29.8045009999999984
 20
132.4860820000000103
 10
32.5757120000000029
 20
132.4860820000000103
 10
35.3468159999999969
 20
132.4860820000000103
 10
38.117992000000001
 20
132.4860820000000103
 10
40.8890960000000021
 20
132.4860820000000103
 10
43.6603070000000031
 20
132.4860820000000103
 10
46.4314120000000017
 20
132.4860820000000103
 10
49.2025870000000012
 20
132.4860820000000103
 10
51.9736919999999998
 20
132.4860820000000103
 10
54.7447960000000009
 20
132.4860820000000103
 10
57.5160070000000019
 20
132.4860820000000103
 10
60.2871120000000005
 20
132.4860820000000103
 10
63.058287
 20
132.4860820000000103
 10
65.8293919999999986
 20
132.4860820000000103
 10
68.600601999999995
 20
132.4860820000000103
 10
71.3717070000000007
 20
132.4860820000000103
 10
74.1429169999999971
 20
132.4860820000000103
 10
76.9139870000000059
 20
132.4860820000000103
 10
79.6850919999999974
 20
132.4860820000000103
 10
82.4563019999999938
 20
132.4860820000000103
 10
85.2274069999999995
 20
132.4860820000000103
 10
87.9986169999999959
 20
132.4860820000000103
 10
90.7696870000000047
 20
132.4860820000000103
 10
93.5408970000000011
 20
132.4860820000000103
 10
96.3120020000000068
 20
132.4860820000000103
 10
99.0831069999999983
 20
132.4860820000000103
 10
101.8543169999999947
 20
132.4860820000000103
 10
104.6254930000000058
 20
132.4860820000000103
 10
107.3965969999999999
 20
132.4860820000000103
 10
110.1677020000000056
 20
132.4860820000000103
 10
110.1677020000000056
 20
161.6005150000000015
 10
107.3965969999999999
 20
161.6005150000000015
 10
104.6254930000000058
 20
161.6005150000000015
 10
101.8543169999999947
 20
161.6005150000000015
 10
99.0831069999999983
 20
161.6005150000000015
 10
96.3120020000000068
 20
161.6005150000000015
 10
93.5408970000000011
 20
161.6005150000000015
 10
90.7696870000000047
 20
161.6005150000000015
 10
87.9986169999999959
 20
161.6005150000000015
 10
85.2274069999999995
 20
161.6005150000000015
 10
82.4563019999999938
 20
161.6005150000000015
 10
79.6850919999999974
 20
161.6005150000000015
 10
76.9139870000000059
 20
161.6005150000000015
 10
74.1429169999999971
 20
161.6005150000000015
 10
71.3717070000000007
 20
161.6005150000000015
 10
68.600601999999995
 20
161.6005150000000015
 10
68.600601999999995
 20
161.6005150000000015
  0
LWPOLYLINE
  5
88
  8
2_pdfsam_CCTV_Security_Camera
 62
1
370
-1
  6
ByLayer
100
AcDbEntity
100
AcDbPolyline
 90
13
 70
0
 10
132.2633030000000076
 20
113.8895080000000064
 10
131.2902009999999962
 20
113.5634000000000015
 10
128.5347950000000026
 20
113.2510149999999953
 10
125.7767079999999993
 20
113.5219129999999979
 10
123.1364130000000046
 20
114.3640999999999934
 10
120.7293039999999991
 20
115.7408149999999978
 10
119.9645170000000007
 20
116.4252039999999937
 10
108.8647169999999988
 20
65.0504940000000005
 10
122.136887999999999
 20
62.3141019999999983
 10
129.479110999999989
 20
61.6456939999999989
 10
132.8330039999999883
 20
113.9696940000000041
 10
132.2633030000000076
 20
113.8895080000000064
 10
132.2633030000000076
 20
113.8895080000000064
  0
LWPOLYLINE
  5
89
  8
2_pdfsam_CCTV_Security_Camera
 62
1
370
-1
  6
ByLayer
100
AcDbEntity
100
AcDbPolyline
 90
11
 70
0
 10
153.1602010000000007
 20
112.094610000000003
 10
152.0454939999999908
 20
112.738112000000001
 10
148.6914940000000058
 20
60.4142170000000007
 10
168.4118070000000102
 20
60.4142170000000007
 10
165.0578079999999943
 20
112.738112000000001
 10
163.9431010000000128
 20
112.094610000000003
 10
161.3076039999999978
 20
111.2382060000000052
 10
158.5515980000000127
 20
110.9486109999999996
 10
155.7955919999999992
 20
111.2382060000000052
 10
153.1602010000000007
 20
112.094610000000003
 10
153.1602010000000007
 20
112.094610000000003
  0
LWPOLYLINE
  5
8A
  8
2_pdfsam_CCTV_Security_Camera
 62
1
370
-1
  6
ByLayer
100
AcDbEntity
100
AcDbPolyline
 90
6
 70
0
 10
129.479110999999989
 20
61.6456939999999989
 10
148.6914940000000058
 20
60.4142170000000007
 10
152.0454939999999908
 20
112.738112000000001
 10
132.8330039999999883
 20
113.9696940000000041
 10
129.479110999999989
 20
61.6456939999999989
 10
129.479110999999989
 20
61.6456939999999989
  0
LWPOLYLINE
  5
8B
  8
2_pdfsam_CCTV_Security_Camera
 62
1
370
-1
  6
ByLayer
100
AcDbEntity
100
AcDbPolyline
 90
6
 70
0
 10
184.8398919999999919
 20
113.8895080000000064
 10
184.2701910000000112
 20
113.9696940000000041
 10
187.6241909999999962
 20
61.6456939999999989
 10
194.9664139999999861
 20
62.3141019999999983
 10
184.8398919999999919
 20
113.8895080000000064
 10
184.8398919999999919
 20
113.8895080000000064
  0
LWPOLYLINE
  5
8C
  8
2_pdfsam_CCTV_Security_Camera
 62
1
370
-1
  6
ByLayer
100
AcDbEntity
100
AcDbPolyline
 90
6
 70
0
 10
165.0578079999999943
 20
112.738112000000001
 10
168.4118070000000102
 20
60.4142170000000007
 10
187.6241909999999962
 20
61.6456939999999989
 10
184.2701910000000112
 20
113.9696940000000041
 10
165.0578079999999943
 20
112.738112000000001
 10
165.0578079999999943
 20
112.738112000000001
  0
LWPOLYLINE
  5
8D
  8
2_pdfsam_CCTV_Security_Camera
 62
1
370
-1
  6
ByLayer
100
AcDbEntity
100
AcDbPolyline
 90
64
 70
0
 10
113.3150090000000034
 20
26.6005029999999998
 10
111.6722989999999953
 20
26.6005029999999998
 10
110.0294839999999965
 20
26.6005029999999998
 10
108.3868089999999995
 20
26.6005029999999998
 10
106.7441000000000031
 20
26.6005029999999998
 10
105.101389999999995
 20
26.6005029999999998
 10
103.4587159999999955
 20
26.6005029999999998
 10
101.8160060000000016
 20
26.6005029999999998
 10
100.1732959999999935
 20
26.6005029999999998
 10
98.5305160000000058
 20
26.6005029999999998
 10
96.8878059999999977
 20
26.6005029999999998
 10
95.2450960000000038
 20
26.6005029999999998
 10
93.6023160000000018
 20
26.6005029999999998
 10
91.9596059999999937
 20
26.6005029999999998
 10
90.3168969999999973
 20
26.6005029999999998
 10
88.6741870000000034
 20
26.6005029999999998
 10
87.0315130000000039
 20
26.6005029999999998
 10
85.3888029999999958
 20
26.6005029999999998
 10
83.7460930000000019
 20
26.6005029999999998
 10
82.103313
 20
26.6005029999999998
 10
80.4606030000000061
 20
26.6005029999999998
 10
78.817892999999998
 20
26.6005029999999998
 10
77.1751840000000016
 20
26.6005029999999998
 10
75.5325090000000046
 20
26.6005029999999998
 10
73.8896940000000058
 20
26.6005029999999998
 10
72.2469839999999976
 20
26.6005029999999998
 10
70.6043090000000007
 20
26.6005029999999998
 10
68.9616000000000042
 20
26.6005029999999998
 10
67.3188899999999961
 20
26.6005029999999998
 10
65.6761099999999942
 20
26.6005029999999998
 10
64.0334000000000003
 20
26.6005029999999998
 10
64.0334000000000003
 20
20.2588989999999995
 10
65.6761099999999942
 20
20.2588989999999995
 10
67.3188899999999961
 20
20.2588989999999995
 10
68.9616000000000042
 20
20.2588989999999995
 10
70.6043090000000007
 20
20.2588989999999995
 10
72.2469839999999976
 20
20.2588989999999995
 10
73.8896940000000058
 20
20.2588989999999995
 10
75.5324030000000022
 20
20.2588989999999995
 10
77.1751129999999961
 20
20.2588989999999995
 10
78.817892999999998
 20
20.2588989999999995
 10
80.4606030000000061
 20
20.2588989999999995
 10
82.103313
 20
20.2587930000000007
 10
83.7460930000000019
 20
20.2587930000000007
 10
85.3888029999999958
 20
20.2587930000000007
 10
87.0315130000000039
 20
20.2587930000000007
 10
88.6741870000000034
 20
20.2587930000000007
 10
90.3168969999999973
 20
20.2587930000000007
 10
91.9596059999999937
 20
20.2587930000000007
 10
93.6023160000000018
 20
20.2587930000000007
 10
95.2450960000000038
 20
20.2587930000000007
 10
96.8878059999999977
 20
20.2587930000000007
 10
98.5305160000000058
 20
20.2587930000000007
 10
100.1731900000000053
 20
20.2587930000000007
 10
101.8160060000000016
 20
20.2587930000000007
 10
103.4587159999999955
 20
20.2587930000000007
 10
105.101389999999995
 20
20.2587930000000007
 10
106.7441000000000031
 20
20.2587930000000007
 10
108.3868089999999995
 20
20.2587930000000007
 10
110.0294839999999965
 20
20.2587930000000007
 10
111.6722989999999953
 20
20.2587930000000007
 10
113.3150090000000034
 20
20.2587930000000007
 10
113.3150090000000034
 20
26.6005029999999998
 10
113.3150090000000034
 20
26.6005029999999998
  0
LWPOLYLINE
  5
8E
  8
2_pdfsam_CCTV_Security_Camera
 62
1
370
-1
  6
ByLayer
100
AcDbEntity
100
AcDbPolyline
 90
6
 70
0
 10
64.0334000000000003
 20
26.6005029999999998
 10
113.3150090000000034
 20
26.6005029999999998
 10
113.3150090000000034
 20
23.4297010000000014
 10
64.0334000000000003
 20
23.4297010000000014
 10
64.0334000000000003
 20
26.6005029999999998
 10
64.0334000000000003
 20
26.6005029999999998
  0
LWPOLYLINE
  5
8F
  8
2_pdfsam_CCTV_Security_Camera
 62
1
370
-1
  6
ByLayer
100
AcDbEntity
100
AcDbPolyline
 90
11
 70
0
 10
65.6761099999999942
 20
26.6005029999999998
 10
65.9945969999999988
 20
26.6005029999999998
 10
65.9945969999999988
 20
23.4297010000000014
 10
65.6761099999999942
 20
23.4297010000000014
 10
65.6761099999999942
 20
26.6005029999999998
 10
65.6761099999999942
 20
26.6005029999999998
 10
64.0334000000000003
 20
26.6005029999999998
 10
64.0334000000000003
 20
23.4297010000000014
 10
65.6761099999999942
 20
23.4297010000000014
 10
65.6761099999999942
 20
26.6005029999999998
 10
65.6761099999999942
 20
26.6005029999999998
  0
LWPOLYLINE
  5
90
  8
2_pdfsam_CCTV_Security_Camera
 62
1
370
-1
  6
ByLayer
100
AcDbEntity
100
AcDbPolyline
 90
11
 70
0
 10
67.636107999999993
 20
26.6005029999999998
 10
67.9545959999999951
 20
26.6005029999999998
 10
67.9545959999999951
 20
23.4297010000000014
 10
67.636107999999993
 20
23.4297010000000014
 10
67.636107999999993
 20
26.6005029999999998
 10
67.636107999999993
 20
26.6005029999999998
 10
65.9933979999999991
 20
26.6005029999999998
 10
65.9933979999999991
 20
23.4297010000000014
 10
67.636107999999993
 20
23.4297010000000014
 10
67.636107999999993
 20
26.6005029999999998
 10
67.636107999999993
 20
26.6005029999999998
  0
LWPOLYLINE
  5
91
  8
2_pdfsam_CCTV_Security_Camera
 62
1
370
-1
  6
ByLayer
100
AcDbEntity
100
AcDbPolyline
 90
11
 70
0
 10
69.596106000000006
 20
26.6005029999999998
 10
69.9145939999999939
 20
26.6005029999999998
 10
69.9145939999999939
 20
23.4297010000000014
 10
69.596106000000006
 20
23.4297010000000014
 10
69.596106000000006
 20
26.6005029999999998
 10
69.596106000000006
 20
26.6005029999999998
 10
67.9533959999999979
 20
26.6005029999999998
 10
67.9533959999999979
 20
23.4297010000000014
 10
69.596106000000006
 20
23.4297010000000014
 10
69.596106000000006
 20
26.6005029999999998
 10
69.596106000000006
 20
26.6005029999999998
  0
LWPOLYLINE
  5
92
  8
2_pdfsam_CCTV_Security_Camera
 62
1
370
-1
  6
ByLayer
100
AcDbEntity
100
AcDbPolyline
 90
11
 70
0
 10
71.5561040000000048
 20
26.6005029999999998
 10
71.8745920000000069
 20
26.6005029999999998
 10
71.8745920000000069
 20
23.4297010000000014
 10
71.5561040000000048
 20
23.4297010000000014
 10
71.5561040000000048
 20
26.6005029999999998
 10
71.5561040000000048
 20
26.6005029999999998
 10
69.9133939999999967
 20
26.6005029999999998
 10
69.9133939999999967
 20
23.4297010000000014
 10
71.5561040000000048
 20
23.4297010000000014
 10
71.5561040000000048
 20
26.6005029999999998
 10
71.5561040000000048
 20
26.6005029999999998
  0
LWPOLYLINE
  5
93
  8
2_pdfsam_CCTV_Security_Camera
 62
1
370
-1
  6
ByLayer
100
AcDbEntity
100
AcDbPolyline
 90
11
 70
0
 10
73.5161020000000036
 20
26.6005029999999998
 10
73.8345900000000057
 20
26.6005029999999998
 10
73.8345900000000057
 20
23.4297010000000014
 10
73.5161020000000036
 20
23.4297010000000014
 10
73.5161020000000036
 20
26.6005029999999998
 10
73.5161020000000036
 20
26.6005029999999998
 10
71.8733919999999955
 20
26.6005029999999998
 10
71.8733919999999955
 20
23.4297010000000014
 10
73.5161020000000036
 20
23.4297010000000014
 10
73.5161020000000036
 20
26.6005029999999998
 10
73.5161020000000036
 20
26.6005029999999998
  0
LWPOLYLINE
  5
94
  8
2_pdfsam_CCTV_Security_Camera
 62
1
370
-1
  6
ByLayer
100
AcDbEntity
100
AcDbPolyline
 90
11
 70
0
 10
75.4761000000000024
 20
26.6005029999999998
 10
75.7945880000000045
 20
26.6005029999999998
 10
75.7945880000000045
 20
23.4297010000000014
 10
75.4761000000000024
 20
23.4297010000000014
 10
75.4761000000000024
 20
26.6005029999999998
 10
75.4761000000000024
 20
26.6005029999999998
 10
73.8333899999999943
 20
26.6005029999999998
 10
73.8333899999999943
 20
23.4297010000000014
 10
75.4761000000000024
 20
23.4297010000000014
 10
75.4761000000000024
 20
26.6005029999999998
 10
75.4761000000000024
 20
26.6005029999999998
  0
LWPOLYLINE
  5
95
  8
2_pdfsam_CCTV_Security_Camera
 62
1
370
-1
  6
ByLayer
100
AcDbEntity
100
AcDbPolyline
 90
11
 70
0
 10
77.4360980000000012
 20
26.6005029999999998
 10
77.7545860000000033
 20
26.6005029999999998
 10
77.7545860000000033
 20
23.4297010000000014
 10
77.4360980000000012
 20
23.4297010000000014
 10
77.4360980000000012
 20
26.6005029999999998
 10
77.4360980000000012
 20
26.6005029999999998
 10
75.7933879999999931
 20
26.6005029999999998
 10
75.7933879999999931
 20
23.4297010000000014
 10
77.4360980000000012
 20
23.4297010000000014
 10
77.4360980000000012
 20
26.6005029999999998
 10
77.4360980000000012
 20
26.6005029999999998
  0
LWPOLYLINE
  5
96
  8
2_pdfsam_CCTV_Security_Camera
 62
1
370
-1
  6
ByLayer
100
AcDbEntity
100
AcDbPolyline
 90
11
 70
0
 10
79.396096
 20
26.6005029999999998
 10
79.7145840000000021
 20
26.6005029999999998
 10
79.7145840000000021
 20
23.4297010000000014
 10
79.396096
 20
23.4297010000000014
 10
79.396096
 20
26.6005029999999998
 10
79.396096
 20
26.6005029999999998
 10
77.7533860000000061
 20
26.6005029999999998
 10
77.7533860000000061
 20
23.4297010000000014
 10
79.396096
 20
23.4297010000000014
 10
79.396096
 20
26.6005029999999998
 10
79.396096
 20
26.6005029999999998
  0
LWPOLYLINE
  5
97
  8
2_pdfsam_CCTV_Security_Camera
 62
1
370
-1
  6
ByLayer
100
AcDbEntity
100
AcDbPolyline
 90
11
 70
0
 10
81.3560939999999988
 20
26.6005029999999998
 10
81.6746169999999978
 20
26.6005029999999998
 10
81.6746169999999978
 20
23.4297010000000014
 10
81.3560939999999988
 20
23.4297010000000014
 10
81.3560939999999988
 20
26.6005029999999998
 10
81.3560939999999988
 20
26.6005029999999998
 10
79.7133840000000049
 20
26.6005029999999998
 10
79.7133840000000049
 20
23.4297010000000014
 10
81.3560939999999988
 20
23.4297010000000014
 10
81.3560939999999988
 20
26.6005029999999998
 10
81.3560939999999988
 20
26.6005029999999998
  0
LWPOLYLINE
  5
98
  8
2_pdfsam_CCTV_Security_Camera
 62
1
370
-1
  6
ByLayer
100
AcDbEntity
100
AcDbPolyline
 90
11
 70
0
 10
83.3160919999999976
 20
26.6005029999999998
 10
83.6346149999999966
 20
26.6005029999999998
 10
83.6346149999999966
 20
23.4297010000000014
 10
83.3160919999999976
 20
23.4297010000000014
 10
83.3160919999999976
 20
26.6005029999999998
 10
83.3160919999999976
 20
26.6005029999999998
 10
81.6733830000000012
 20
26.6005029999999998
 10
81.6733830000000012
 20
23.4297010000000014
 10
83.3160919999999976
 20
23.4297010000000014
 10
83.3160919999999976
 20
26.6005029999999998
 10
83.3160919999999976
 20
26.6005029999999998
  0
LWPOLYLINE
  5
99
  8
2_pdfsam_CCTV_Security_Camera
 62
1
370
-1
  6
ByLayer
100
AcDbEntity
100
AcDbPolyline
 90
11
 70
0
 10
85.2760899999999964
 20
26.6005029999999998
 10
85.5946129999999954
 20
26.6005029999999998
 10
85.5946129999999954
 20
23.4297010000000014
 10
85.2760899999999964
 20
23.4297010000000014
 10
85.2760899999999964
 20
26.6005029999999998
 10
85.2760899999999964
 20
26.6005029999999998
 10
83.6334159999999969
 20
26.6005029999999998
 10
83.6334159999999969
 20
23.4297010000000014
 10
85.2760899999999964
 20
23.4297010000000014
 10
85.2760899999999964
 20
26.6005029999999998
 10
85.2760899999999964
 20
26.6005029999999998
  0
LWPOLYLINE
  5
9A
  8
2_pdfsam_CCTV_Security_Camera
 62
1
370
-1
  6
ByLayer
100
AcDbEntity
100
AcDbPolyline
 90
11
 70
0
 10
87.2360879999999952
 20
26.6005029999999998
 10
87.5546109999999942
 20
26.6005029999999998
 10
87.5546109999999942
 20
23.4297010000000014
 10
87.2360879999999952
 20
23.4297010000000014
 10
87.2360879999999952
 20
26.6005029999999998
 10
87.2360879999999952
 20
26.6005029999999998
 10
85.5934139999999957
 20
26.6005029999999998
 10
85.5934139999999957
 20
23.4297010000000014
 10
87.2360879999999952
 20
23.4297010000000014
 10
87.2360879999999952
 20
26.6005029999999998
 10
87.2360879999999952
 20
26.6005029999999998
  0
LWPOLYLINE
  5
9B
  8
2_pdfsam_CCTV_Security_Camera
 62
1
370
-1
  6
ByLayer
100
AcDbEntity
100
AcDbPolyline
 90
11
 70
0
 10
89.196085999999994
 20
26.6005029999999998
 10
89.514608999999993
 20
26.6005029999999998
 10
89.514608999999993
 20
23.4297010000000014
 10
89.196085999999994
 20
23.4297010000000014
 10
89.196085999999994
 20
26.6005029999999998
 10
89.196085999999994
 20
26.6005029999999998
 10
87.5534119999999945
 20
26.6005029999999998
 10
87.5534119999999945
 20
23.4297010000000014
 10
89.196085999999994
 20
23.4297010000000014
 10
89.196085999999994
 20
26.6005029999999998
 10
89.196085999999994
 20
26.6005029999999998
  0
LWPOLYLINE
  5
9C
  8
2_pdfsam_CCTV_Security_Camera
 62
1
370
-1
  6
ByLayer
100
AcDbEntity
100
AcDbPolyline
 90
11
 70
0
 10
91.156084000000007
 20
26.6005029999999998
 10
91.474607000000006
 20
26.6005029999999998
 10
91.474607000000006
 20
23.4297010000000014
 10
91.156084000000007
 20
23.4297010000000014
 10
91.156084000000007
 20
26.6005029999999998
 10
91.156084000000007
 20
26.6005029999999998
 10
89.5134099999999933
 20
26.6005029999999998
 10
89.5134099999999933
 20
23.4297010000000014
 10
91.156084000000007
 20
23.4297010000000014
 10
91.156084000000007
 20
26.6005029999999998
 10
91.156084000000007
 20
26.6005029999999998
  0
LWPOLYLINE
  5
9D
  8
2_pdfsam_CCTV_Security_Camera
 62
1
370
-1
  6
ByLayer
100
AcDbEntity
100
AcDbPolyline
 90
11
 70
0
 10
93.1160820000000058
 20
26.6005029999999998
 10
93.4346060000000023
 20
26.6005029999999998
 10
93.4346060000000023
 20
23.4297010000000014
 10
93.1160820000000058
 20
23.4297010000000014
 10
93.1160820000000058
 20
26.6005029999999998
 10
93.1160820000000058
 20
26.6005029999999998
 10
91.4734080000000063
 20
26.6005029999999998
 10
91.4734080000000063
 20
23.4297010000000014
 10
93.1160820000000058
 20
23.4297010000000014
 10
93.1160820000000058
 20
26.6005029999999998
 10
93.1160820000000058
 20
26.6005029999999998
  0
LWPOLYLINE
  5
9E
  8
2_pdfsam_CCTV_Security_Camera
 62
1
370
-1
  6
ByLayer
100
AcDbEntity
100
AcDbPolyline
 90
11
 70
0
 10
95.076115999999999
 20
26.6005029999999998
 10
95.3946040000000011
 20
26.6005029999999998
 10
95.3946040000000011
 20
23.4297010000000014
 10
95.076115999999999
 20
23.4297010000000014
 10
95.076115999999999
 20
26.6005029999999998
 10
95.076115999999999
 20
26.6005029999999998
 10
93.4334060000000051
 20
26.6005029999999998
 10
93.4334060000000051
 20
23.4297010000000014
 10
95.076115999999999
 20
23.4297010000000014
 10
95.076115999999999
 20
26.6005029999999998
 10
95.076115999999999
 20
26.6005029999999998
  0
LWPOLYLINE
  5
9F
  8
2_pdfsam_CCTV_Security_Camera
 62
1
370
-1
  6
ByLayer
100
AcDbEntity
100
AcDbPolyline
 90
11
 70
0
 10
97.0361139999999978
 20
26.6005029999999998
 10
97.3546019999999999
 20
26.6005029999999998
 10
97.3546019999999999
 20
23.4297010000000014
 10
97.0361139999999978
 20
23.4297010000000014
 10
97.0361139999999978
 20
26.6005029999999998
 10
97.0361139999999978
 20
26.6005029999999998
 10
95.3934040000000039
 20
26.6005029999999998
 10
95.3934040000000039
 20
23.4297010000000014
 10
97.0361139999999978
 20
23.4297010000000014
 10
97.0361139999999978
 20
26.6005029999999998
 10
97.0361139999999978
 20
26.6005029999999998
  0
LWPOLYLINE
  5
A0
  8
2_pdfsam_CCTV_Security_Camera
 62
1
370
-1
  6
ByLayer
100
AcDbEntity
100
AcDbPolyline
 90
11
 70
0
 10
98.9961119999999966
 20
26.6005029999999998
 10
99.3145999999999987
 20
26.6005029999999998
 10
99.3145999999999987
 20
23.4297010000000014
 10
98.9961119999999966
 20
23.4297010000000014
 10
98.9961119999999966
 20
26.6005029999999998
 10
98.9961119999999966
 20
26.6005029999999998
 10
97.3534020000000027
 20
26.6005029999999998
 10
97.3534020000000027
 20
23.4297010000000014
 10
98.9961119999999966
 20
23.4297010000000014
 10
98.9961119999999966
 20
26.6005029999999998
 10
98.9961119999999966
 20
26.6005029999999998
  0
LWPOLYLINE
  5
A1
  8
2_pdfsam_CCTV_Security_Camera
 62
1
370
-1
  6
ByLayer
100
AcDbEntity
100
AcDbPolyline
 90
11
 70
0
 10
100.9561099999999954
 20
26.6005029999999998
 10
101.2745979999999975
 20
26.6005029999999998
 10
101.2745979999999975
 20
23.4297010000000014
 10
100.9561099999999954
 20
23.4297010000000014
 10
100.9561099999999954
 20
26.6005029999999998
 10
100.9561099999999954
 20
26.6005029999999998
 10
99.3134000000000015
 20
26.6005029999999998
 10
99.3134000000000015
 20
23.4297010000000014
 10
100.9561099999999954
 20
23.4297010000000014
 10
100.9561099999999954
 20
26.6005029999999998
 10
100.9561099999999954
 20
26.6005029999999998
  0
LWPOLYLINE
  5
A2
  8
2_pdfsam_CCTV_Security_Camera
 62
1
370
-1
  6
ByLayer
100
AcDbEntity
100
AcDbPolyline
 90
11
 70
0
 10
102.9161079999999941
 20
26.6005029999999998
 10
103.2345959999999963
 20
26.6005029999999998
 10
103.2345959999999963
 20
23.4297010000000014
 10
102.9161079999999941
 20
23.4297010000000014
 10
102.9161079999999941
 20
26.6005029999999998
 10
102.9161079999999941
 20
26.6005029999999998
 10
101.2733980000000003
 20
26.6005029999999998
 10
101.2733980000000003
 20
23.4297010000000014
 10
102.9161079999999941
 20
23.4297010000000014
 10
102.9161079999999941
 20
26.6005029999999998
 10
102.9161079999999941
 20
26.6005029999999998
  0
LWPOLYLINE
  5
A3
  8
2_pdfsam_CCTV_Security_Camera
 62
1
370
-1
  6
ByLayer
100
AcDbEntity
100
AcDbPolyline
 90
11
 70
0
 10
104.8761059999999929
 20
26.6005029999999998
 10
105.194593999999995
 20
26.6005029999999998
 10
105.194593999999995
 20
23.4297010000000014
 10
104.8761059999999929
 20
23.4297010000000014
 10
104.8761059999999929
 20
26.6005029999999998
 10
104.8761059999999929
 20
26.6005029999999998
 10
103.233395999999999
 20
26.6005029999999998
 10
103.233395999999999
 20
23.4297010000000014
 10
104.8761059999999929
 20
23.4297010000000014
 10
104.8761059999999929
 20
26.6005029999999998
 10
104.8761059999999929
 20
26.6005029999999998
  0
LWPOLYLINE
  5
A4
  8
2_pdfsam_CCTV_Security_Camera
 62
1
370
-1
  6
ByLayer
100
AcDbEntity
100
AcDbPolyline
 90
11
 70
0
 10
106.836104000000006
 20
26.6005029999999998
 10
107.1545919999999938
 20
26.6005029999999998
 10
107.1545919999999938
 20
23.4297010000000014
 10
106.836104000000006
 20
23.4297010000000014
 10
106.836104000000006
 20
26.6005029999999998
 10
106.836104000000006
 20
26.6005029999999998
 10
105.1933939999999978
 20
26.6005029999999998
 10
105.1933939999999978
 20
23.4297010000000014
 10
106.836104000000006
 20
23.4297010000000014
 10
106.836104000000006
 20
26.6005029999999998
 10
106.836104000000006
 20
26.6005029999999998
  0
LWPOLYLINE
  5
A5
  8
2_pdfsam_CCTV_Security_Camera
 62
1
370
-1
  6
ByLayer
100
AcDbEntity
100
AcDbPolyline
 90
11
 70
0
 10
108.7961020000000048
 20
26.6005029999999998
 10
109.1145900000000069
 20
26.6005029999999998
 10
109.1145900000000069
 20
23.4297010000000014
 10
108.7961020000000048
 20
23.4297010000000014
 10
108.7961020000000048
 20
26.6005029999999998
 10
108.7961020000000048
 20
26.6005029999999998
 10
107.1533919999999966
 20
26.6005029999999998
 10
107.1533919999999966
 20
23.4297010000000014
 10
108.7961020000000048
 20
23.4297010000000014
 10
108.7961020000000048
 20
26.6005029999999998
 10
108.7961020000000048
 20
26.6005029999999998
  0
LWPOLYLINE
  5
A6
  8
2_pdfsam_CCTV_Security_Camera
 62
1
370
-1
  6
ByLayer
100
AcDbEntity
100
AcDbPolyline
 90
11
 70
0
 10
110.7561000000000035
 20
26.6005029999999998
 10
111.0745880000000056
 20
26.6005029999999998
 10
111.0745880000000056
 20
23.4297010000000014
 10
110.7561000000000035
 20
23.4297010000000014
 10
110.7561000000000035
 20
26.6005029999999998
 10
110.7561000000000035
 20
26.6005029999999998
 10
109.1133909999999929
 20
26.6005029999999998
 10
109.1133909999999929
 20
23.4297010000000014
 10
110.7561000000000035
 20
23.4297010000000014
 10
110.7561000000000035
 20
26.6005029999999998
 10
110.7561000000000035
 20
26.6005029999999998
  0
LWPOLYLINE
  5
A7
  8
2_pdfsam_CCTV_Security_Camera
 62
1
370
-1
  6
ByLayer
100
AcDbEntity
100
AcDbPolyline
 90
11
 70
0
 10
112.7160980000000023
 20
26.6005029999999998
 10
113.0345860000000044
 20
26.6005029999999998
 10
113.0345860000000044
 20
23.4297010000000014
 10
112.7160980000000023
 20
23.4297010000000014
 10
112.7160980000000023
 20
26.6005029999999998
 10
112.7160980000000023
 20
26.6005029999999998
 10
111.0733890000000059
 20
26.6005029999999998
 10
111.0733890000000059
 20
23.4297010000000014
 10
112.7160980000000023
 20
23.4297010000000014
 10
112.7160980000000023
 20
26.6005029999999998
 10
112.7160980000000023
 20
26.6005029999999998
  0
LINE
  5
A8
100
AcDbEntity
100
AcDbLine
  8
cut
 62
256
370
-1
  6
ByLayer
 10
114.0214110000000005
 20
112.5938960000000009
 30
0.0
 11
119.9645170000000007
 21
116.4252039999999937
 31
0.0
  0
LINE
  5
A9
100
AcDbEntity
100
AcDbLine
  8
cut
 62
256
370
-1
  6
ByLayer
 10
119.9645170000000007
 20
116.4252039999999937
 30
0.0
 11
122.9131050000000016
 21
117.7351029999999952
 31
0.0
  0
LINE
  5
AA
100
AcDbEntity
100
AcDbLine
  8
cut
 62
256
370
-1
  6
ByLayer
 10
122.9131050000000016
 20
117.7351029999999952
 30
0.0
 11
123.1364130000000046
 21
114.3640999999999934
 31
0.0
  0
LINE
  5
AB
100
AcDbEntity
100
AcDbLine
  8
cut
 62
256
370
-1
  6
ByLayer
 10
123.1364130000000046
 20
114.3640999999999934
 30
0.0
 11
125.0953879999999998
 21
116.5826840000000004
 31
0.0
  0
LINE
  5
AC
100
AcDbEntity
100
AcDbLine
  8
cut
 62
256
370
-1
  6
ByLayer
 10
125.0953879999999998
 20
116.5826840000000004
 30
0.0
 11
125.7767079999999993
 21
113.5219129999999979
 31
0.0
  0
LINE
  5
AD
100
AcDbEntity
100
AcDbLine
  8
cut
 62
256
370
-1
  6
ByLayer
 10
125.7767079999999993
 20
113.5219129999999979
 30
0.0
 11
127.1557159999999982
 21
116.2730159999999984
 31
0.0
  0
LINE
  5
AE
100
AcDbEntity
100
AcDbLine
  8
cut
 62
256
370
-1
  6
ByLayer
 10
127.1557159999999982
 20
116.2730159999999984
 30
0.0
 11
128.5347950000000026
 21
113.2510149999999953
 31
0.0
  0
LINE
  5
AF
100
AcDbEntity
100
AcDbLine
  8
cut
 62
256
370
-1
  6
ByLayer
 10
128.5347950000000026
 20
113.2510149999999953
 30
0.0
 11
129.4528990000000022
 21
115.8371939999999967
 31
0.0
  0
LINE
  5
B0
100
AcDbEntity
100
AcDbLine
  8
cut
 62
256
370
-1
  6
ByLayer
 10
129.4528990000000022
 20
115.8371939999999967
 30
0.0
 11
131.2902009999999962
 21
113.5634000000000015
 31
0.0
  0
LINE
  5
B1
100
AcDbEntity
100
AcDbLine
  8
cut
 62
256
370
-1
  6
ByLayer
 10
131.2902009999999962
 20
113.5634000000000015
 30
0.0
 11
130.8617169999999987
 21
116.188208000000003
 31
0.0
  0
LINE
  5
B2
100
AcDbEntity
100
AcDbLine
  8
cut
 62
256
370
-1
  6
ByLayer
 10
130.8617169999999987
 20
116.188208000000003
 30
0.0
 11
132.2633030000000076
 21
113.8895080000000064
 31
0.0
  0
LINE
  5
B3
100
AcDbEntity
100
AcDbLine
  8
cut
 62
256
370
-1
  6
ByLayer
 10
132.2633030000000076
 20
113.8895080000000064
 30
0.0
 11
132.8330039999999883
 21
113.9696940000000041
 31
0.0
  0
LINE
  5
B4
100
AcDbEntity
100
AcDbLine
  8
cut
 62
256
370
-1
  6
ByLayer
 10
132.8330039999999883
 20
113.9696940000000041
 30
0.0
 11
132.3389040000000136
 21
114.2645109999999988
 31
0.0
  0
LINE
  5
B5
100
AcDbEntity
100
AcDbLine
  8
cut
 62
256
370
-1
  6
ByLayer
 10
114.0214110000000005
 20
112.5938960000000009
 30
0.0
 11
105.0334100000000035
 21
70.9937060000000031
 31
0.0
  0
LINE
  5
B6
100
AcDbEntity
100
AcDbLine
  8
cut
 62
256
370
-1
  6
ByLayer
 10
105.0334100000000035
 20
70.9937060000000031
 30
0.0
 11
108.8647179999999963
 21
65.0504940000000005
 31
0.0
  0
LINE
  5
B7
100
AcDbEntity
100
AcDbLine
  8
cut
 62
256
370
-1
  6
ByLayer
 10
108.8647179999999963
 20
65.0504940000000005
 30
0.0
 11
112.7521169999999984
 21
59.1437939999999998
 31
0.0
  0
LINE
  5
B8
100
AcDbEntity
100
AcDbLine
  8
cut
 62
256
370
-1
  6
ByLayer
 10
112.7521169999999984
 20
59.1437939999999998
 30
0.0
 11
116.2301879999999983
 21
58.4267030000000034
 31
0.0
  0
LINE
  5
B9
100
AcDbEntity
100
AcDbLine
  8
cut
 62
256
370
-1
  6
ByLayer
 10
116.2301879999999983
 20
58.4267030000000034
 30
0.0
 11
122.136887999999999
 21
62.3141019999999983
 31
0.0
  0
LINE
  5
BA
100
AcDbEntity
100
AcDbLine
  8
cut
 62
256
370
-1
  6
ByLayer
 10
122.136887999999999
 20
62.3141019999999983
 30
0.0
 11
123.8719399080000017
 21
59.4861033598999995
 31
0.0
  0
LINE
  5
BB
100
AcDbEntity
100
AcDbLine
  8
cut
 62
256
370
-1
  6
ByLayer
 10
123.8719399080000017
 20
59.4861033598999995
 30
0.0
 11
129.479110999999989
 21
61.6456939999999989
 31
0.0
  0
LINE
  5
BC
100
AcDbEntity
100
AcDbLine
  8
cut
 62
256
370
-1
  6
ByLayer
 10
129.479110999999989
 20
61.6456939999999989
 30
0.0
 11
122.5992030000000028
 21
58.9959100000000021
 31
0.0
  0
LINE
  5
BD
100
AcDbEntity
100
AcDbLine
  8
cut
 62
256
370
-1
  6
ByLayer
 10
122.5992030000000028
 20
58.9959100000000021
 30
0.0
 11
121.7323930000000018
 21
45.4723150000000018
 31
0.0
  0
LINE
  5
BE
100
AcDbEntity
100
AcDbLine
  8
cut
 62
256
370
-1
  6
ByLayer
 10
121.7323930000000018
 20
45.4723150000000018
 30
0.0
 11
128.2176130000000001
 21
41.9658090000000001
 31
0.0
  0
LINE
  5
BF
100
AcDbEntity
100
AcDbLine
  8
cut
 62
256
370
-1
  6
ByLayer
 10
128.2176130000000001
 20
41.9658090000000001
 30
0.0
 11
147.4299959999999885
 21
40.734296999999998
 31
0.0
  0
LINE
  5
C0
100
AcDbEntity
100
AcDbLine
  8
cut
 62
256
370
-1
  6
ByLayer
 10
147.4299959999999885
 20
40.734296999999998
 30
0.0
 11
148.6914940000000058
 21
60.4142170000000007
 31
0.0
  0
LINE
  5
C1
100
AcDbEntity
100
AcDbLine
  8
cut
 62
256
370
-1
  6
ByLayer
 10
148.6914940000000058
 20
60.4142170000000007
 30
0.0
 11
153.6914840000000027
 21
55.4141919999999999
 31
0.0
  0
LINE
  5
C2
100
AcDbEntity
100
AcDbLine
  8
cut
 62
256
370
-1
  6
ByLayer
 10
153.6914840000000027
 20
55.4141919999999999
 30
0.0
 11
163.4118170000000134
 21
55.4141919999999999
 31
0.0
  0
LINE
  5
C3
100
AcDbEntity
100
AcDbLine
  8
cut
 62
256
370
-1
  6
ByLayer
 10
163.4118170000000134
 20
55.4141919999999999
 30
0.0
 11
168.4118070000000102
 21
60.4142179999999982
 31
0.0
  0
LINE
  5
C4
100
AcDbEntity
100
AcDbLine
  8
cut
 62
256
370
-1
  6
ByLayer
 10
168.4118070000000102
 20
60.4142179999999982
 30
0.0
 11
173.7213950000000011
 21
55.7442860000000024
 31
0.0
  0
LINE
  5
C5
100
AcDbEntity
100
AcDbLine
  8
cut
 62
256
370
-1
  6
ByLayer
 10
173.7213950000000011
 20
55.7442860000000024
 30
0.0
 11
182.9542950000000019
 21
56.3361060000000009
 31
0.0
  0
LINE
  5
C6
100
AcDbEntity
100
AcDbLine
  8
cut
 62
256
370
-1
  6
ByLayer
 10
182.9542950000000019
 20
56.3361060000000009
 30
0.0
 11
187.6241909999999962
 21
61.6456939999999989
 31
0.0
  0
LINE
  5
C7
100
AcDbEntity
100
AcDbLine
  8
cut
 62
256
370
-1
  6
ByLayer
 10
187.6241909999999962
 20
61.6456939999999989
 30
0.0
 11
191.7485159999999951
 21
57.0004929999999987
 31
0.0
  0
LINE
  5
C8
100
AcDbEntity
100
AcDbLine
  8
cut
 62
256
370
-1
  6
ByLayer
 10
191.7485159999999951
 20
57.0004929999999987
 30
0.0
 11
194.9664139999999861
 21
62.3141019999999983
 31
0.0
  0
LINE
  5
C9
100
AcDbEntity
100
AcDbLine
  8
cut
 62
256
370
-1
  6
ByLayer
 10
194.9664139999999861
 20
62.3141019999999983
 30
0.0
 11
184.8398919999999919
 21
113.8895080000000064
 31
0.0
  0
LINE
  5
CA
100
AcDbEntity
100
AcDbLine
  8
cut
 62
256
370
-1
  6
ByLayer
 10
184.8398919999999919
 20
113.8895080000000064
 30
0.0
 11
184.2701910000000112
 21
113.9696940000000041
 31
0.0
  0
LINE
  5
CB
100
AcDbEntity
100
AcDbLine
  8
cut
 62
256
370
-1
  6
ByLayer
 10
184.2701910000000112
 20
113.9696940000000041
 30
0.0
 11
178.9606039999999894
 21
118.6395899999999983
 31
0.0
  0
LINE
  5
CC
100
AcDbEntity
100
AcDbLine
  8
cut
 62
256
370
-1
  6
ByLayer
 10
178.9606039999999894
 20
118.6395899999999983
 30
0.0
 11
169.7277039999999886
 21
118.0478049999999968
 31
0.0
  0
LINE
  5
CD
100
AcDbEntity
100
AcDbLine
  8
cut
 62
256
370
-1
  6
ByLayer
 10
169.7277039999999886
 20
118.0478049999999968
 30
0.0
 11
165.0578079999999943
 21
112.738112000000001
 31
0.0
  0
LINE
  5
CE
100
AcDbEntity
100
AcDbLine
  8
cut
 62
256
370
-1
  6
ByLayer
 10
165.0578079999999943
 20
112.738112000000001
 30
0.0
 11
163.3991169999999897
 21
114.8299080000000032
 31
0.0
  0
LINE
  5
CF
100
AcDbEntity
100
AcDbLine
  8
cut
 62
256
370
-1
  6
ByLayer
 10
163.3991169999999897
 20
114.8299080000000032
 30
0.0
 11
163.9431010000000128
 21
112.094610000000003
 31
0.0
  0
LINE
  5
D0
100
AcDbEntity
100
AcDbLine
  8
cut
 62
256
370
-1
  6
ByLayer
 10
163.9431010000000128
 20
112.094610000000003
 30
0.0
 11
161.5463990000000081
 21
114.8159019999999941
 31
0.0
  0
LINE
  5
D1
100
AcDbEntity
100
AcDbLine
  8
cut
 62
256
370
-1
  6
ByLayer
 10
161.5463990000000081
 20
114.8159019999999941
 30
0.0
 11
161.3076039999999978
 21
111.2382060000000052
 31
0.0
  0
LINE
  5
D2
100
AcDbEntity
100
AcDbLine
  8
cut
 62
256
370
-1
  6
ByLayer
 10
161.3076039999999978
 20
111.2382060000000052
 30
0.0
 11
159.5105890000000102
 21
114.6673830000000009
 31
0.0
  0
LINE
  5
D3
100
AcDbEntity
100
AcDbLine
  8
cut
 62
256
370
-1
  6
ByLayer
 10
159.5105890000000102
 20
114.6673830000000009
 30
0.0
 11
158.5515980000000127
 21
110.9486109999999996
 31
0.0
  0
LINE
  5
D4
100
AcDbEntity
100
AcDbLine
  8
cut
 62
256
370
-1
  6
ByLayer
 10
158.5515980000000127
 20
110.9486109999999996
 30
0.0
 11
157.7998990000000106
 21
114.356585999999993
 31
0.0
  0
LINE
  5
D5
100
AcDbEntity
100
AcDbLine
  8
cut
 62
256
370
-1
  6
ByLayer
 10
157.7998990000000106
 20
114.356585999999993
 30
0.0
 11
155.7955919999999992
 21
111.2382060000000052
 31
0.0
  0
LINE
  5
D6
100
AcDbEntity
100
AcDbLine
  8
cut
 62
256
370
-1
  6
ByLayer
 10
155.7955919999999992
 20
111.2382060000000052
 30
0.0
 11
155.6085840000000076
 21
114.4533169999999984
 31
0.0
  0
LINE
  5
D7
100
AcDbEntity
100
AcDbLine
  8
cut
 62
256
370
-1
  6
ByLayer
 10
155.6085840000000076
 20
114.4533169999999984
 30
0.0
 11
153.1602010000000007
 21
112.094610000000003
 31
0.0
  0
LINE
  5
D8
100
AcDbEntity
100
AcDbLine
  8
cut
 62
256
370
-1
  6
ByLayer
 10
153.1602010000000007
 20
112.094610000000003
 30
0.0
 11
154.532999999999987
 21
115.2961030000000022
 31
0.0
  0
LINE
  5
D9
100
AcDbEntity
100
AcDbLine
  8
cut
 62
256
370
-1
  6
ByLayer
 10
154.532999999999987
 20
115.2961030000000022
 30
0.0
 11
152.0454939999999908
 21
112.738112000000001
 31
0.0
  0
LINE
  5
DA
100
AcDbEntity
100
AcDbLine
  8
cut
 62
256
370
-1
  6
ByLayer
 10
152.9191830000000039
 20
126.3689860000000067
 30
0.0
 11
133.7067989999999895
 21
127.6004980000000018
 31
0.0
  0
LINE
  5
DB
100
AcDbEntity
100
AcDbLine
  8
cut
 62
256
370
-1
  6
ByLayer
 10
133.7067989999999895
 20
127.6004980000000018
 30
0.0
 11
133.1791139999999984
 21
127.3711930000000052
 31
0.0
  0
LINE
  5
DC
100
AcDbEntity
100
AcDbLine
  8
cut
 62
256
370
-1
  6
ByLayer
 10
132.774407999999994
 20
123.5936839999999961
 30
0.0
 11
132.5629879999999901
 21
120.830410999999998
 31
0.0
  0
LINE
  5
DD
100
AcDbEntity
100
AcDbLine
  8
cut
 62
256
370
-1
  6
ByLayer
 10
132.5629879999999901
 20
120.830410999999998
 30
0.0
 11
132.4199010000000101
 21
118.0626929999999959
 31
0.0
  0
LINE
  5
DE
100
AcDbEntity
100
AcDbLine
  8
cut
 62
256
370
-1
  6
ByLayer
 10
132.4199010000000101
 20
118.0626929999999959
 30
0.0
 11
132.3439129999999864
 21
115.2908120000000025
 31
0.0
  0
LINE
  5
DF
100
AcDbEntity
100
AcDbLine
  8
cut
 62
256
370
-1
  6
ByLayer
 10
132.3439129999999864
 20
115.2908120000000025
 30
0.0
 11
132.3389040000000136
 21
114.2645109999999988
 31
0.0
  0
LINE
  5
E0
100
AcDbEntity
100
AcDbLine
  8
cut
 62
256
370
-1
  6
ByLayer
 10
133.1791139999999984
 20
127.3711930000000052
 30
0.0
 11
133.0529960000000074
 21
126.3526880000000006
 31
0.0
  0
LINE
  5
E1
100
AcDbEntity
100
AcDbLine
  8
cut
 62
256
370
-1
  6
ByLayer
 10
133.0529960000000074
 20
126.3526880000000006
 30
0.0
 11
132.774407999999994
 21
123.5936839999999961
 31
0.0
  0
LINE
  5
E2
100
AcDbEntity
100
AcDbLine
  8
cut
 62
256
370
-1
  6
ByLayer
 10
152.9191830000000039
 20
126.3689860000000067
 30
0.0
 11
152.659608999999989
 21
122.3189919999999944
 31
0.0
  0
LINE
  5
E3
100
AcDbEntity
100
AcDbLine
  8
cut
 62
256
370
-1
  6
ByLayer
 10
152.659608999999989
 20
122.3189919999999944
 30
0.0
 11
152.4823030000000017
 21
119.5536019999999979
 31
0.0
  0
LINE
  5
E4
100
AcDbEntity
100
AcDbLine
  8
cut
 62
256
370
-1
  6
ByLayer
 10
152.4823030000000017
 20
119.5536019999999979
 30
0.0
 11
152.3051030000000026
 21
116.7881059999999991
 31
0.0
  0
LINE
  5
E5
100
AcDbEntity
100
AcDbLine
  8
cut
 62
256
370
-1
  6
ByLayer
 10
152.3051030000000026
 20
116.7881059999999991
 30
0.0
 11
152.1277969999999868
 21
114.0226109999999977
 31
0.0
  0
LINE
  5
E6
100
AcDbEntity
100
AcDbLine
  8
cut
 62
256
370
-1
  6
ByLayer
 10
152.1277969999999868
 20
114.0226109999999977
 30
0.0
 11
152.0454939999999908
 21
112.738112000000001
 31
0.0
  0
CIRCLE
  5
E7
100
AcDbEntity
100
AcDbCircle
  8
cut
 62
256
370
-1
  6
ByLayer
 10
156.2888984999999877
 20
144.417697000000004
 30
0.0
 40
13.2555014999999994
  0
CIRCLE
  5
E8
100
AcDbEntity
100
AcDbCircle
  8
cut
 62
256
370
-1
  6
ByLayer
 10
76.3948039999999935
 20
95.3833850000000041
 30
0.0
 40
27.8381879999999988
  0
LINE
  5
E9
100
AcDbEntity
100
AcDbLine
  8
cut
 62
256
370
-1
  6
ByLayer
 10
122.6976990000000001
 20
126.5558180000000021
 30
0.0
 11
124.3851049999999958
 21
136.9624090000000081
 31
0.0
  0
LINE
  5
EA
100
AcDbEntity
100
AcDbLine
  8
cut
 62
256
370
-1
  6
ByLayer
 10
124.3851049999999958
 20
136.9624090000000081
 30
0.0
 11
126.6598869999999977
 21
144.5867130000000031
 31
0.0
  0
LINE
  5
EB
100
AcDbEntity
100
AcDbLine
  8
cut
 62
256
370
-1
  6
ByLayer
 10
126.6598869999999977
 20
144.5867130000000031
 30
0.0
 11
129.6670000000000016
 21
150.7226829999999893
 31
0.0
  0
LINE
  5
EC
100
AcDbEntity
100
AcDbLine
  8
cut
 62
256
370
-1
  6
ByLayer
 10
129.6670000000000016
 20
150.7226829999999893
 30
0.0
 11
133.5310100000000091
 21
155.8782129999999881
 31
0.0
  0
LINE
  5
ED
100
AcDbEntity
100
AcDbLine
  8
cut
 62
256
370
-1
  6
ByLayer
 10
133.5310100000000091
 20
155.8782129999999881
 30
0.0
 11
138.0577839999999981
 21
159.9225979999999936
 31
0.0
  0
LINE
  5
EE
100
AcDbEntity
100
AcDbLine
  8
cut
 62
256
370
-1
  6
ByLayer
 10
138.0577839999999981
 20
159.9225979999999936
 30
0.0
 11
143.2719099999999912
 21
162.9299929999999961
 31
0.0
  0
LINE
  5
EF
100
AcDbEntity
100
AcDbLine
  8
cut
 62
256
370
-1
  6
ByLayer
 10
143.2719099999999912
 20
162.9299929999999961
 30
0.0
 11
148.9138149999999996
 21
164.7695879999999988
 31
0.0
  0
LINE
  5
F0
100
AcDbEntity
100
AcDbLine
  8
cut
 62
256
370
-1
  6
ByLayer
 10
148.9138149999999996
 20
164.7695879999999988
 30
0.0
 11
154.7933859999999981
 21
165.3926999999999907
 31
0.0
  0
LINE
  5
F1
100
AcDbEntity
100
AcDbLine
  8
cut
 62
256
370
-1
  6
ByLayer
 10
154.7933859999999981
 20
165.3926999999999907
 30
0.0
 11
160.6740149999999971
 21
164.7785839999999951
 31
0.0
  0
LINE
  5
F2
100
AcDbEntity
100
AcDbLine
  8
cut
 62
256
370
-1
  6
ByLayer
 10
160.6740149999999971
 20
164.7785839999999951
 30
0.0
 11
166.3186000000000035
 21
162.9473150000000032
 31
0.0
  0
LINE
  5
F3
100
AcDbEntity
100
AcDbLine
  8
cut
 62
256
370
-1
  6
ByLayer
 10
166.3186000000000035
 20
162.9473150000000032
 30
0.0
 11
171.536500999999987
 21
159.9465869999999938
 31
0.0
  0
LINE
  5
F4
100
AcDbEntity
100
AcDbLine
  8
cut
 62
256
370
-1
  6
ByLayer
 10
171.536500999999987
 20
159.9465869999999938
 30
0.0
 11
176.0678959999999904
 21
155.9074929999999881
 31
0.0
  0
LINE
  5
F5
100
AcDbEntity
100
AcDbLine
  8
cut
 62
256
370
-1
  6
ByLayer
 10
176.0678959999999904
 20
155.9074929999999881
 30
0.0
 11
179.9340939999999875
 21
150.7534100000000024
 31
0.0
  0
LINE
  5
F6
100
AcDbEntity
100
AcDbLine
  8
cut
 62
256
370
-1
  6
ByLayer
 10
179.9340939999999875
 20
150.7534100000000024
 30
0.0
 11
182.9402900000000045
 21
144.6170869999999979
 31
0.0
  0
LINE
  5
F7
100
AcDbEntity
100
AcDbLine
  8
cut
 62
256
370
-1
  6
ByLayer
 10
182.9402900000000045
 20
144.6170869999999979
 30
0.0
 11
185.2072039999999902
 21
136.9904899999999941
 31
0.0
  0
LINE
  5
F8
100
AcDbEntity
100
AcDbLine
  8
cut
 62
256
370
-1
  6
ByLayer
 10
185.2072039999999902
 20
136.9904899999999941
 30
0.0
 11
186.886603000000008
 21
126.5824879999999979
 31
0.0
  0
LINE
  5
F9
100
AcDbEntity
100
AcDbLine
  8
cut
 62
256
370
-1
  6
ByLayer
 10
186.886603000000008
 20
126.5824879999999979
 30
0.0
 11
189.4216989999999896
 21
127.0003880000000009
 31
0.0
  0
LINE
  5
FA
100
AcDbEntity
100
AcDbLine
  8
cut
 62
256
370
-1
  6
ByLayer
 10
189.4216989999999896
 20
127.0003880000000009
 30
0.0
 11
193.5543150000000026
 21
132.738000999999997
 31
0.0
  0
LINE
  5
FB
100
AcDbEntity
100
AcDbLine
  8
cut
 62
256
370
-1
  6
ByLayer
 10
193.5543150000000026
 20
132.738000999999997
 30
0.0
 11
193.4272090000000048
 21
133.5202150000000074
 31
0.0
  0
LINE
  5
FC
100
AcDbEntity
100
AcDbLine
  8
cut
 62
256
370
-1
  6
ByLayer
 10
193.4272090000000048
 20
133.5202150000000074
 30
0.0
 11
187.6894900000000064
 21
137.6530070000000023
 31
0.0
  0
LINE
  5
FD
100
AcDbEntity
100
AcDbLine
  8
cut
 62
256
370
-1
  6
ByLayer
 10
187.6894900000000064
 20
137.6530070000000023
 30
0.0
 11
191.2842960000000119
 21
143.0782000000000096
 31
0.0
  0
LINE
  5
FE
100
AcDbEntity
100
AcDbLine
  8
cut
 62
256
370
-1
  6
ByLayer
 10
191.2842960000000119
 20
143.0782000000000096
 30
0.0
 11
185.2993850000000009
 21
145.6344980000000078
 31
0.0
  0
LINE
  5
FF
100
AcDbEntity
100
AcDbLine
  8
cut
 62
256
370
-1
  6
ByLayer
 10
185.2993850000000009
 20
145.6344980000000078
 30
0.0
 11
188.1767110000000116
 21
151.1075989999999933
 31
0.0
  0
LINE
  5
100
100
AcDbEntity
100
AcDbLine
  8
cut
 62
256
370
-1
  6
ByLayer
 10
188.1767110000000116
 20
151.1075989999999933
 30
0.0
 11
182.0837099999999964
 21
152.1607109999999921
 31
0.0
  0
LINE
  5
101
100
AcDbEntity
100
AcDbLine
  8
cut
 62
256
370
-1
  6
ByLayer
 10
182.0837099999999964
 20
152.1607109999999921
 30
0.0
 11
183.9972119999999904
 21
157.9308849999999893
 31
0.0
  0
LINE
  5
102
100
AcDbEntity
100
AcDbLine
  8
cut
 62
256
370
-1
  6
ByLayer
 10
183.9972119999999904
 20
157.9308849999999893
 30
0.0
 11
177.9229080000000067
 21
157.6852110000000096
 31
0.0
  0
LINE
  5
103
100
AcDbEntity
100
AcDbLine
  8
cut
 62
256
370
-1
  6
ByLayer
 10
177.9229080000000067
 20
157.6852110000000096
 30
0.0
 11
178.7872130000000084
 21
163.6059860000000015
 31
0.0
  0
LINE
  5
104
100
AcDbEntity
100
AcDbLine
  8
cut
 62
256
370
-1
  6
ByLayer
 10
178.7872130000000084
 20
163.6059860000000015
 30
0.0
 11
173.0088900000000081
 21
162.0521060000000091
 31
0.0
  0
LINE
  5
105
100
AcDbEntity
100
AcDbLine
  8
cut
 62
256
370
-1
  6
ByLayer
 10
173.0088900000000081
 20
162.0521060000000091
 30
0.0
 11
172.6633089999999982
 21
168.0150030000000072
 31
0.0
  0
LINE
  5
106
100
AcDbEntity
100
AcDbLine
  8
cut
 62
256
370
-1
  6
ByLayer
 10
172.6633089999999982
 20
168.0150030000000072
 30
0.0
 11
167.3407029999999907
 21
165.304505000000006
 31
0.0
  0
LINE
  5
107
100
AcDbEntity
100
AcDbLine
  8
cut
 62
256
370
-1
  6
ByLayer
 10
167.3407029999999907
 20
165.304505000000006
 30
0.0
 11
165.8115880000000004
 21
171.0554889999999943
 31
0.0
  0
LINE
  5
108
100
AcDbEntity
100
AcDbLine
  8
cut
 62
256
370
-1
  6
ByLayer
 10
165.8115880000000004
 20
171.0554889999999943
 30
0.0
 11
161.2010999999999967
 21
167.2931839999999966
 31
0.0
  0
LINE
  5
109
100
AcDbEntity
100
AcDbLine
  8
cut
 62
256
370
-1
  6
ByLayer
 10
161.2010999999999967
 20
167.2931839999999966
 30
0.0
 11
158.5150849999999991
 21
172.600514000000004
 31
0.0
  0
LINE
  5
10A
100
AcDbEntity
100
AcDbLine
  8
cut
 62
256
370
-1
  6
ByLayer
 10
158.5150849999999991
 20
172.600514000000004
 30
0.0
 11
154.7914100000000133
 21
167.9619099999999889
 31
0.0
  0
LINE
  5
10B
100
AcDbEntity
100
AcDbLine
  8
cut
 62
256
370
-1
  6
ByLayer
 10
154.7914100000000133
 20
167.9619099999999889
 30
0.0
 11
151.0607139999999902
 21
172.5949050000000113
 31
0.0
  0
LINE
  5
10C
100
AcDbEntity
100
AcDbLine
  8
cut
 62
256
370
-1
  6
ByLayer
 10
151.0607139999999902
 20
172.5949050000000113
 30
0.0
 11
148.38288399999999
 21
167.2834119999999984
 31
0.0
  0
LINE
  5
10D
100
AcDbEntity
100
AcDbLine
  8
cut
 62
256
370
-1
  6
ByLayer
 10
148.38288399999999
 20
167.2834119999999984
 30
0.0
 11
143.7667869999999937
 21
171.038802000000004
 31
0.0
  0
LINE
  5
10E
100
AcDbEntity
100
AcDbLine
  8
cut
 62
256
370
-1
  6
ByLayer
 10
143.7667869999999937
 20
171.038802000000004
 30
0.0
 11
142.2462089999999932
 21
165.2854910000000075
 31
0.0
  0
LINE
  5
10F
100
AcDbEntity
100
AcDbLine
  8
cut
 62
256
370
-1
  6
ByLayer
 10
142.2462089999999932
 20
165.2854910000000075
 30
0.0
 11
136.9202170000000081
 21
167.9892150000000015
 31
0.0
  0
LINE
  5
110
100
AcDbEntity
100
AcDbLine
  8
cut
 62
256
370
-1
  6
ByLayer
 10
136.9202170000000081
 20
167.9892150000000015
 30
0.0
 11
136.5821850000000097
 21
162.0257890000000032
 31
0.0
  0
LINE
  5
111
100
AcDbEntity
100
AcDbLine
  8
cut
 62
256
370
-1
  6
ByLayer
 10
136.5821850000000097
 20
162.0257890000000032
 30
0.0
 11
130.8019920000000127
 21
163.5728959999999859
 31
0.0
  0
LINE
  5
112
100
AcDbEntity
100
AcDbLine
  8
cut
 62
256
370
-1
  6
ByLayer
 10
130.8019920000000127
 20
163.5728959999999859
 30
0.0
 11
131.6734940000000051
 21
157.6530019999999865
 31
0.0
  0
LINE
  5
113
100
AcDbEntity
100
AcDbLine
  8
cut
 62
256
370
-1
  6
ByLayer
 10
131.6734940000000051
 20
157.6530019999999865
 30
0.0
 11
125.5990139999999968
 21
157.8959959999999967
 31
0.0
  0
LINE
  5
114
100
AcDbEntity
100
AcDbLine
  8
cut
 62
256
370
-1
  6
ByLayer
 10
125.5990139999999968
 20
157.8959959999999967
 30
0.0
 11
127.5151970000000006
 21
152.1264909999999873
 31
0.0
  0
LINE
  5
115
100
AcDbEntity
100
AcDbLine
  8
cut
 62
256
370
-1
  6
ByLayer
 10
127.5151970000000006
 20
152.1264909999999873
 30
0.0
 11
121.4223010000000045
 21
151.0738029999999981
 31
0.0
  0
LINE
  5
116
100
AcDbEntity
100
AcDbLine
  8
cut
 62
256
370
-1
  6
ByLayer
 10
121.4223010000000045
 20
151.0738029999999981
 30
0.0
 11
124.2992040000000031
 21
145.6007020000000125
 31
0.0
  0
LINE
  5
117
100
AcDbEntity
100
AcDbLine
  8
cut
 62
256
370
-1
  6
ByLayer
 10
124.2992040000000031
 20
145.6007020000000125
 30
0.0
 11
118.3118950000000069
 21
143.0496960000000115
 31
0.0
  0
LINE
  5
118
100
AcDbEntity
100
AcDbLine
  8
cut
 62
256
370
-1
  6
ByLayer
 10
118.3118950000000069
 20
143.0496960000000115
 30
0.0
 11
121.901797000000002
 21
137.6211859999999945
 31
0.0
  0
LINE
  5
119
100
AcDbEntity
100
AcDbLine
  8
cut
 62
256
370
-1
  6
ByLayer
 10
121.901797000000002
 20
137.6211859999999945
 30
0.0
 11
116.1611850000000032
 21
133.4925929999999994
 31
0.0
  0
LINE
  5
11A
100
AcDbEntity
100
AcDbLine
  8
cut
 62
256
370
-1
  6
ByLayer
 10
116.1611850000000032
 20
133.4925929999999994
 30
0.0
 11
116.033409000000006
 21
132.7104840000000081
 31
0.0
  0
LINE
  5
11B
100
AcDbEntity
100
AcDbLine
  8
cut
 62
256
370
-1
  6
ByLayer
 10
116.033409000000006
 20
132.7104840000000081
 30
0.0
 11
120.1621080000000035
 21
126.9699080000000038
 31
0.0
  0
LINE
  5
11C
100
AcDbEntity
100
AcDbLine
  8
cut
 62
256
370
-1
  6
ByLayer
 10
120.1621080000000035
 20
126.9699080000000038
 30
0.0
 11
122.6976990000000001
 21
126.5558180000000021
 31
0.0
  0
LWPOLYLINE
  5
11D
  8
cut
 62
256
370
-1
  6
ByLayer
100
AcDbEntity
100
AcDbPolyline
 90
8
 70
0
 10
52.5692159999999973
 20
243.8476909999999975
 10
52.5692159999999973
 20
279.5157110000000102
 10
16.0333970000000008
 20
279.5157110000000102
 10
16.0333970000000008
 20
243.8476909999999975
 10
21.7481149999999985
 20
231.4414130000000114
 10
46.8546040000000019
 20
231.4414130000000114
 10
52.5692159999999973
 20
243.8476909999999975
 10
52.5692159999999973
 20
243.8476909999999975
  0
LWPOLYLINE
  5
11E
  8
cut
 62
256
370
-1
  6
ByLayer
100
AcDbEntity
100
AcDbPolyline
 90
36
 70
0
 10
65.0333839999999981
 20
231.4898139999999955
 10
65.0333839999999981
 20
225.0454110000000014
 10
65.0333839999999981
 20
218.6010080000000073
 10
65.3797059999999988
 20
212.1566039999999873
 10
66.4644969999999944
 20
205.7122009999999932
 10
67.7631080000000026
 20
199.2677979999999991
 10
70.2736160000000041
 20
192.8233940000000075
 10
73.6500159999999937
 20
186.3789910000000134
 10
78.9308879999999959
 20
179.9346940000000075
 10
87.5881959999999964
 20
173.4901839999999993
 10
191.2187849999999969
 20
173.4901839999999993
 10
191.2187849999999969
 20
179.9346940000000075
 10
191.2187849999999969
 20
186.3789910000000134
 10
191.2187849999999969
 20
192.8233940000000075
 10
191.2187849999999969
 20
199.2677979999999991
 10
191.2187849999999969
 20
205.7122009999999932
 10
191.2187849999999969
 20
212.1566039999999873
 10
191.2187849999999969
 20
218.6010080000000073
 10
191.2187849999999969
 20
225.0454110000000014
 10
191.2187849999999969
 20
231.4898139999999955
 10
191.2187849999999969
 20
237.9342880000000093
 10
191.2187849999999969
 20
244.3785149999999931
 10
191.2187849999999969
 20
250.8229890000000069
 10
191.2187849999999969
 20
257.2673919999999725
 10
191.2187849999999969
 20
263.711689999999976
 10
191.2187849999999969
 20
270.1561990000000151
 10
191.2187849999999969
 20
276.6006019999999808
 10
87.5881959999999964
 20
276.6006019999999808
 10
78.9308879999999959
 20
270.1561990000000151
 10
73.6500159999999937
 20
263.711689999999976
 10
70.2736160000000041
 20
257.2673919999999725
 10
67.7631080000000026
 20
250.8229890000000069
 10
66.4644969999999944
 20
244.3785149999999931
 10
65.3797059999999988
 20
237.9342880000000093
 10
65.0333839999999981
 20
231.4898139999999955
 10
65.0333839999999981
 20
231.4898139999999955
  0
LINE
  5
11F
100
AcDbEntity
100
AcDbLine
  8
cut
 62
256
370
-1
  6
ByLayer
 10
28.419001999999999
 20
166.6006109999999865
 30
0.0
 11
29.8046070000000007
 21
161.6005150000000015
 31
0.0
  0
LINE
  5
120
100
AcDbEntity
100
AcDbLine
  8
cut
 62
256
370
-1
  6
ByLayer
 10
29.8046070000000007
 20
161.6005150000000015
 30
0.0
 11
31.1901060000000001
 21
166.6006109999999865
 31
0.0
  0
LINE
  5
121
100
AcDbEntity
100
AcDbLine
  8
cut
 62
256
370
-1
  6
ByLayer
 10
31.1901060000000001
 20
166.6006109999999865
 30
0.0
 11
32.5757120000000029
 21
161.6005150000000015
 31
0.0
  0
LINE
  5
122
100
AcDbEntity
100
AcDbLine
  8
cut
 62
256
370
-1
  6
ByLayer
 10
32.5757120000000029
 20
161.6005150000000015
 30
0.0
 11
33.9613170000000011
 21
166.6006109999999865
 31
0.0
  0
LINE
  5
123
100
AcDbEntity
100
AcDbLine
  8
cut
 62
256
370
-1
  6
ByLayer
 10
33.9613170000000011
 20
166.6006109999999865
 30
0.0
 11
35.3468159999999969
 21
161.6005150000000015
 31
0.0
  0
LINE
  5
124
100
AcDbEntity
100
AcDbLine
  8
cut
 62
256
370
-1
  6
ByLayer
 10
35.3468159999999969
 20
161.6005150000000015
 30
0.0
 11
36.7323859999999982
 21
166.6006109999999865
 31
0.0
  0
LINE
  5
125
100
AcDbEntity
100
AcDbLine
  8
cut
 62
256
370
-1
  6
ByLayer
 10
36.7323859999999982
 20
166.6006109999999865
 30
0.0
 11
38.117992000000001
 21
161.6005150000000015
 31
0.0
  0
LINE
  5
126
100
AcDbEntity
100
AcDbLine
  8
cut
 62
256
370
-1
  6
ByLayer
 10
38.117992000000001
 20
161.6005150000000015
 30
0.0
 11
39.5034909999999968
 21
166.6006109999999865
 31
0.0
  0
LINE
  5
127
100
AcDbEntity
100
AcDbLine
  8
cut
 62
256
370
-1
  6
ByLayer
 10
39.5034909999999968
 20
166.6006109999999865
 30
0.0
 11
40.8890960000000021
 21
161.6005150000000015
 31
0.0
  0
LINE
  5
128
100
AcDbEntity
100
AcDbLine
  8
cut
 62
256
370
-1
  6
ByLayer
 10
40.8890960000000021
 20
161.6005150000000015
 30
0.0
 11
42.2747019999999978
 21
166.6006109999999865
 31
0.0
  0
LINE
  5
129
100
AcDbEntity
100
AcDbLine
  8
cut
 62
256
370
-1
  6
ByLayer
 10
42.2747019999999978
 20
166.6006109999999865
 30
0.0
 11
43.6603070000000031
 21
161.6005150000000015
 31
0.0
  0
LINE
  5
12A
100
AcDbEntity
100
AcDbLine
  8
cut
 62
256
370
-1
  6
ByLayer
 10
43.6603070000000031
 20
161.6005150000000015
 30
0.0
 11
45.0458059999999989
 21
166.6006109999999865
 31
0.0
  0
LINE
  5
12B
100
AcDbEntity
100
AcDbLine
  8
cut
 62
256
370
-1
  6
ByLayer
 10
45.0458059999999989
 20
166.6006109999999865
 30
0.0
 11
46.4314120000000017
 21
161.6005150000000015
 31
0.0
  0
LINE
  5
12C
100
AcDbEntity
100
AcDbLine
  8
cut
 62
256
370
-1
  6
ByLayer
 10
46.4314120000000017
 20
161.6005150000000015
 30
0.0
 11
47.8170169999999999
 21
166.6006109999999865
 31
0.0
  0
LINE
  5
12D
100
AcDbEntity
100
AcDbLine
  8
cut
 62
256
370
-1
  6
ByLayer
 10
47.8170169999999999
 20
166.6006109999999865
 30
0.0
 11
49.2025870000000012
 21
161.6005150000000015
 31
0.0
  0
LINE
  5
12E
100
AcDbEntity
100
AcDbLine
  8
cut
 62
256
370
-1
  6
ByLayer
 10
49.2025870000000012
 20
161.6005150000000015
 30
0.0
 11
50.588085999999997
 21
166.6006109999999865
 31
0.0
  0
LINE
  5
12F
100
AcDbEntity
100
AcDbLine
  8
cut
 62
256
370
-1
  6
ByLayer
 10
50.588085999999997
 20
166.6006109999999865
 30
0.0
 11
51.9736919999999998
 21
161.6005150000000015
 31
0.0
  0
LINE
  5
130
100
AcDbEntity
100
AcDbLine
  8
cut
 62
256
370
-1
  6
ByLayer
 10
51.9736919999999998
 20
161.6005150000000015
 30
0.0
 11
53.359296999999998
 21
166.6006109999999865
 31
0.0
  0
LINE
  5
131
100
AcDbEntity
100
AcDbLine
  8
cut
 62
256
370
-1
  6
ByLayer
 10
53.359296999999998
 20
166.6006109999999865
 30
0.0
 11
54.7447960000000009
 21
161.6005150000000015
 31
0.0
  0
LINE
  5
132
100
AcDbEntity
100
AcDbLine
  8
cut
 62
256
370
-1
  6
ByLayer
 10
54.7447960000000009
 20
161.6005150000000015
 30
0.0
 11
56.1304019999999966
 21
166.6006109999999865
 31
0.0
  0
LINE
  5
133
100
AcDbEntity
100
AcDbLine
  8
cut
 62
256
370
-1
  6
ByLayer
 10
56.1304019999999966
 20
166.6006109999999865
 30
0.0
 11
57.5160070000000019
 21
161.6005150000000015
 31
0.0
  0
LINE
  5
134
100
AcDbEntity
100
AcDbLine
  8
cut
 62
256
370
-1
  6
ByLayer
 10
57.5160070000000019
 20
161.6005150000000015
 30
0.0
 11
58.9016120000000001
 21
166.6006109999999865
 31
0.0
  0
LINE
  5
135
100
AcDbEntity
100
AcDbLine
  8
cut
 62
256
370
-1
  6
ByLayer
 10
58.9016120000000001
 20
166.6006109999999865
 30
0.0
 11
60.2871120000000005
 21
161.6005150000000015
 31
0.0
  0
LINE
  5
136
100
AcDbEntity
100
AcDbLine
  8
cut
 62
256
370
-1
  6
ByLayer
 10
60.2871120000000005
 20
161.6005150000000015
 30
0.0
 11
61.6727169999999987
 21
166.6006109999999865
 31
0.0
  0
LINE
  5
137
100
AcDbEntity
100
AcDbLine
  8
cut
 62
256
370
-1
  6
ByLayer
 10
61.6727169999999987
 20
166.6006109999999865
 30
0.0
 11
63.058287
 21
161.6005150000000015
 31
0.0
  0
LINE
  5
138
100
AcDbEntity
100
AcDbLine
  8
cut
 62
256
370
-1
  6
ByLayer
 10
63.058287
 20
161.6005150000000015
 30
0.0
 11
64.4437860000000029
 21
166.6006109999999865
 31
0.0
  0
LINE
  5
139
100
AcDbEntity
100
AcDbLine
  8
cut
 62
256
370
-1
  6
ByLayer
 10
64.4437860000000029
 20
166.6006109999999865
 30
0.0
 11
65.8293919999999986
 21
161.6005150000000015
 31
0.0
  0
LINE
  5
13A
100
AcDbEntity
100
AcDbLine
  8
cut
 62
256
370
-1
  6
ByLayer
 10
65.8293919999999986
 20
161.6005150000000015
 30
0.0
 11
67.2149969999999968
 21
166.6006109999999865
 31
0.0
  0
LINE
  5
13B
100
AcDbEntity
100
AcDbLine
  8
cut
 62
256
370
-1
  6
ByLayer
 10
67.2149969999999968
 20
166.6006109999999865
 30
0.0
 11
68.600601999999995
 21
161.6005150000000015
 31
0.0
  0
LINE
  5
13C
100
AcDbEntity
100
AcDbLine
  8
cut
 62
256
370
-1
  6
ByLayer
 10
68.600601999999995
 20
161.6005150000000015
 30
0.0
 11
69.9862069999999932
 21
166.6006109999999865
 31
0.0
  0
LINE
  5
13D
100
AcDbEntity
100
AcDbLine
  8
cut
 62
256
370
-1
  6
ByLayer
 10
69.9862069999999932
 20
166.6006109999999865
 30
0.0
 11
71.3717070000000007
 21
161.6005150000000015
 31
0.0
  0
LINE
  5
13E
100
AcDbEntity
100
AcDbLine
  8
cut
 62
256
370
-1
  6
ByLayer
 10
71.3717070000000007
 20
161.6005150000000015
 30
0.0
 11
72.7573119999999989
 21
166.6006109999999865
 31
0.0
  0
LINE
  5
13F
100
AcDbEntity
100
AcDbLine
  8
cut
 62
256
370
-1
  6
ByLayer
 10
72.7573119999999989
 20
166.6006109999999865
 30
0.0
 11
74.1429169999999971
 21
161.6005150000000015
 31
0.0
  0
LINE
  5
140
100
AcDbEntity
100
AcDbLine
  8
cut
 62
256
370
-1
  6
ByLayer
 10
74.1429169999999971
 20
161.6005150000000015
 30
0.0
 11
75.5284170000000046
 21
166.6006109999999865
 31
0.0
  0
LINE
  5
141
100
AcDbEntity
100
AcDbLine
  8
cut
 62
256
370
-1
  6
ByLayer
 10
75.5284170000000046
 20
166.6006109999999865
 30
0.0
 11
76.9139870000000059
 21
161.6005150000000015
 31
0.0
  0
LINE
  5
142
100
AcDbEntity
100
AcDbLine
  8
cut
 62
256
370
-1
  6
ByLayer
 10
76.9139870000000059
 20
161.6005150000000015
 30
0.0
 11
78.2995920000000041
 21
166.6006109999999865
 31
0.0
  0
LINE
  5
143
100
AcDbEntity
100
AcDbLine
  8
cut
 62
256
370
-1
  6
ByLayer
 10
78.2995920000000041
 20
166.6006109999999865
 30
0.0
 11
79.6850919999999974
 21
161.6005150000000015
 31
0.0
  0
LINE
  5
144
100
AcDbEntity
100
AcDbLine
  8
cut
 62
256
370
-1
  6
ByLayer
 10
79.6850919999999974
 20
161.6005150000000015
 30
0.0
 11
81.0706969999999956
 21
166.6006109999999865
 31
0.0
  0
LINE
  5
145
100
AcDbEntity
100
AcDbLine
  8
cut
 62
256
370
-1
  6
ByLayer
 10
81.0706969999999956
 20
166.6006109999999865
 30
0.0
 11
82.4563019999999938
 21
161.6005150000000015
 31
0.0
  0
LINE
  5
146
100
AcDbEntity
100
AcDbLine
  8
cut
 62
256
370
-1
  6
ByLayer
 10
82.4563019999999938
 20
161.6005150000000015
 30
0.0
 11
83.8419070000000062
 21
166.6006109999999865
 31
0.0
  0
LINE
  5
147
100
AcDbEntity
100
AcDbLine
  8
cut
 62
256
370
-1
  6
ByLayer
 10
83.8419070000000062
 20
166.6006109999999865
 30
0.0
 11
85.2274069999999995
 21
161.6005150000000015
 31
0.0
  0
LINE
  5
148
100
AcDbEntity
100
AcDbLine
  8
cut
 62
256
370
-1
  6
ByLayer
 10
85.2274069999999995
 20
161.6005150000000015
 30
0.0
 11
86.6130119999999977
 21
166.6006109999999865
 31
0.0
  0
LINE
  5
149
100
AcDbEntity
100
AcDbLine
  8
cut
 62
256
370
-1
  6
ByLayer
 10
86.6130119999999977
 20
166.6006109999999865
 30
0.0
 11
87.9986169999999959
 21
161.6005150000000015
 31
0.0
  0
LINE
  5
14A
100
AcDbEntity
100
AcDbLine
  8
cut
 62
256
370
-1
  6
ByLayer
 10
87.9986169999999959
 20
161.6005150000000015
 30
0.0
 11
89.3841869999999972
 21
166.6006109999999865
 31
0.0
  0
LINE
  5
14B
100
AcDbEntity
100
AcDbLine
  8
cut
 62
256
370
-1
  6
ByLayer
 10
89.3841869999999972
 20
166.6006109999999865
 30
0.0
 11
90.7696870000000047
 21
161.6005150000000015
 31
0.0
  0
LINE
  5
14C
100
AcDbEntity
100
AcDbLine
  8
cut
 62
256
370
-1
  6
ByLayer
 10
90.7696870000000047
 20
161.6005150000000015
 30
0.0
 11
92.1552920000000029
 21
166.6006109999999865
 31
0.0
  0
LINE
  5
14D
100
AcDbEntity
100
AcDbLine
  8
cut
 62
256
370
-1
  6
ByLayer
 10
92.1552920000000029
 20
166.6006109999999865
 30
0.0
 11
93.5408979999999985
 21
161.6005150000000015
 31
0.0
  0
LINE
  5
14E
100
AcDbEntity
100
AcDbLine
  8
cut
 62
256
370
-1
  6
ByLayer
 10
93.5408979999999985
 20
161.6005150000000015
 30
0.0
 11
94.9263969999999944
 21
166.6006109999999865
 31
0.0
  0
LINE
  5
14F
100
AcDbEntity
100
AcDbLine
  8
cut
 62
256
370
-1
  6
ByLayer
 10
94.9263969999999944
 20
166.6006109999999865
 30
0.0
 11
96.3120020000000068
 21
161.6005150000000015
 31
0.0
  0
LINE
  5
150
100
AcDbEntity
100
AcDbLine
  8
cut
 62
256
370
-1
  6
ByLayer
 10
96.3120020000000068
 20
161.6005150000000015
 30
0.0
 11
97.6976080000000024
 21
166.6006109999999865
 31
0.0
  0
LINE
  5
151
100
AcDbEntity
100
AcDbLine
  8
cut
 62
256
370
-1
  6
ByLayer
 10
97.6976080000000024
 20
166.6006109999999865
 30
0.0
 11
99.0831069999999983
 21
161.6005150000000015
 31
0.0
  0
LINE
  5
152
100
AcDbEntity
100
AcDbLine
  8
cut
 62
256
370
-1
  6
ByLayer
 10
99.0831069999999983
 20
161.6005150000000015
 30
0.0
 11
100.4687119999999965
 21
166.6006109999999865
 31
0.0
  0
LINE
  5
153
100
AcDbEntity
100
AcDbLine
  8
cut
 62
256
370
-1
  6
ByLayer
 10
100.4687119999999965
 20
166.6006109999999865
 30
0.0
 11
101.8543169999999947
 21
161.6005150000000015
 31
0.0
  0
LINE
  5
154
100
AcDbEntity
100
AcDbLine
  8
cut
 62
256
370
-1
  6
ByLayer
 10
101.8543169999999947
 20
161.6005150000000015
 30
0.0
 11
103.239886999999996
 21
166.6006109999999865
 31
0.0
  0
LINE
  5
155
100
AcDbEntity
100
AcDbLine
  8
cut
 62
256
370
-1
  6
ByLayer
 10
103.239886999999996
 20
166.6006109999999865
 30
0.0
 11
104.6254930000000058
 21
161.6005150000000015
 31
0.0
  0
LINE
  5
156
100
AcDbEntity
100
AcDbLine
  8
cut
 62
256
370
-1
  6
ByLayer
 10
104.6254930000000058
 20
161.6005150000000015
 30
0.0
 11
106.0109920000000017
 21
166.6006109999999865
 31
0.0
  0
LINE
  5
157
100
AcDbEntity
100
AcDbLine
  8
cut
 62
256
370
-1
  6
ByLayer
 10
106.0109920000000017
 20
166.6006109999999865
 30
0.0
 11
107.3965969999999999
 21
161.6005150000000015
 31
0.0
  0
LINE
  5
158
100
AcDbEntity
100
AcDbLine
  8
cut
 62
256
370
-1
  6
ByLayer
 10
107.3965969999999999
 20
161.6005150000000015
 30
0.0
 11
108.7822029999999955
 21
166.6006109999999865
 31
0.0
  0
LINE
  5
159
100
AcDbEntity
100
AcDbLine
  8
cut
 62
256
370
-1
  6
ByLayer
 10
108.7822029999999955
 20
166.6006109999999865
 30
0.0
 11
110.1677020000000056
 21
161.6005150000000015
 31
0.0
  0
LINE
  5
15A
100
AcDbEntity
100
AcDbLine
  8
cut
 62
256
370
-1
  6
ByLayer
 10
110.1677020000000056
 20
161.6005150000000015
 30
0.0
 11
110.1677020000000056
 21
132.4860820000000103
 31
0.0
  0
LINE
  5
15B
100
AcDbEntity
100
AcDbLine
  8
cut
 62
256
370
-1
  6
ByLayer
 10
110.1677020000000056
 20
132.4860820000000103
 30
0.0
 11
108.7822029999999955
 21
127.4859869999999944
 31
0.0
  0
LINE
  5
15C
100
AcDbEntity
100
AcDbLine
  8
cut
 62
256
370
-1
  6
ByLayer
 10
108.7822029999999955
 20
127.4859869999999944
 30
0.0
 11
107.3965979999999973
 21
132.4860820000000103
 31
0.0
  0
LINE
  5
15D
100
AcDbEntity
100
AcDbLine
  8
cut
 62
256
370
-1
  6
ByLayer
 10
107.3965979999999973
 20
132.4860820000000103
 30
0.0
 11
106.0109920000000017
 21
127.4859869999999944
 31
0.0
  0
LINE
  5
15E
100
AcDbEntity
100
AcDbLine
  8
cut
 62
256
370
-1
  6
ByLayer
 10
106.0109920000000017
 20
127.4859869999999944
 30
0.0
 11
104.6254930000000058
 21
132.4860820000000103
 31
0.0
  0
LINE
  5
15F
100
AcDbEntity
100
AcDbLine
  8
cut
 62
256
370
-1
  6
ByLayer
 10
104.6254930000000058
 20
132.4860820000000103
 30
0.0
 11
103.239886999999996
 21
127.4859869999999944
 31
0.0
  0
LINE
  5
160
100
AcDbEntity
100
AcDbLine
  8
cut
 62
256
370
-1
  6
ByLayer
 10
103.239886999999996
 20
127.4859869999999944
 30
0.0
 11
101.8543180000000064
 21
132.4860820000000103
 31
0.0
  0
LINE
  5
161
100
AcDbEntity
100
AcDbLine
  8
cut
 62
256
370
-1
  6
ByLayer
 10
101.8543180000000064
 20
132.4860820000000103
 30
0.0
 11
100.4687119999999965
 21
127.4859869999999944
 31
0.0
  0
LINE
  5
162
100
AcDbEntity
100
AcDbLine
  8
cut
 62
256
370
-1
  6
ByLayer
 10
100.4687119999999965
 20
127.4859869999999944
 30
0.0
 11
99.0831069999999983
 21
132.4860820000000103
 31
0.0
  0
LINE
  5
163
100
AcDbEntity
100
AcDbLine
  8
cut
 62
256
370
-1
  6
ByLayer
 10
99.0831069999999983
 20
132.4860820000000103
 30
0.0
 11
97.6976080000000024
 21
127.4859869999999944
 31
0.0
  0
LINE
  5
164
100
AcDbEntity
100
AcDbLine
  8
cut
 62
256
370
-1
  6
ByLayer
 10
97.6976080000000024
 20
127.4859869999999944
 30
0.0
 11
96.3120020000000068
 21
132.4860820000000103
 31
0.0
  0
LINE
  5
165
100
AcDbEntity
100
AcDbLine
  8
cut
 62
256
370
-1
  6
ByLayer
 10
96.3120020000000068
 20
132.4860820000000103
 30
0.0
 11
94.9263969999999944
 21
127.4859869999999944
 31
0.0
  0
LINE
  5
166
100
AcDbEntity
100
AcDbLine
  8
cut
 62
256
370
-1
  6
ByLayer
 10
94.9263969999999944
 20
127.4859869999999944
 30
0.0
 11
93.5408979999999985
 21
132.4860820000000103
 31
0.0
  0
LINE
  5
167
100
AcDbEntity
100
AcDbLine
  8
cut
 62
256
370
-1
  6
ByLayer
 10
93.5408979999999985
 20
132.4860820000000103
 30
0.0
 11
92.1552920000000029
 21
127.4859869999999944
 31
0.0
  0
LINE
  5
168
100
AcDbEntity
100
AcDbLine
  8
cut
 62
256
370
-1
  6
ByLayer
 10
92.1552920000000029
 20
127.4859869999999944
 30
0.0
 11
90.7696870000000047
 21
132.4860820000000103
 31
0.0
  0
LINE
  5
169
100
AcDbEntity
100
AcDbLine
  8
cut
 62
256
370
-1
  6
ByLayer
 10
90.7696870000000047
 20
132.4860820000000103
 30
0.0
 11
89.3841869999999972
 21
127.4859869999999944
 31
0.0
  0
LINE
  5
16A
100
AcDbEntity
100
AcDbLine
  8
cut
 62
256
370
-1
  6
ByLayer
 10
89.3841869999999972
 20
127.4859869999999944
 30
0.0
 11
87.9986169999999959
 21
132.4860820000000103
 31
0.0
  0
LINE
  5
16B
100
AcDbEntity
100
AcDbLine
  8
cut
 62
256
370
-1
  6
ByLayer
 10
87.9986169999999959
 20
132.4860820000000103
 30
0.0
 11
86.6130119999999977
 21
127.4859869999999944
 31
0.0
  0
LINE
  5
16C
100
AcDbEntity
100
AcDbLine
  8
cut
 62
256
370
-1
  6
ByLayer
 10
86.6130119999999977
 20
127.4859869999999944
 30
0.0
 11
85.2274069999999995
 21
132.4860820000000103
 31
0.0
  0
LINE
  5
16D
100
AcDbEntity
100
AcDbLine
  8
cut
 62
256
370
-1
  6
ByLayer
 10
85.2274069999999995
 20
132.4860820000000103
 30
0.0
 11
83.8419070000000062
 21
127.4859869999999944
 31
0.0
  0
LINE
  5
16E
100
AcDbEntity
100
AcDbLine
  8
cut
 62
256
370
-1
  6
ByLayer
 10
83.8419070000000062
 20
127.4859869999999944
 30
0.0
 11
82.4563019999999938
 21
132.4860820000000103
 31
0.0
  0
LINE
  5
16F
100
AcDbEntity
100
AcDbLine
  8
cut
 62
256
370
-1
  6
ByLayer
 10
82.4563019999999938
 20
132.4860820000000103
 30
0.0
 11
81.0706969999999956
 21
127.4859869999999944
 31
0.0
  0
LINE
  5
170
100
AcDbEntity
100
AcDbLine
  8
cut
 62
256
370
-1
  6
ByLayer
 10
81.0706969999999956
 20
127.4859869999999944
 30
0.0
 11
79.6850919999999974
 21
132.4860820000000103
 31
0.0
  0
LINE
  5
171
100
AcDbEntity
100
AcDbLine
  8
cut
 62
256
370
-1
  6
ByLayer
 10
79.6850919999999974
 20
132.4860820000000103
 30
0.0
 11
78.2995920000000041
 21
127.4859869999999944
 31
0.0
  0
LINE
  5
172
100
AcDbEntity
100
AcDbLine
  8
cut
 62
256
370
-1
  6
ByLayer
 10
78.2995920000000041
 20
127.4859869999999944
 30
0.0
 11
76.9139870000000059
 21
132.4860820000000103
 31
0.0
  0
LINE
  5
173
100
AcDbEntity
100
AcDbLine
  8
cut
 62
256
370
-1
  6
ByLayer
 10
76.9139870000000059
 20
132.4860820000000103
 30
0.0
 11
75.5284170000000046
 21
127.4859869999999944
 31
0.0
  0
LINE
  5
174
100
AcDbEntity
100
AcDbLine
  8
cut
 62
256
370
-1
  6
ByLayer
 10
75.5284170000000046
 20
127.4859869999999944
 30
0.0
 11
74.1429179999999945
 21
132.4860820000000103
 31
0.0
  0
LINE
  5
175
100
AcDbEntity
100
AcDbLine
  8
cut
 62
256
370
-1
  6
ByLayer
 10
74.1429179999999945
 20
132.4860820000000103
 30
0.0
 11
72.7573119999999989
 21
127.4859869999999944
 31
0.0
  0
LINE
  5
176
100
AcDbEntity
100
AcDbLine
  8
cut
 62
256
370
-1
  6
ByLayer
 10
72.7573119999999989
 20
127.4859869999999944
 30
0.0
 11
71.3717070000000007
 21
132.4860820000000103
 31
0.0
  0
LINE
  5
177
100
AcDbEntity
100
AcDbLine
  8
cut
 62
256
370
-1
  6
ByLayer
 10
71.3717070000000007
 20
132.4860820000000103
 30
0.0
 11
69.9862069999999932
 21
127.4859869999999944
 31
0.0
  0
LINE
  5
178
100
AcDbEntity
100
AcDbLine
  8
cut
 62
256
370
-1
  6
ByLayer
 10
69.9862069999999932
 20
127.4859869999999944
 30
0.0
 11
68.600601999999995
 21
132.4860820000000103
 31
0.0
  0
LINE
  5
179
100
AcDbEntity
100
AcDbLine
  8
cut
 62
256
370
-1
  6
ByLayer
 10
68.600601999999995
 20
132.4860820000000103
 30
0.0
 11
67.2149969999999968
 21
127.4859869999999944
 31
0.0
  0
LINE
  5
17A
100
AcDbEntity
100
AcDbLine
  8
cut
 62
256
370
-1
  6
ByLayer
 10
67.2149969999999968
 20
127.4859869999999944
 30
0.0
 11
65.8293919999999986
 21
132.4860820000000103
 31
0.0
  0
LINE
  5
17B
100
AcDbEntity
100
AcDbLine
  8
cut
 62
256
370
-1
  6
ByLayer
 10
65.8293919999999986
 20
132.4860820000000103
 30
0.0
 11
64.4437860000000029
 21
127.4859869999999944
 31
0.0
  0
LINE
  5
17C
100
AcDbEntity
100
AcDbLine
  8
cut
 62
256
370
-1
  6
ByLayer
 10
64.4437860000000029
 20
127.4859869999999944
 30
0.0
 11
63.058287
 21
132.4860820000000103
 31
0.0
  0
LINE
  5
17D
100
AcDbEntity
100
AcDbLine
  8
cut
 62
256
370
-1
  6
ByLayer
 10
63.058287
 20
132.4860820000000103
 30
0.0
 11
61.6727169999999987
 21
127.4859869999999944
 31
0.0
  0
LINE
  5
17E
100
AcDbEntity
100
AcDbLine
  8
cut
 62
256
370
-1
  6
ByLayer
 10
61.6727169999999987
 20
127.4859869999999944
 30
0.0
 11
60.2871120000000005
 21
132.4860820000000103
 31
0.0
  0
LINE
  5
17F
100
AcDbEntity
100
AcDbLine
  8
cut
 62
256
370
-1
  6
ByLayer
 10
60.2871120000000005
 20
132.4860820000000103
 30
0.0
 11
58.9016120000000001
 21
127.4859869999999944
 31
0.0
  0
LINE
  5
180
100
AcDbEntity
100
AcDbLine
  8
cut
 62
256
370
-1
  6
ByLayer
 10
58.9016120000000001
 20
127.4859869999999944
 30
0.0
 11
57.5160070000000019
 21
132.4860820000000103
 31
0.0
  0
LINE
  5
181
100
AcDbEntity
100
AcDbLine
  8
cut
 62
256
370
-1
  6
ByLayer
 10
57.5160070000000019
 20
132.4860820000000103
 30
0.0
 11
56.1304019999999966
 21
127.4859869999999944
 31
0.0
  0
LINE
  5
182
100
AcDbEntity
100
AcDbLine
  8
cut
 62
256
370
-1
  6
ByLayer
 10
56.1304019999999966
 20
127.4859869999999944
 30
0.0
 11
54.7447960000000009
 21
132.4860820000000103
 31
0.0
  0
LINE
  5
183
100
AcDbEntity
100
AcDbLine
  8
cut
 62
256
370
-1
  6
ByLayer
 10
54.7447960000000009
 20
132.4860820000000103
 30
0.0
 11
53.359296999999998
 21
127.4859869999999944
 31
0.0
  0
LINE
  5
184
100
AcDbEntity
100
AcDbLine
  8
cut
 62
256
370
-1
  6
ByLayer
 10
53.359296999999998
 20
127.4859869999999944
 30
0.0
 11
51.9736919999999998
 21
132.4860820000000103
 31
0.0
  0
LINE
  5
185
100
AcDbEntity
100
AcDbLine
  8
cut
 62
256
370
-1
  6
ByLayer
 10
51.9736919999999998
 20
132.4860820000000103
 30
0.0
 11
50.588085999999997
 21
127.4859869999999944
 31
0.0
  0
LINE
  5
186
100
AcDbEntity
100
AcDbLine
  8
cut
 62
256
370
-1
  6
ByLayer
 10
50.588085999999997
 20
127.4859869999999944
 30
0.0
 11
49.2025870000000012
 21
132.4860820000000103
 31
0.0
  0
LINE
  5
187
100
AcDbEntity
100
AcDbLine
  8
cut
 62
256
370
-1
  6
ByLayer
 10
49.2025870000000012
 20
132.4860820000000103
 30
0.0
 11
47.8170169999999999
 21
127.4859869999999944
 31
0.0
  0
LINE
  5
188
100
AcDbEntity
100
AcDbLine
  8
cut
 62
256
370
-1
  6
ByLayer
 10
47.8170169999999999
 20
127.4859869999999944
 30
0.0
 11
46.4314120000000017
 21
132.4860820000000103
 31
0.0
  0
LINE
  5
189
100
AcDbEntity
100
AcDbLine
  8
cut
 62
256
370
-1
  6
ByLayer
 10
46.4314120000000017
 20
132.4860820000000103
 30
0.0
 11
45.0458059999999989
 21
127.4859869999999944
 31
0.0
  0
LINE
  5
18A
100
AcDbEntity
100
AcDbLine
  8
cut
 62
256
370
-1
  6
ByLayer
 10
45.0458059999999989
 20
127.4859869999999944
 30
0.0
 11
43.6603070000000031
 21
132.4860820000000103
 31
0.0
  0
LINE
  5
18B
100
AcDbEntity
100
AcDbLine
  8
cut
 62
256
370
-1
  6
ByLayer
 10
43.6603070000000031
 20
132.4860820000000103
 30
0.0
 11
42.2747019999999978
 21
127.4859869999999944
 31
0.0
  0
LINE
  5
18C
100
AcDbEntity
100
AcDbLine
  8
cut
 62
256
370
-1
  6
ByLayer
 10
42.2747019999999978
 20
127.4859869999999944
 30
0.0
 11
40.8890960000000021
 21
132.4860820000000103
 31
0.0
  0
LINE
  5
18D
100
AcDbEntity
100
AcDbLine
  8
cut
 62
256
370
-1
  6
ByLayer
 10
40.8890960000000021
 20
132.4860820000000103
 30
0.0
 11
39.5034909999999968
 21
127.4859869999999944
 31
0.0
  0
LINE
  5
18E
100
AcDbEntity
100
AcDbLine
  8
cut
 62
256
370
-1
  6
ByLayer
 10
39.5034909999999968
 20
127.4859869999999944
 30
0.0
 11
38.117992000000001
 21
132.4860820000000103
 31
0.0
  0
LINE
  5
18F
100
AcDbEntity
100
AcDbLine
  8
cut
 62
256
370
-1
  6
ByLayer
 10
38.117992000000001
 20
132.4860820000000103
 30
0.0
 11
36.7323859999999982
 21
127.4859869999999944
 31
0.0
  0
LINE
  5
190
100
AcDbEntity
100
AcDbLine
  8
cut
 62
256
370
-1
  6
ByLayer
 10
36.7323859999999982
 20
127.4859869999999944
 30
0.0
 11
35.3468159999999969
 21
132.4860820000000103
 31
0.0
  0
LINE
  5
191
100
AcDbEntity
100
AcDbLine
  8
cut
 62
256
370
-1
  6
ByLayer
 10
35.3468159999999969
 20
132.4860820000000103
 30
0.0
 11
33.9613170000000011
 21
127.4859869999999944
 31
0.0
  0
LINE
  5
192
100
AcDbEntity
100
AcDbLine
  8
cut
 62
256
370
-1
  6
ByLayer
 10
33.9613170000000011
 20
127.4859869999999944
 30
0.0
 11
32.5757120000000029
 21
132.4860820000000103
 31
0.0
  0
LINE
  5
193
100
AcDbEntity
100
AcDbLine
  8
cut
 62
256
370
-1
  6
ByLayer
 10
32.5757120000000029
 20
132.4860820000000103
 30
0.0
 11
31.1901060000000001
 21
127.4859869999999944
 31
0.0
  0
LINE
  5
194
100
AcDbEntity
100
AcDbLine
  8
cut
 62
256
370
-1
  6
ByLayer
 10
31.1901060000000001
 20
127.4859869999999944
 30
0.0
 11
29.8045009999999984
 21
132.4860820000000103
 31
0.0
  0
LINE
  5
195
100
AcDbEntity
100
AcDbLine
  8
cut
 62
256
370
-1
  6
ByLayer
 10
29.8045009999999984
 20
132.4860820000000103
 30
0.0
 11
28.419001999999999
 21
127.4859869999999944
 31
0.0
  0
LINE
  5
196
100
AcDbEntity
100
AcDbLine
  8
cut
 62
256
370
-1
  6
ByLayer
 10
28.419001999999999
 20
127.4859869999999944
 30
0.0
 11
27.0333959999999998
 21
132.4860820000000103
 31
0.0
  0
LINE
  5
197
100
AcDbEntity
100
AcDbLine
  8
cut
 62
256
370
-1
  6
ByLayer
 10
27.0333959999999998
 20
132.4860820000000103
 30
0.0
 11
22.0334059999999994
 21
137.4861080000000015
 31
0.0
  0
LINE
  5
198
100
AcDbEntity
100
AcDbLine
  8
cut
 62
256
370
-1
  6
ByLayer
 10
22.0334059999999994
 20
137.4861080000000015
 30
0.0
 11
22.0334059999999994
 21
156.6004900000000077
 31
0.0
  0
LINE
  5
199
100
AcDbEntity
100
AcDbLine
  8
cut
 62
256
370
-1
  6
ByLayer
 10
22.0334059999999994
 20
156.6004900000000077
 30
0.0
 11
27.0333959999999998
 21
161.6005150000000015
 31
0.0
  0
LINE
  5
19A
100
AcDbEntity
100
AcDbLine
  8
cut
 62
256
370
-1
  6
ByLayer
 10
27.0333959999999998
 20
161.6005150000000015
 30
0.0
 11
28.419001999999999
 21
166.6006109999999865
 31
0.0
  0
LINE
  5
19B
100
AcDbEntity
100
AcDbLine
  8
cut
 62
256
370
-1
  6
ByLayer
 10
28.419001999999999
 20
166.6006109999999865
 30
0.0
 11
28.419001999999999
 21
166.6006109999999865
 31
0.0
  0
LWPOLYLINE
  5
19C
  8
cut
 62
256
370
-1
  6
ByLayer
100
AcDbEntity
100
AcDbPolyline
 90
6
 70
0
 10
19.5068820000000009
 20
89.6913859999999943
 10
41.5163000000000011
 20
89.6913859999999943
 10
41.5163000000000011
 20
87.339698999999996
 10
19.5068820000000009
 20
87.339698999999996
 10
19.5068820000000009
 20
89.6913859999999943
 10
19.5068820000000009
 20
89.6913859999999943
  0
LWPOLYLINE
  5
19D
  8
cut
 62
256
370
-1
  6
ByLayer
100
AcDbEntity
100
AcDbPolyline
 90
6
 70
0
 10
19.5068820000000009
 20
84.7185960000000051
 10
41.5163000000000011
 20
84.7185960000000051
 10
41.5163000000000011
 20
82.3669079999999951
 10
19.5068820000000009
 20
82.3669079999999951
 10
19.5068820000000009
 20
84.7185960000000051
 10
19.5068820000000009
 20
84.7185960000000051
  0
LINE
  5
19E
100
AcDbEntity
100
AcDbLine
  8
cut
 62
256
370
-1
  6
ByLayer
 10
31.0232069999999993
 20
122.1005159999999989
 30
0.0
 11
30.3393119999999996
 21
120.6005049999999983
 31
0.0
  0
LINE
  5
19F
100
AcDbEntity
100
AcDbLine
  8
cut
 62
256
370
-1
  6
ByLayer
 10
30.3393119999999996
 20
120.6005049999999983
 30
0.0
 11
29.6558050000000009
 21
122.1005159999999989
 31
0.0
  0
LINE
  5
1A0
100
AcDbEntity
100
AcDbLine
  8
cut
 62
256
370
-1
  6
ByLayer
 10
29.6558050000000009
 20
122.1005159999999989
 30
0.0
 11
28.9719100000000012
 21
120.6005049999999983
 31
0.0
  0
LINE
  5
1A1
100
AcDbEntity
100
AcDbLine
  8
cut
 62
256
370
-1
  6
ByLayer
 10
28.9719100000000012
 20
120.6005049999999983
 30
0.0
 11
28.2884029999999989
 21
122.1005159999999989
 31
0.0
  0
LINE
  5
1A2
100
AcDbEntity
100
AcDbLine
  8
cut
 62
256
370
-1
  6
ByLayer
 10
28.2884029999999989
 20
122.1005159999999989
 30
0.0
 11
27.6048960000000001
 21
120.6005049999999983
 31
0.0
  0
LINE
  5
1A3
100
AcDbEntity
100
AcDbLine
  8
cut
 62
256
370
-1
  6
ByLayer
 10
26.9210010000000004
 20
122.1005159999999989
 30
0.0
 11
26.2374940000000016
 21
120.6005049999999983
 31
0.0
  0
LINE
  5
1A4
100
AcDbEntity
100
AcDbLine
  8
cut
 62
256
370
-1
  6
ByLayer
 10
26.2374940000000016
 20
120.6005049999999983
 30
0.0
 11
25.5535989999999984
 21
122.1005159999999989
 31
0.0
  0
LINE
  5
1A5
100
AcDbEntity
100
AcDbLine
  8
cut
 62
256
370
-1
  6
ByLayer
 10
25.5535989999999984
 20
122.1005159999999989
 30
0.0
 11
24.8700919999999996
 21
120.6005049999999983
 31
0.0
  0
LINE
  5
1A6
100
AcDbEntity
100
AcDbLine
  8
cut
 62
256
370
-1
  6
ByLayer
 10
24.8700919999999996
 20
120.6005049999999983
 30
0.0
 11
24.186515
 21
122.1005159999999989
 31
0.0
  0
LINE
  5
1A7
100
AcDbEntity
100
AcDbLine
  8
cut
 62
256
370
-1
  6
ByLayer
 10
27.6048960000000001
 20
120.6005049999999983
 30
0.0
 11
26.9210010000000004
 21
122.1005159999999989
 31
0.0
  0
LINE
  5
1A8
100
AcDbEntity
100
AcDbLine
  8
cut
 62
256
370
-1
  6
ByLayer
 10
24.186515
 20
122.1005159999999989
 30
0.0
 11
23.5026909999999987
 21
120.6005049999999983
 31
0.0
  0
LINE
  5
1A9
100
AcDbEntity
100
AcDbLine
  8
cut
 62
256
370
-1
  6
ByLayer
 10
23.5026909999999987
 20
120.6005049999999983
 30
0.0
 11
22.8191130000000015
 21
122.1005159999999989
 31
0.0
  0
LINE
  5
1AA
100
AcDbEntity
100
AcDbLine
  8
cut
 62
256
370
-1
  6
ByLayer
 10
22.8191130000000015
 20
122.1005159999999989
 30
0.0
 11
22.1352890000000002
 21
120.6005049999999983
 31
0.0
  0
LINE
  5
1AB
100
AcDbEntity
100
AcDbLine
  8
cut
 62
256
370
-1
  6
ByLayer
 10
22.1352890000000002
 20
120.6005049999999983
 30
0.0
 11
21.4517109999999995
 21
122.1005159999999989
 31
0.0
  0
LINE
  5
1AC
100
AcDbEntity
100
AcDbLine
  8
cut
 62
256
370
-1
  6
ByLayer
 10
21.4517109999999995
 20
122.1005159999999989
 30
0.0
 11
20.7682040000000008
 21
120.6005049999999983
 31
0.0
  0
LINE
  5
1AD
100
AcDbEntity
100
AcDbLine
  8
cut
 62
256
370
-1
  6
ByLayer
 10
20.7682040000000008
 20
120.6005049999999983
 30
0.0
 11
20.0843090000000011
 21
122.1005159999999989
 31
0.0
  0
LINE
  5
1AE
100
AcDbEntity
100
AcDbLine
  8
cut
 62
256
370
-1
  6
ByLayer
 10
20.0843090000000011
 20
122.1005159999999989
 30
0.0
 11
19.4008019999999988
 21
120.6005049999999983
 31
0.0
  0
LINE
  5
1AF
100
AcDbEntity
100
AcDbLine
  8
cut
 62
256
370
-1
  6
ByLayer
 10
19.4008019999999988
 20
120.6005049999999983
 30
0.0
 11
18.7169069999999991
 21
122.1005159999999989
 31
0.0
  0
LINE
  5
1B0
100
AcDbEntity
100
AcDbLine
  8
cut
 62
256
370
-1
  6
ByLayer
 10
18.7169069999999991
 20
122.1005159999999989
 30
0.0
 11
18.0334000000000003
 21
120.6005049999999983
 31
0.0
  0
LINE
  5
1B1
100
AcDbEntity
100
AcDbLine
  8
cut
 62
256
370
-1
  6
ByLayer
 10
18.0334000000000003
 20
120.6005049999999983
 30
0.0
 11
15.0334129999999995
 21
117.600482999999997
 31
0.0
  0
LINE
  5
1B2
100
AcDbEntity
100
AcDbLine
  8
cut
 62
256
370
-1
  6
ByLayer
 10
15.0334129999999995
 20
117.600482999999997
 30
0.0
 11
15.0334129999999995
 21
100.7048970000000025
 31
0.0
  0
LINE
  5
1B3
100
AcDbEntity
100
AcDbLine
  8
cut
 62
256
370
-1
  6
ByLayer
 10
15.0334129999999995
 20
100.7048970000000025
 30
0.0
 11
18.0334000000000003
 21
97.7049099999999981
 31
0.0
  0
LINE
  5
1B4
100
AcDbEntity
100
AcDbLine
  8
cut
 62
256
370
-1
  6
ByLayer
 10
18.0334000000000003
 20
97.7049099999999981
 30
0.0
 11
18.7169069999999991
 21
96.2048989999999975
 31
0.0
  0
LINE
  5
1B5
100
AcDbEntity
100
AcDbLine
  8
cut
 62
256
370
-1
  6
ByLayer
 10
18.7169069999999991
 20
96.2048989999999975
 30
0.0
 11
19.4008019999999988
 21
97.7049099999999981
 31
0.0
  0
LINE
  5
1B6
100
AcDbEntity
100
AcDbLine
  8
cut
 62
256
370
-1
  6
ByLayer
 10
19.4008019999999988
 20
97.7049099999999981
 30
0.0
 11
20.0843090000000011
 21
96.2048989999999975
 31
0.0
  0
LINE
  5
1B7
100
AcDbEntity
100
AcDbLine
  8
cut
 62
256
370
-1
  6
ByLayer
 10
20.0843090000000011
 20
96.2048989999999975
 30
0.0
 11
20.7682040000000008
 21
97.7049099999999981
 31
0.0
  0
LINE
  5
1B8
100
AcDbEntity
100
AcDbLine
  8
cut
 62
256
370
-1
  6
ByLayer
 10
20.7682040000000008
 20
97.7049099999999981
 30
0.0
 11
21.4517109999999995
 21
96.2048989999999975
 31
0.0
  0
LINE
  5
1B9
100
AcDbEntity
100
AcDbLine
  8
cut
 62
256
370
-1
  6
ByLayer
 10
21.4517109999999995
 20
96.2048989999999975
 30
0.0
 11
22.1352890000000002
 21
97.7049099999999981
 31
0.0
  0
LINE
  5
1BA
100
AcDbEntity
100
AcDbLine
  8
cut
 62
256
370
-1
  6
ByLayer
 10
22.1352890000000002
 20
97.7049099999999981
 30
0.0
 11
22.8191130000000015
 21
96.2048989999999975
 31
0.0
  0
LINE
  5
1BB
100
AcDbEntity
100
AcDbLine
  8
cut
 62
256
370
-1
  6
ByLayer
 10
22.8191130000000015
 20
96.2048989999999975
 30
0.0
 11
23.5026909999999987
 21
97.7049099999999981
 31
0.0
  0
LINE
  5
1BC
100
AcDbEntity
100
AcDbLine
  8
cut
 62
256
370
-1
  6
ByLayer
 10
23.5026909999999987
 20
97.7049099999999981
 30
0.0
 11
24.186515
 21
96.2048989999999975
 31
0.0
  0
LINE
  5
1BD
100
AcDbEntity
100
AcDbLine
  8
cut
 62
256
370
-1
  6
ByLayer
 10
24.186515
 20
96.2048989999999975
 30
0.0
 11
24.8700919999999996
 21
97.7049099999999981
 31
0.0
  0
LINE
  5
1BE
100
AcDbEntity
100
AcDbLine
  8
cut
 62
256
370
-1
  6
ByLayer
 10
24.8700919999999996
 20
97.7049099999999981
 30
0.0
 11
25.5535989999999984
 21
96.2048989999999975
 31
0.0
  0
LINE
  5
1BF
100
AcDbEntity
100
AcDbLine
  8
cut
 62
256
370
-1
  6
ByLayer
 10
25.5535989999999984
 20
96.2048989999999975
 30
0.0
 11
26.2374940000000016
 21
97.7049099999999981
 31
0.0
  0
LINE
  5
1C0
100
AcDbEntity
100
AcDbLine
  8
cut
 62
256
370
-1
  6
ByLayer
 10
26.2374940000000016
 20
97.7049099999999981
 30
0.0
 11
26.9210010000000004
 21
96.2048989999999975
 31
0.0
  0
LINE
  5
1C1
100
AcDbEntity
100
AcDbLine
  8
cut
 62
256
370
-1
  6
ByLayer
 10
26.9210010000000004
 20
96.2048989999999975
 30
0.0
 11
27.6048960000000001
 21
97.7049099999999981
 31
0.0
  0
LINE
  5
1C2
100
AcDbEntity
100
AcDbLine
  8
cut
 62
256
370
-1
  6
ByLayer
 10
27.6048960000000001
 20
97.7049099999999981
 30
0.0
 11
28.2884029999999989
 21
96.2048989999999975
 31
0.0
  0
LINE
  5
1C3
100
AcDbEntity
100
AcDbLine
  8
cut
 62
256
370
-1
  6
ByLayer
 10
28.2884029999999989
 20
96.2048989999999975
 30
0.0
 11
28.9719100000000012
 21
97.7049099999999981
 31
0.0
  0
LINE
  5
1C4
100
AcDbEntity
100
AcDbLine
  8
cut
 62
256
370
-1
  6
ByLayer
 10
28.9719100000000012
 20
97.7049099999999981
 30
0.0
 11
29.6558050000000009
 21
96.2048989999999975
 31
0.0
  0
LINE
  5
1C5
100
AcDbEntity
100
AcDbLine
  8
cut
 62
256
370
-1
  6
ByLayer
 10
29.6558050000000009
 20
96.2048989999999975
 30
0.0
 11
30.3393119999999996
 21
97.7049099999999981
 31
0.0
  0
LINE
  5
1C6
100
AcDbEntity
100
AcDbLine
  8
cut
 62
256
370
-1
  6
ByLayer
 10
30.3393119999999996
 20
97.7049099999999981
 30
0.0
 11
31.0232069999999993
 21
96.2048989999999975
 31
0.0
  0
LINE
  5
1C7
100
AcDbEntity
100
AcDbLine
  8
cut
 62
256
370
-1
  6
ByLayer
 10
31.7338079999999998
 20
97.7049099999999981
 30
0.0
 11
31.7338079999999998
 21
120.6005049999999983
 31
0.0
  0
LINE
  5
1C8
100
AcDbEntity
100
AcDbLine
  8
cut
 62
256
370
-1
  6
ByLayer
 10
31.7338079999999998
 20
120.6005049999999983
 30
0.0
 11
31.7338079999999998
 21
120.6005049999999983
 31
0.0
  0
LINE
  5
1C9
100
AcDbEntity
100
AcDbLine
  8
cut
 62
256
370
-1
  6
ByLayer
 10
31.7338079999999998
 20
120.6005049999999983
 30
0.0
 11
31.7338079999999998
 21
120.6005049999999983
 31
0.0
  0
LINE
  5
1CA
100
AcDbEntity
100
AcDbLine
  8
cut
 62
256
370
-1
  6
ByLayer
 10
31.0232069999999993
 20
96.2048989999999975
 30
0.0
 11
31.7067140000000016
 21
97.7049099999999981
 31
0.0
  0
LINE
  5
1CB
100
AcDbEntity
100
AcDbLine
  8
cut
 62
256
370
-1
  6
ByLayer
 10
31.7067140000000016
 20
97.7049099999999981
 30
0.0
 11
31.7338079999999998
 21
97.7049099999999981
 31
0.0
  0
LINE
  5
1CC
100
AcDbEntity
100
AcDbLine
  8
cut
 62
256
370
-1
  6
ByLayer
 10
31.7338079999999998
 20
97.7049099999999981
 30
0.0
 11
31.7338079999999998
 21
97.7049099999999981
 31
0.0
  0
LINE
  5
1CD
100
AcDbEntity
100
AcDbLine
  8
cut
 62
256
370
-1
  6
ByLayer
 10
31.7338079999999998
 20
97.7049099999999981
 30
0.0
 11
31.7338079999999998
 21
97.7049099999999981
 31
0.0
  0
LINE
  5
1CE
100
AcDbEntity
100
AcDbLine
  8
cut
 62
256
370
-1
  6
ByLayer
 10
31.7338079999999998
 20
120.6005049999999983
 30
0.0
 11
31.7067139999999981
 21
120.6005049999999983
 31
0.0
  0
LINE
  5
1CF
100
AcDbEntity
100
AcDbLine
  8
cut
 62
256
370
-1
  6
ByLayer
 10
31.7067139999999981
 20
120.6005049999999983
 30
0.0
 11
31.0232069999999993
 21
122.1005159999999989
 31
0.0
  0
LINE
  5
1D0
100
AcDbEntity
100
AcDbLine
  8
cut
 62
256
370
-1
  6
ByLayer
 10
31.0232069999999993
 20
122.1005159999999989
 30
0.0
 11
30.3393119999999996
 21
120.6005049999999983
 31
0.0
  0
CIRCLE
  5
1D1
100
AcDbEntity
100
AcDbCircle
  8
cut
 62
256
370
-1
  6
ByLayer
 10
28.7686045000000021
 20
65.2012530000000083
 30
0.0
 40
2.2909035006130773
  0
CIRCLE
  5
1D2
100
AcDbEntity
100
AcDbCircle
  8
cut
 62
256
370
-1
  6
ByLayer
 10
42.2182395000000028
 20
65.2012
 30
0.0
 40
2.2909565000000001
  0
CIRCLE
  5
1D3
100
AcDbEntity
100
AcDbCircle
  8
cut
 62
256
370
-1
  6
ByLayer
 10
156.2892461401197579
 20
144.4303548000832507
 30
0.0
 40
4.2877597350047214
  0
CIRCLE
  5
1D4
100
AcDbEntity
100
AcDbCircle
  8
cut
 62
256
370
-1
  6
ByLayer
 10
37.2091475000000003
 20
117.4162979999999976
 30
0.0
 40
2.1582415000000026
  0
CIRCLE
  5
1D5
100
AcDbEntity
100
AcDbCircle
  8
cut
 62
256
370
-1
  6
ByLayer
 10
37.2091475000000003
 20
108.4163020000000017
 30
0.0
 40
2.1582415000000026
  0
CIRCLE
  5
1D6
100
AcDbEntity
100
AcDbCircle
  8
cut
 62
256
370
-1
  6
ByLayer
 10
76.8912505000000124
 20
42.7858060000000009
 30
0.0
 40
4.2890544999999989
  0
CIRCLE
  5
1D7
100
AcDbEntity
100
AcDbCircle
  8
cut
 62
256
370
-1
  6
ByLayer
 10
76.8911975000000041
 20
42.7858060000000009
 30
0.0
 40
7.8578074999999998
  0
CIRCLE
  5
1D8
100
AcDbEntity
100
AcDbCircle
  8
cut
 62
256
370
-1
  6
ByLayer
 10
96.8911395000000084
 20
41.7857869999999991
 30
0.0
 40
7.8577545000000057
  0
CIRCLE
  5
1D9
100
AcDbEntity
100
AcDbCircle
  8
cut
 62
256
370
-1
  6
ByLayer
 10
61.3224614999999957
 20
56.3350480000000005
 30
0.0
 40
4.2890545023176427
  0
CIRCLE
  5
1DA
100
AcDbEntity
100
AcDbCircle
  8
cut
 62
256
370
-1
  6
ByLayer
 10
61.3224614999999957
 20
44.4605480000000028
 30
0.0
 40
4.2890545023176427
  0
LINE
  5
1DB
100
AcDbEntity
100
AcDbLine
  8
cut
 62
256
370
-1
  6
ByLayer
 10
48.9430839999999989
 20
71.600482999999997
 30
0.0
 11
53.9431089999999998
 21
66.6004930000000002
 31
0.0
  0
LINE
  5
1DC
100
AcDbEntity
100
AcDbLine
  8
cut
 62
256
370
-1
  6
ByLayer
 10
53.9431089999999998
 20
66.6004930000000002
 30
0.0
 11
53.9431089999999998
 21
27.4845989999999993
 31
0.0
  0
LINE
  5
1DD
100
AcDbEntity
100
AcDbLine
  8
cut
 62
256
370
-1
  6
ByLayer
 10
53.9431089999999998
 20
27.4845989999999993
 30
0.0
 11
48.9430839999999989
 21
22.4847150000000013
 31
0.0
  0
LINE
  5
1DE
100
AcDbEntity
100
AcDbLine
  8
cut
 62
256
370
-1
  6
ByLayer
 10
48.9430839999999989
 20
22.4847150000000013
 30
0.0
 11
47.8222030000000018
 21
20.3468109999999989
 31
0.0
  0
LINE
  5
1DF
100
AcDbEntity
100
AcDbLine
  8
cut
 62
256
370
-1
  6
ByLayer
 10
47.8222030000000018
 20
20.3468109999999989
 30
0.0
 11
46.7014980000000008
 21
22.4847150000000013
 31
0.0
  0
LINE
  5
1E0
100
AcDbEntity
100
AcDbLine
  8
cut
 62
256
370
-1
  6
ByLayer
 10
46.7014980000000008
 20
22.4847150000000013
 30
0.0
 11
45.5807939999999974
 21
20.3468109999999989
 31
0.0
  0
LINE
  5
1E1
100
AcDbEntity
100
AcDbLine
  8
cut
 62
256
370
-1
  6
ByLayer
 10
45.5807939999999974
 20
20.3468109999999989
 30
0.0
 11
44.4600890000000035
 21
22.4847150000000013
 31
0.0
  0
LINE
  5
1E2
100
AcDbEntity
100
AcDbLine
  8
cut
 62
256
370
-1
  6
ByLayer
 10
44.4600890000000035
 20
22.4847150000000013
 30
0.0
 11
43.3392089999999968
 21
20.3468109999999989
 31
0.0
  0
LINE
  5
1E3
100
AcDbEntity
100
AcDbLine
  8
cut
 62
256
370
-1
  6
ByLayer
 10
43.3392089999999968
 20
20.3468109999999989
 30
0.0
 11
42.2185040000000029
 21
22.4847150000000013
 31
0.0
  0
LINE
  5
1E4
100
AcDbEntity
100
AcDbLine
  8
cut
 62
256
370
-1
  6
ByLayer
 10
42.2185040000000029
 20
22.4847150000000013
 30
0.0
 11
41.0977999999999994
 21
20.3468109999999989
 31
0.0
  0
LINE
  5
1E5
100
AcDbEntity
100
AcDbLine
  8
cut
 62
256
370
-1
  6
ByLayer
 10
41.0977999999999994
 20
20.3468109999999989
 30
0.0
 11
39.9770949999999985
 21
22.4847150000000013
 31
0.0
  0
LINE
  5
1E6
100
AcDbEntity
100
AcDbLine
  8
cut
 62
256
370
-1
  6
ByLayer
 10
39.9770949999999985
 20
22.4847150000000013
 30
0.0
 11
38.8562140000000014
 21
20.3468109999999989
 31
0.0
  0
LINE
  5
1E7
100
AcDbEntity
100
AcDbLine
  8
cut
 62
256
370
-1
  6
ByLayer
 10
38.8562140000000014
 20
20.3468109999999989
 30
0.0
 11
37.7355099999999979
 21
22.4847150000000013
 31
0.0
  0
LINE
  5
1E8
100
AcDbEntity
100
AcDbLine
  8
cut
 62
256
370
-1
  6
ByLayer
 10
37.7355099999999979
 20
22.4847150000000013
 30
0.0
 11
36.6148060000000015
 21
20.3468109999999989
 31
0.0
  0
LINE
  5
1E9
100
AcDbEntity
100
AcDbLine
  8
cut
 62
256
370
-1
  6
ByLayer
 10
36.6148060000000015
 20
20.3468109999999989
 30
0.0
 11
35.493783999999998
 21
22.4847150000000013
 31
0.0
  0
LINE
  5
1EA
100
AcDbEntity
100
AcDbLine
  8
cut
 62
256
370
-1
  6
ByLayer
 10
35.493783999999998
 20
22.4847150000000013
 30
0.0
 11
34.3731849999999994
 21
20.3468109999999989
 31
0.0
  0
LINE
  5
1EB
100
AcDbEntity
100
AcDbLine
  8
cut
 62
256
370
-1
  6
ByLayer
 10
34.3731849999999994
 20
20.3468109999999989
 30
0.0
 11
33.252516
 21
22.4847150000000013
 31
0.0
  0
LINE
  5
1EC
100
AcDbEntity
100
AcDbLine
  8
cut
 62
256
370
-1
  6
ByLayer
 10
33.252516
 20
22.4847150000000013
 30
0.0
 11
32.1314940000000036
 21
20.3468109999999989
 31
0.0
  0
LINE
  5
1ED
100
AcDbEntity
100
AcDbLine
  8
cut
 62
256
370
-1
  6
ByLayer
 10
32.1314940000000036
 20
20.3468109999999989
 30
0.0
 11
31.0112829999999988
 21
22.4847150000000013
 31
0.0
  0
LINE
  5
1EE
100
AcDbEntity
100
AcDbLine
  8
cut
 62
256
370
-1
  6
ByLayer
 10
31.0112829999999988
 20
22.4847150000000013
 30
0.0
 11
29.8901910000000015
 21
20.3468109999999989
 31
0.0
  0
LINE
  5
1EF
100
AcDbEntity
100
AcDbLine
  8
cut
 62
256
370
-1
  6
ByLayer
 10
29.8901910000000015
 20
20.3468109999999989
 30
0.0
 11
28.7694860000000006
 21
22.4847150000000013
 31
0.0
  0
LINE
  5
1F0
100
AcDbEntity
100
AcDbLine
  8
cut
 62
256
370
-1
  6
ByLayer
 10
28.7694860000000006
 20
22.4847150000000013
 30
0.0
 11
27.6488170000000011
 21
20.3468109999999989
 31
0.0
  0
LINE
  5
1F1
100
AcDbEntity
100
AcDbLine
  8
cut
 62
256
370
-1
  6
ByLayer
 10
27.6488170000000011
 20
20.3468109999999989
 30
0.0
 11
26.5277950000000011
 21
22.4847150000000013
 31
0.0
  0
LINE
  5
1F2
100
AcDbEntity
100
AcDbLine
  8
cut
 62
256
370
-1
  6
ByLayer
 10
26.5277950000000011
 20
22.4847150000000013
 30
0.0
 11
25.407197
 21
20.3468109999999989
 31
0.0
  0
LINE
  5
1F3
100
AcDbEntity
100
AcDbLine
  8
cut
 62
256
370
-1
  6
ByLayer
 10
25.407197
 20
20.3468109999999989
 30
0.0
 11
24.2864919999999991
 21
22.4847150000000013
 31
0.0
  0
LINE
  5
1F4
100
AcDbEntity
100
AcDbLine
  8
cut
 62
256
370
-1
  6
ByLayer
 10
24.2864919999999991
 20
22.4847150000000013
 30
0.0
 11
23.1655060000000006
 21
20.3468109999999989
 31
0.0
  0
LINE
  5
1F5
100
AcDbEntity
100
AcDbLine
  8
cut
 62
256
370
-1
  6
ByLayer
 10
23.1655060000000006
 20
20.3468109999999989
 30
0.0
 11
22.0448009999999996
 21
22.4845030000000001
 31
0.0
  0
LINE
  5
1F6
100
AcDbEntity
100
AcDbLine
  8
cut
 62
256
370
-1
  6
ByLayer
 10
22.0448009999999996
 20
22.4845030000000001
 30
0.0
 11
22.0446950000000008
 21
71.6005889999999994
 31
0.0
  0
LINE
  5
1F7
100
AcDbEntity
100
AcDbLine
  8
cut
 62
256
370
-1
  6
ByLayer
 10
22.0446950000000008
 20
71.6005889999999994
 30
0.0
 11
23.1654000000000018
 21
73.7384930000000054
 31
0.0
  0
LINE
  5
1F8
100
AcDbEntity
100
AcDbLine
  8
cut
 62
256
370
-1
  6
ByLayer
 10
23.1654000000000018
 20
73.7384930000000054
 30
0.0
 11
24.2863860000000003
 21
71.6005889999999994
 31
0.0
  0
LINE
  5
1F9
100
AcDbEntity
100
AcDbLine
  8
cut
 62
256
370
-1
  6
ByLayer
 10
24.2863860000000003
 20
71.6005889999999994
 30
0.0
 11
25.4070910000000012
 21
73.7384930000000054
 31
0.0
  0
LINE
  5
1FA
100
AcDbEntity
100
AcDbLine
  8
cut
 62
256
370
-1
  6
ByLayer
 10
25.4070910000000012
 20
73.7384930000000054
 30
0.0
 11
26.5269130000000004
 21
71.600482999999997
 31
0.0
  0
LINE
  5
1FB
100
AcDbEntity
100
AcDbLine
  8
cut
 62
256
370
-1
  6
ByLayer
 10
26.5269130000000004
 20
71.600482999999997
 30
0.0
 11
27.6487109999999987
 21
73.7384930000000054
 31
0.0
  0
LINE
  5
1FC
100
AcDbEntity
100
AcDbLine
  8
cut
 62
256
370
-1
  6
ByLayer
 10
27.6487109999999987
 20
73.7384930000000054
 30
0.0
 11
28.7694159999999997
 21
71.6005889999999994
 31
0.0
  0
LINE
  5
1FD
100
AcDbEntity
100
AcDbLine
  8
cut
 62
256
370
-1
  6
ByLayer
 10
28.7694159999999997
 20
71.6005889999999994
 30
0.0
 11
29.8900849999999991
 21
73.7384930000000054
 31
0.0
  0
LINE
  5
1FE
100
AcDbEntity
100
AcDbLine
  8
cut
 62
256
370
-1
  6
ByLayer
 10
29.8900849999999991
 20
73.7384930000000054
 30
0.0
 11
31.0101900000000015
 21
71.600482999999997
 31
0.0
  0
LINE
  5
1FF
100
AcDbEntity
100
AcDbLine
  8
cut
 62
256
370
-1
  6
ByLayer
 10
31.0101900000000015
 20
71.600482999999997
 30
0.0
 11
32.1313880000000012
 21
73.7384930000000054
 31
0.0
  0
LINE
  5
200
100
AcDbEntity
100
AcDbLine
  8
cut
 62
256
370
-1
  6
ByLayer
 10
32.1313880000000012
 20
73.7384930000000054
 30
0.0
 11
33.2524099999999976
 21
71.6005889999999994
 31
0.0
  0
LINE
  5
201
100
AcDbEntity
100
AcDbLine
  8
cut
 62
256
370
-1
  6
ByLayer
 10
33.2524099999999976
 20
71.6005889999999994
 30
0.0
 11
34.3731140000000011
 21
73.7384930000000054
 31
0.0
  0
LINE
  5
202
100
AcDbEntity
100
AcDbLine
  8
cut
 62
256
370
-1
  6
ByLayer
 10
34.3731140000000011
 20
73.7384930000000054
 30
0.0
 11
35.4933959999999971
 21
71.600482999999997
 31
0.0
  0
LINE
  5
203
100
AcDbEntity
100
AcDbLine
  8
cut
 62
256
370
-1
  6
ByLayer
 10
35.4933959999999971
 20
71.600482999999997
 30
0.0
 11
36.6146999999999991
 21
73.7384930000000054
 31
0.0
  0
LINE
  5
204
100
AcDbEntity
100
AcDbLine
  8
cut
 62
256
370
-1
  6
ByLayer
 10
36.6146999999999991
 20
73.7384930000000054
 30
0.0
 11
37.7354040000000026
 21
71.6005889999999994
 31
0.0
  0
LINE
  5
205
100
AcDbEntity
100
AcDbLine
  8
cut
 62
256
370
-1
  6
ByLayer
 10
37.7354040000000026
 20
71.6005889999999994
 30
0.0
 11
38.8561089999999965
 21
73.7384930000000054
 31
0.0
  0
LINE
  5
206
100
AcDbEntity
100
AcDbLine
  8
cut
 62
256
370
-1
  6
ByLayer
 10
38.8561089999999965
 20
73.7384930000000054
 30
0.0
 11
39.9769890000000032
 21
71.6005889999999994
 31
0.0
  0
LINE
  5
207
100
AcDbEntity
100
AcDbLine
  8
cut
 62
256
370
-1
  6
ByLayer
 10
39.9769890000000032
 20
71.6005889999999994
 30
0.0
 11
41.0976939999999971
 21
73.7384930000000054
 31
0.0
  0
LINE
  5
208
100
AcDbEntity
100
AcDbLine
  8
cut
 62
256
370
-1
  6
ByLayer
 10
41.0976939999999971
 20
73.7384930000000054
 30
0.0
 11
42.2183980000000005
 21
71.6005889999999994
 31
0.0
  0
LINE
  5
209
100
AcDbEntity
100
AcDbLine
  8
cut
 62
256
370
-1
  6
ByLayer
 10
42.2183980000000005
 20
71.6005889999999994
 30
0.0
 11
43.3391030000000015
 21
73.7384930000000054
 31
0.0
  0
LINE
  5
20A
100
AcDbEntity
100
AcDbLine
  8
cut
 62
256
370
-1
  6
ByLayer
 10
43.3391030000000015
 20
73.7384930000000054
 30
0.0
 11
44.4598069999999979
 21
71.600482999999997
 31
0.0
  0
LINE
  5
20B
100
AcDbEntity
100
AcDbLine
  8
cut
 62
256
370
-1
  6
ByLayer
 10
44.4598069999999979
 20
71.600482999999997
 30
0.0
 11
45.5806880000000021
 21
73.7384930000000054
 31
0.0
  0
LINE
  5
20C
100
AcDbEntity
100
AcDbLine
  8
cut
 62
256
370
-1
  6
ByLayer
 10
45.5806880000000021
 20
73.7384930000000054
 30
0.0
 11
46.701393000000003
 21
71.6005889999999994
 31
0.0
  0
LINE
  5
20D
100
AcDbEntity
100
AcDbLine
  8
cut
 62
256
370
-1
  6
ByLayer
 10
46.701393000000003
 20
71.6005889999999994
 30
0.0
 11
47.8220969999999994
 21
73.7384930000000054
 31
0.0
  0
LINE
  5
20E
100
AcDbEntity
100
AcDbLine
  8
cut
 62
256
370
-1
  6
ByLayer
 10
47.8220969999999994
 20
73.7384930000000054
 30
0.0
 11
48.9430839999999989
 21
71.600482999999997
 31
0.0
  0
LINE
  5
20F
100
AcDbEntity
100
AcDbLine
  8
cut
 62
256
370
-1
  6
ByLayer
 10
48.9430839999999989
 20
71.600482999999997
 30
0.0
 11
48.9430839999999989
 21
71.600482999999997
 31
0.0
  0
CIRCLE
  5
210
100
AcDbEntity
100
AcDbCircle
  8
cut
 62
256
370
-1
  6
ByLayer
 10
164.2906575000000089
 20
32.1976039999999983
 30
0.0
 40
13.2554485
  0
CIRCLE
  5
211
100
AcDbEntity
100
AcDbCircle
  8
cut
 62
256
370
-1
  6
ByLayer
 10
164.2906394999999975
 20
32.1976039999999983
 30
0.0
 40
4.2890544999999918
  0
ENDSEC
  0
SECTION
  2
OBJECTS
  0
DICTIONARY
  5
C
100
AcDbDictionary
280
0
281
1
  3
ACAD_GROUP
350
D
  3
ACAD_LAYOUT
350
1A
  3
ACAD_MLINESTYLE
350
17
  3
ACAD_PLOTSETTINGS
350
19
  3
ACAD_PLOTSTYLENAME
350
E
  3
AcDbVariableDictionary
350
212
  0
DICTIONARY
  5
D
100
AcDbDictionary
280
0
281
1
  0
ACDBDICTIONARYWDFLT
  5
E
100
AcDbDictionary
281
1
  3
Normal
350
F
100
AcDbDictionaryWithDefault
340
F
  0
ACDBPLACEHOLDER
  5
F
  0
DICTIONARY
  5
17
100
AcDbDictionary
280
0
281
1
  3
Standard
350
18
  0
MLINESTYLE
  5
18
100
AcDbMlineStyle
  2
STANDARD
 70
0
  3

 62
256
 51
90.0
 52
90.0
 71
2
 49
0.5
 62
256
  6
BYLAYER
 49
-0.5
 62
256
  6
BYLAYER
  0
DICTIONARY
  5
19
100
AcDbDictionary
280
0
281
1
  0
DICTIONARY
  5
1A
100
AcDbDictionary
281
1
  3
Layout1
350
1E
  3
Layout2
350
26
  3
Model
350
22
  0
LAYOUT
  5
1E
100
AcDbPlotSettings
  1

  2
C:\Program Files\AutoCAD 2002\plotters\DWF ePlot (optimized for plotting).pc3
  4

  6

 40
0.0
 41
0.0
 42
0.0
 43
0.0
 44
0.0
 45
0.0
 46
0.0
 47
0.0
 48
0.0
 49
0.0
140
0.0
141
0.0
142
1.0
143
1.0
 70
688
 72
0
 73
0
 74
5
  7

 75
16
147
1.0
148
0.0
149
0.0
100
AcDbLayout
  1
Layout1
 70
1
 71
1
 10
0.0
 20
0.0
 11
420.0
 21
297.0
 12
0.0
 22
0.0
 32
0.0
 14
100000000000000000000.0
 24
100000000000000000000.0
 34
100000000000000000000.0
 15
-100000000000000000000.0
 25
-100000000000000000000.0
 35
-100000000000000000000.0
146
0.0
 13
0.0
 23
0.0
 33
0.0
 16
1.0
 26
0.0
 36
0.0
 17
0.0
 27
1.0
 37
0.0
 76
0
330
1B
  0
LAYOUT
  5
22
100
AcDbPlotSettings
  1

  2
C:\Program Files\AutoCAD 2002\plotters\DWF ePlot (optimized for plotting).pc3
  4

  6

 40
0.0
 41
0.0
 42
0.0
 43
0.0
 44
0.0
 45
0.0
 46
0.0
 47
0.0
 48
0.0
 49
0.0
140
0.0
141
0.0
142
1.0
143
1.0
 70
1712
 72
0
 73
0
 74
0
  7

 75
0
147
1.0
148
0.0
149
0.0
100
AcDbLayout
  1
Model
 70
1
 71
0
 10
0.0
 20
0.0
 11
12.0
 21
9.0
 12
0.0
 22
0.0
 32
0.0
 14
0.0
 24
0.0
 34
0.0
 15
0.0
 25
0.0
 35
0.0
146
0.0
 13
0.0
 23
0.0
 33
0.0
 16
1.0
 26
0.0
 36
0.0
 17
0.0
 27
1.0
 37
0.0
 76
0
330
1F
  0
LAYOUT
  5
26
100
AcDbPlotSettings
  1

  2
C:\Program Files\AutoCAD 2002\plotters\DWF ePlot (optimized for plotting).pc3
  4

  6

 40
0.0
 41
0.0
 42
0.0
 43
0.0
 44
0.0
 45
0.0
 46
0.0
 47
0.0
 48
0.0
 49
0.0
140
0.0
141
0.0
142
1.0
143
1.0
 70
688
 72
0
 73
0
 74
5
  7

 75
16
147
1.0
148
0.0
149
0.0
100
AcDbLayout
  1
Layout2
 70
1
 71
2
 10
0.0
 20
0.0
 11
12.0
 21
9.0
 12
0.0
 22
0.0
 32
0.0
 14
0.0
 24
0.0
 34
0.0
 15
0.0
 25
0.0
 35
0.0
146
0.0
 13
0.0
 23
0.0
 33
0.0
 16
1.0
 26
0.0
 36
0.0
 17
0.0
 27
1.0
 37
0.0
 76
0
330
23
  0
DICTIONARY
  5
212
100
AcDbDictionary
281
1
  3
DIMASSOC
350
214
  3
HIDETEXT
350
213
  0
DICTIONARYVAR
  5
213
100
DictionaryVariables
280
0
  1
2
  0
DICTIONARYVAR
  5
214
100
DictionaryVariables
280
0
  1
1
  0
ENDSEC
  0
EOF
